G04 #@! TF.GenerationSoftware,KiCad,Pcbnew,(6.0.10)*
G04 #@! TF.CreationDate,2023-01-07T13:36:28+01:00*
G04 #@! TF.ProjectId,chocofi-bottomplate,63686f63-6f66-4692-9d62-6f74746f6d70,2.1*
G04 #@! TF.SameCoordinates,Original*
G04 #@! TF.FileFunction,Profile,NP*
%FSLAX46Y46*%
G04 Gerber Fmt 4.6, Leading zero omitted, Abs format (unit mm)*
G04 Created by KiCad (PCBNEW (6.0.10)) date 2023-01-07 13:36:28*
%MOMM*%
%LPD*%
G01*
G04 APERTURE LIST*
G04 #@! TA.AperFunction,Profile*
%ADD10C,0.150000*%
G04 #@! TD*
G04 APERTURE END LIST*
D10*
X94540847Y-62014447D02*
X77419200Y-61976000D01*
X175768000Y-133654800D02*
X188304000Y-111884000D01*
X160477200Y-125984000D02*
X174288668Y-133959600D01*
X125374400Y-121240811D02*
X143154400Y-121259600D01*
X166859983Y-53450004D02*
G75*
G03*
X166360498Y-53055000I-499483J-118296D01*
G01*
X166360498Y-53055000D02*
X149293200Y-53069020D01*
X94540847Y-62014447D02*
G75*
G03*
X95040847Y-61514447I-47J500047D01*
G01*
X95517120Y-50006820D02*
G75*
G03*
X95017120Y-50506820I-20J-499980D01*
G01*
X130310000Y-44036200D02*
X113530000Y-44049553D01*
X130810000Y-50053400D02*
X130810000Y-44536200D01*
X148293200Y-50569020D02*
X131310000Y-50553400D01*
X148793200Y-52569020D02*
X148793200Y-51069020D01*
X95017120Y-50506820D02*
X95040847Y-61514447D01*
X112547120Y-50006820D02*
X95517120Y-50006820D01*
X113030000Y-44549553D02*
X113047120Y-49506820D01*
X112547120Y-50006820D02*
G75*
G03*
X113047120Y-49506820I-20J500020D01*
G01*
X113530000Y-44049600D02*
G75*
G03*
X113030000Y-44549553I0J-500000D01*
G01*
X130810000Y-44536200D02*
G75*
G03*
X130310000Y-44036200I-500000J0D01*
G01*
X130810000Y-50053400D02*
G75*
G03*
X131310000Y-50553400I500000J0D01*
G01*
X148793180Y-51069020D02*
G75*
G03*
X148293200Y-50569020I-499980J20D01*
G01*
X148793180Y-52569020D02*
G75*
G03*
X149293200Y-53069020I500020J20D01*
G01*
X95453200Y-100862652D02*
X112623600Y-100862652D01*
X94843600Y-105562400D02*
X94843600Y-101472252D01*
X113294857Y-101294883D02*
G75*
G03*
X112623600Y-100862652I-671257J-305117D01*
G01*
X125018800Y-121107200D02*
G75*
G03*
X125374400Y-121240811I355600J406400D01*
G01*
X174288670Y-133959593D02*
G75*
G03*
X175768000Y-133654800I440030J1606693D01*
G01*
X77012800Y-93776800D02*
X77012800Y-110744000D01*
X76962000Y-62433200D02*
X77012800Y-76708000D01*
X166860000Y-53450000D02*
X166890000Y-98740000D01*
X94792800Y-112115600D02*
X94843600Y-105562400D01*
X95453200Y-100862700D02*
G75*
G03*
X94843600Y-101472252I0J-609600D01*
G01*
X166889971Y-98740012D02*
G75*
G03*
X167280000Y-99110000I613929J256612D01*
G01*
X94132400Y-112776000D02*
G75*
G03*
X94792800Y-112115600I0J660400D01*
G01*
X77012800Y-112115600D02*
X77012800Y-110744000D01*
X188021631Y-111020019D02*
X167280000Y-99110000D01*
X77012800Y-76708000D02*
X77012800Y-93776800D01*
X188304000Y-111884000D02*
G75*
G03*
X188021632Y-111020019I-594000J284000D01*
G01*
X113294857Y-101294883D02*
X125018800Y-121107200D01*
X77419200Y-61976000D02*
G75*
G03*
X76962000Y-62433200I0J-457200D01*
G01*
X77673200Y-112776000D02*
X94132400Y-112776000D01*
X143154400Y-121259600D02*
X160477200Y-125984000D01*
X77012800Y-112115600D02*
G75*
G03*
X77673200Y-112776000I660400J0D01*
G01*
M02*
