G04 #@! TF.GenerationSoftware,KiCad,Pcbnew,(6.0.10)*
G04 #@! TF.CreationDate,2023-01-07T22:15:04+01:00*
G04 #@! TF.ProjectId,chocofi-bottomplate,63686f63-6f66-4692-9d62-6f74746f6d70,2.1*
G04 #@! TF.SameCoordinates,Original*
G04 #@! TF.FileFunction,Legend,Bot*
G04 #@! TF.FilePolarity,Positive*
%FSLAX46Y46*%
G04 Gerber Fmt 4.6, Leading zero omitted, Abs format (unit mm)*
G04 Created by KiCad (PCBNEW (6.0.10)) date 2023-01-07 22:15:04*
%MOMM*%
%LPD*%
G01*
G04 APERTURE LIST*
%ADD10C,0.300000*%
%ADD11C,2.700000*%
G04 APERTURE END LIST*
D10*
X120648571Y-73263809D02*
X117315238Y-83263809D01*
X113981904Y-73263809D01*
X110648571Y-83263809D02*
X110648571Y-73263809D01*
X105886666Y-83263809D02*
X105886666Y-73263809D01*
X102553333Y-80406666D01*
X99220000Y-73263809D01*
X99220000Y-83263809D01*
X125935000Y-98149642D02*
X126077857Y-98221071D01*
X126363571Y-98221071D01*
X126506428Y-98149642D01*
X126577857Y-98078214D01*
X126649285Y-97935357D01*
X126649285Y-97506785D01*
X126577857Y-97363928D01*
X126506428Y-97292500D01*
X126363571Y-97221071D01*
X126077857Y-97221071D01*
X125935000Y-97292500D01*
X125292142Y-98221071D02*
X125292142Y-96721071D01*
X124649285Y-98221071D02*
X124649285Y-97435357D01*
X124720714Y-97292500D01*
X124863571Y-97221071D01*
X125077857Y-97221071D01*
X125220714Y-97292500D01*
X125292142Y-97363928D01*
X123720714Y-98221071D02*
X123863571Y-98149642D01*
X123935000Y-98078214D01*
X124006428Y-97935357D01*
X124006428Y-97506785D01*
X123935000Y-97363928D01*
X123863571Y-97292500D01*
X123720714Y-97221071D01*
X123506428Y-97221071D01*
X123363571Y-97292500D01*
X123292142Y-97363928D01*
X123220714Y-97506785D01*
X123220714Y-97935357D01*
X123292142Y-98078214D01*
X123363571Y-98149642D01*
X123506428Y-98221071D01*
X123720714Y-98221071D01*
X121935000Y-98149642D02*
X122077857Y-98221071D01*
X122363571Y-98221071D01*
X122506428Y-98149642D01*
X122577857Y-98078214D01*
X122649285Y-97935357D01*
X122649285Y-97506785D01*
X122577857Y-97363928D01*
X122506428Y-97292500D01*
X122363571Y-97221071D01*
X122077857Y-97221071D01*
X121935000Y-97292500D01*
X121077857Y-98221071D02*
X121220714Y-98149642D01*
X121292142Y-98078214D01*
X121363571Y-97935357D01*
X121363571Y-97506785D01*
X121292142Y-97363928D01*
X121220714Y-97292500D01*
X121077857Y-97221071D01*
X120863571Y-97221071D01*
X120720714Y-97292500D01*
X120649285Y-97363928D01*
X120577857Y-97506785D01*
X120577857Y-97935357D01*
X120649285Y-98078214D01*
X120720714Y-98149642D01*
X120863571Y-98221071D01*
X121077857Y-98221071D01*
X120149285Y-97221071D02*
X119577857Y-97221071D01*
X119935000Y-98221071D02*
X119935000Y-96935357D01*
X119863571Y-96792500D01*
X119720714Y-96721071D01*
X119577857Y-96721071D01*
X119077857Y-98221071D02*
X119077857Y-97221071D01*
X119077857Y-96721071D02*
X119149285Y-96792500D01*
X119077857Y-96863928D01*
X119006428Y-96792500D01*
X119077857Y-96721071D01*
X119077857Y-96863928D01*
X125649285Y-99921785D02*
X125720714Y-99850357D01*
X125863571Y-99778928D01*
X126006428Y-99778928D01*
X126149285Y-99850357D01*
X126220714Y-99921785D01*
X126292142Y-100064642D01*
X126292142Y-100207500D01*
X126220714Y-100350357D01*
X126149285Y-100421785D01*
X126006428Y-100493214D01*
X125863571Y-100493214D01*
X125720714Y-100421785D01*
X125649285Y-100350357D01*
X125649285Y-99778928D02*
X125649285Y-100350357D01*
X125577857Y-100421785D01*
X125506428Y-100421785D01*
X125363571Y-100350357D01*
X125292142Y-100207500D01*
X125292142Y-99850357D01*
X125435000Y-99636071D01*
X125649285Y-99493214D01*
X125935000Y-99421785D01*
X126220714Y-99493214D01*
X126435000Y-99636071D01*
X126577857Y-99850357D01*
X126649285Y-100136071D01*
X126577857Y-100421785D01*
X126435000Y-100636071D01*
X126220714Y-100778928D01*
X125935000Y-100850357D01*
X125649285Y-100778928D01*
X125435000Y-100636071D01*
X124649285Y-99636071D02*
X124649285Y-101136071D01*
X124649285Y-99707500D02*
X124506428Y-99636071D01*
X124220714Y-99636071D01*
X124077857Y-99707500D01*
X124006428Y-99778928D01*
X123935000Y-99921785D01*
X123935000Y-100350357D01*
X124006428Y-100493214D01*
X124077857Y-100564642D01*
X124220714Y-100636071D01*
X124506428Y-100636071D01*
X124649285Y-100564642D01*
X122649285Y-100636071D02*
X122649285Y-99850357D01*
X122720714Y-99707500D01*
X122863571Y-99636071D01*
X123149285Y-99636071D01*
X123292142Y-99707500D01*
X122649285Y-100564642D02*
X122792142Y-100636071D01*
X123149285Y-100636071D01*
X123292142Y-100564642D01*
X123363571Y-100421785D01*
X123363571Y-100278928D01*
X123292142Y-100136071D01*
X123149285Y-100064642D01*
X122792142Y-100064642D01*
X122649285Y-99993214D01*
X122006428Y-100564642D02*
X121863571Y-100636071D01*
X121577857Y-100636071D01*
X121435000Y-100564642D01*
X121363571Y-100421785D01*
X121363571Y-100350357D01*
X121435000Y-100207500D01*
X121577857Y-100136071D01*
X121792142Y-100136071D01*
X121935000Y-100064642D01*
X122006428Y-99921785D01*
X122006428Y-99850357D01*
X121935000Y-99707500D01*
X121792142Y-99636071D01*
X121577857Y-99636071D01*
X121435000Y-99707500D01*
X120720714Y-100636071D02*
X120720714Y-99136071D01*
X120077857Y-100636071D02*
X120077857Y-99850357D01*
X120149285Y-99707500D01*
X120292142Y-99636071D01*
X120506428Y-99636071D01*
X120649285Y-99707500D01*
X120720714Y-99778928D01*
X118720714Y-99636071D02*
X118720714Y-100636071D01*
X119363571Y-99636071D02*
X119363571Y-100421785D01*
X119292142Y-100564642D01*
X119149285Y-100636071D01*
X118935000Y-100636071D01*
X118792142Y-100564642D01*
X118720714Y-100493214D01*
X118220714Y-99636071D02*
X117649285Y-99636071D01*
X118006428Y-99136071D02*
X118006428Y-100421785D01*
X117935000Y-100564642D01*
X117792142Y-100636071D01*
X117649285Y-100636071D01*
X117149285Y-100636071D02*
X117149285Y-99136071D01*
X117006428Y-100064642D02*
X116577857Y-100636071D01*
X116577857Y-99636071D02*
X117149285Y-100207500D01*
G36*
X137010881Y-64241383D02*
G01*
X137005294Y-64254003D01*
X137024679Y-64253591D01*
X137050403Y-64272232D01*
X137119968Y-64335165D01*
X137230140Y-64439485D01*
X137377835Y-64582146D01*
X137559966Y-64760099D01*
X137773448Y-64970297D01*
X138015194Y-65209691D01*
X138282119Y-65475235D01*
X138571138Y-65763879D01*
X138879163Y-66072576D01*
X139203111Y-66398278D01*
X139539894Y-66737937D01*
X142020576Y-69243625D01*
X142020576Y-83168102D01*
X139444006Y-85721038D01*
X136867435Y-88273973D01*
X136868611Y-81314408D01*
X136869786Y-74354843D01*
X137542176Y-73357461D01*
X137674344Y-73161372D01*
X137858834Y-72887573D01*
X138067052Y-72578485D01*
X138291747Y-72244877D01*
X138525666Y-71897518D01*
X138761556Y-71547178D01*
X138992165Y-71204625D01*
X139210239Y-70880629D01*
X139236505Y-70841603D01*
X139441694Y-70536799D01*
X139647755Y-70230822D01*
X139849262Y-69931720D01*
X140040790Y-69647543D01*
X140216911Y-69386340D01*
X140372200Y-69156160D01*
X140501231Y-68965055D01*
X140598576Y-68821072D01*
X140991240Y-68240965D01*
X140817069Y-68064603D01*
X140642897Y-67888241D01*
X140076698Y-68748637D01*
X140028723Y-68821570D01*
X139897623Y-69021067D01*
X139736949Y-69265772D01*
X139551423Y-69548488D01*
X139345762Y-69862017D01*
X139124689Y-70199162D01*
X138892921Y-70552726D01*
X138655180Y-70915510D01*
X138416184Y-71280319D01*
X138180655Y-71639953D01*
X138058109Y-71827040D01*
X137880286Y-72098371D01*
X137669089Y-72420501D01*
X137426219Y-72790838D01*
X137153378Y-73206789D01*
X136852268Y-73665762D01*
X136524591Y-74165166D01*
X136172047Y-74702407D01*
X135796340Y-75274894D01*
X135399170Y-75880034D01*
X134982240Y-76515235D01*
X134547250Y-77177906D01*
X134095903Y-77865452D01*
X133629901Y-78575283D01*
X133150945Y-79304806D01*
X132660737Y-80051429D01*
X132160978Y-80812560D01*
X131653371Y-81585606D01*
X131139617Y-82367975D01*
X130621417Y-83157076D01*
X130100474Y-83950314D01*
X129578489Y-84745099D01*
X129057163Y-85538839D01*
X128538200Y-86328940D01*
X128023299Y-87112811D01*
X127925085Y-87261864D01*
X127764646Y-87503299D01*
X127616784Y-87723286D01*
X127485440Y-87916106D01*
X127374556Y-88076042D01*
X127288073Y-88197375D01*
X127229933Y-88274386D01*
X127204076Y-88301358D01*
X127203259Y-88301098D01*
X127170365Y-88273174D01*
X127094100Y-88201329D01*
X126977523Y-88088602D01*
X126823695Y-87938030D01*
X126635675Y-87752649D01*
X126416524Y-87535497D01*
X126169301Y-87289611D01*
X125897065Y-87018029D01*
X125602876Y-86723787D01*
X125289795Y-86409924D01*
X124960881Y-86079476D01*
X124619194Y-85735481D01*
X122072932Y-83169391D01*
X122072932Y-76930632D01*
X122072993Y-76465100D01*
X122073277Y-75821917D01*
X122073783Y-75192575D01*
X122074498Y-74580834D01*
X122075410Y-73990456D01*
X122076507Y-73425201D01*
X122077778Y-72888830D01*
X122079211Y-72385104D01*
X122080793Y-71917783D01*
X122082512Y-71490629D01*
X122084357Y-71107402D01*
X122086316Y-70771863D01*
X122088376Y-70487774D01*
X122090525Y-70258893D01*
X122092753Y-70088984D01*
X122095046Y-69981805D01*
X122117160Y-69271737D01*
X127329588Y-64048561D01*
X127307609Y-71362697D01*
X127307114Y-71528954D01*
X127305149Y-72217099D01*
X127303374Y-72886620D01*
X127301791Y-73534526D01*
X127300403Y-74157825D01*
X127299213Y-74753524D01*
X127298224Y-75318634D01*
X127297437Y-75850160D01*
X127296856Y-76345113D01*
X127296482Y-76800500D01*
X127296320Y-77213329D01*
X127296370Y-77580609D01*
X127296636Y-77899347D01*
X127297121Y-78166552D01*
X127297827Y-78379233D01*
X127298756Y-78534398D01*
X127299911Y-78629054D01*
X127301295Y-78660210D01*
X127310729Y-78646243D01*
X127354168Y-78580534D01*
X127431462Y-78463110D01*
X127541089Y-78296292D01*
X127681526Y-78082402D01*
X127851250Y-77823763D01*
X128048741Y-77522697D01*
X128272476Y-77181525D01*
X128520932Y-76802571D01*
X128792588Y-76388155D01*
X129085922Y-75940600D01*
X129399411Y-75462229D01*
X129731533Y-74955363D01*
X130080766Y-74422324D01*
X130445588Y-73865434D01*
X130824477Y-73287016D01*
X131215911Y-72689392D01*
X131618367Y-72074883D01*
X132030323Y-71445812D01*
X132305126Y-71026173D01*
X132711856Y-70405115D01*
X133108408Y-69799648D01*
X133493238Y-69212127D01*
X133864804Y-68644908D01*
X134221560Y-68100345D01*
X134561964Y-67580793D01*
X134884472Y-67088609D01*
X135187539Y-66626147D01*
X135469623Y-66195763D01*
X135729179Y-65799811D01*
X135964664Y-65440648D01*
X136174534Y-65120628D01*
X136357245Y-64842107D01*
X136511254Y-64607439D01*
X136635017Y-64418980D01*
X136726989Y-64279086D01*
X136785628Y-64190112D01*
X136809390Y-64154412D01*
X136847158Y-64100594D01*
X136875586Y-64100594D01*
X136884058Y-64131676D01*
X136890888Y-64141517D01*
X136921228Y-64164922D01*
X136925776Y-64162757D01*
X136917304Y-64131676D01*
X136910474Y-64121834D01*
X136880134Y-64098430D01*
X136875586Y-64100594D01*
X136847158Y-64100594D01*
X136875093Y-64060788D01*
X136953355Y-64134310D01*
X136957925Y-64138695D01*
X136976417Y-64162757D01*
X137003633Y-64198171D01*
X137010881Y-64241383D01*
G37*
%LPC*%
D11*
X148971000Y-69850000D03*
X95000000Y-66802000D03*
X95000000Y-83820000D03*
X123952000Y-104140000D03*
X167005000Y-110363000D03*
M02*
