%TF.GenerationSoftware,KiCad,Pcbnew,(6.0.10)*%
%TF.CreationDate,2023-01-07T13:36:21+01:00*%
%TF.ProjectId,chocofi-bottomplate,63686f63-6f66-4692-9d62-6f74746f6d70,2.1*%
%TF.SameCoordinates,Original*%
%TF.FileFunction,Drillmap*%
%TF.FilePolarity,Positive*%
%FSLAX45Y45*%
G04 Gerber Fmt 4.5, Leading zero omitted, Abs format (unit mm)*
G04 Created by KiCad (PCBNEW (6.0.10)) date 2023-01-07 13:36:21*
%MOMM*%
%LPD*%
G01*
G04 APERTURE LIST*
%ADD10C,0.150000*%
%ADD11C,0.200000*%
G04 APERTURE END LIST*
D10*
X9454085Y-6201445D02*
X7741920Y-6197600D01*
X17576800Y-13365480D02*
X18830400Y-11188400D01*
X16047720Y-12598400D02*
X17428867Y-13395960D01*
X12537440Y-12124081D02*
X14315440Y-12125960D01*
X16685998Y-5345000D02*
G75*
G03*
X16636050Y-5305500I-49948J-11830D01*
G01*
X16636050Y-5305500D02*
X14929320Y-5306902D01*
X9454085Y-6201445D02*
G75*
G03*
X9504085Y-6151445I-5J50005D01*
G01*
X9551712Y-5000682D02*
G75*
G03*
X9501712Y-5050682I-2J-49998D01*
G01*
X13031000Y-4403620D02*
X11353000Y-4404955D01*
X13081000Y-5005340D02*
X13081000Y-4453620D01*
X14829320Y-5056902D02*
X13131000Y-5055340D01*
X14879320Y-5256902D02*
X14879320Y-5106902D01*
X9501712Y-5050682D02*
X9504085Y-6151445D01*
X11254712Y-5000682D02*
X9551712Y-5000682D01*
X11303000Y-4454955D02*
X11304712Y-4950682D01*
X11254712Y-5000682D02*
G75*
G03*
X11304712Y-4950682I-2J50002D01*
G01*
X11353000Y-4404960D02*
G75*
G03*
X11303000Y-4454955I0J-50000D01*
G01*
X13081000Y-4453620D02*
G75*
G03*
X13031000Y-4403620I-50000J0D01*
G01*
X13081000Y-5005340D02*
G75*
G03*
X13131000Y-5055340I50000J0D01*
G01*
X14879318Y-5106902D02*
G75*
G03*
X14829320Y-5056902I-49998J2D01*
G01*
X14879318Y-5256902D02*
G75*
G03*
X14929320Y-5306902I50002J2D01*
G01*
X9545320Y-10086265D02*
X11262360Y-10086265D01*
X9484360Y-10556240D02*
X9484360Y-10147225D01*
X11329486Y-10129488D02*
G75*
G03*
X11262360Y-10086265I-67126J-30512D01*
G01*
X12501880Y-12110720D02*
G75*
G03*
X12537440Y-12124081I35560J40640D01*
G01*
X17428867Y-13395959D02*
G75*
G03*
X17576800Y-13365480I44003J160669D01*
G01*
X7701280Y-9377680D02*
X7701280Y-11074400D01*
X7696200Y-6243320D02*
X7701280Y-7670800D01*
X16686000Y-5345000D02*
X16689000Y-9874000D01*
X9479280Y-11211560D02*
X9484360Y-10556240D01*
X9545320Y-10086270D02*
G75*
G03*
X9484360Y-10147225I0J-60960D01*
G01*
X16688997Y-9874001D02*
G75*
G03*
X16728000Y-9911000I61393J25661D01*
G01*
X9413240Y-11277600D02*
G75*
G03*
X9479280Y-11211560I0J66040D01*
G01*
X7701280Y-11211560D02*
X7701280Y-11074400D01*
X18802163Y-11102002D02*
X16728000Y-9911000D01*
X7701280Y-7670800D02*
X7701280Y-9377680D01*
X18830400Y-11188400D02*
G75*
G03*
X18802163Y-11102002I-59400J28400D01*
G01*
X11329486Y-10129488D02*
X12501880Y-12110720D01*
X7741920Y-6197600D02*
G75*
G03*
X7696200Y-6243320I0J-45720D01*
G01*
X7767320Y-11277600D02*
X9413240Y-11277600D01*
X14315440Y-12125960D02*
X16047720Y-12598400D01*
X7701280Y-11211560D02*
G75*
G03*
X7767320Y-11277600I66040J0D01*
G01*
D11*
X7946319Y-13719852D02*
X7946319Y-13519852D01*
X7993938Y-13519852D01*
X8022509Y-13529376D01*
X8041557Y-13548424D01*
X8051081Y-13567471D01*
X8060605Y-13605566D01*
X8060605Y-13634138D01*
X8051081Y-13672233D01*
X8041557Y-13691281D01*
X8022509Y-13710328D01*
X7993938Y-13719852D01*
X7946319Y-13719852D01*
X8146319Y-13719852D02*
X8146319Y-13586519D01*
X8146319Y-13624614D02*
X8155843Y-13605566D01*
X8165367Y-13596043D01*
X8184414Y-13586519D01*
X8203462Y-13586519D01*
X8270128Y-13719852D02*
X8270128Y-13586519D01*
X8270128Y-13519852D02*
X8260605Y-13529376D01*
X8270128Y-13538900D01*
X8279652Y-13529376D01*
X8270128Y-13519852D01*
X8270128Y-13538900D01*
X8393938Y-13719852D02*
X8374890Y-13710328D01*
X8365367Y-13691281D01*
X8365367Y-13519852D01*
X8498700Y-13719852D02*
X8479652Y-13710328D01*
X8470129Y-13691281D01*
X8470129Y-13519852D01*
X8727271Y-13719852D02*
X8727271Y-13519852D01*
X8793938Y-13662709D01*
X8860605Y-13519852D01*
X8860605Y-13719852D01*
X9041557Y-13719852D02*
X9041557Y-13615090D01*
X9032033Y-13596043D01*
X9012986Y-13586519D01*
X8974890Y-13586519D01*
X8955843Y-13596043D01*
X9041557Y-13710328D02*
X9022510Y-13719852D01*
X8974890Y-13719852D01*
X8955843Y-13710328D01*
X8946319Y-13691281D01*
X8946319Y-13672233D01*
X8955843Y-13653185D01*
X8974890Y-13643662D01*
X9022510Y-13643662D01*
X9041557Y-13634138D01*
X9136795Y-13586519D02*
X9136795Y-13786519D01*
X9136795Y-13596043D02*
X9155843Y-13586519D01*
X9193938Y-13586519D01*
X9212986Y-13596043D01*
X9222510Y-13605566D01*
X9232033Y-13624614D01*
X9232033Y-13681757D01*
X9222510Y-13700804D01*
X9212986Y-13710328D01*
X9193938Y-13719852D01*
X9155843Y-13719852D01*
X9136795Y-13710328D01*
X9317748Y-13700804D02*
X9327271Y-13710328D01*
X9317748Y-13719852D01*
X9308224Y-13710328D01*
X9317748Y-13700804D01*
X9317748Y-13719852D01*
X9317748Y-13596043D02*
X9327271Y-13605566D01*
X9317748Y-13615090D01*
X9308224Y-13605566D01*
X9317748Y-13596043D01*
X9317748Y-13615090D01*
M02*
