%TF.GenerationSoftware,KiCad,Pcbnew,(6.0.10)*%
%TF.CreationDate,2023-01-07T22:15:02+01:00*%
%TF.ProjectId,chocofi-bottomplate,63686f63-6f66-4692-9d62-6f74746f6d70,2.1*%
%TF.SameCoordinates,Original*%
%TF.FileFunction,Drillmap*%
%TF.FilePolarity,Positive*%
%FSLAX45Y45*%
G04 Gerber Fmt 4.5, Leading zero omitted, Abs format (unit mm)*
G04 Created by KiCad (PCBNEW (6.0.10)) date 2023-01-07 22:15:02*
%MOMM*%
%LPD*%
G01*
G04 APERTURE LIST*
%ADD10C,0.150000*%
%ADD11C,0.200000*%
%ADD12C,0.230000*%
G04 APERTURE END LIST*
D10*
X18762000Y-5380500D02*
X16733040Y-5381502D01*
X9451545Y-6202085D02*
X7741920Y-6197600D01*
X17576800Y-13365480D02*
X18821400Y-11201400D01*
X16047720Y-12598400D02*
X17428867Y-13395960D01*
X12537440Y-12124081D02*
X14315440Y-12125960D01*
X16685040Y-5345502D02*
G75*
G03*
X16636050Y-5305500I-48990J-9998D01*
G01*
X16685039Y-5345502D02*
G75*
G03*
X16733040Y-5381502I48001J14002D01*
G01*
X16636050Y-5305500D02*
X14929320Y-5306902D01*
X9451545Y-6202085D02*
G75*
G03*
X9501545Y-6152085I-5J50005D01*
G01*
X9551712Y-5000682D02*
G75*
G03*
X9501712Y-5050682I-2J-49998D01*
G01*
X13031000Y-4403620D02*
X11353000Y-4404955D01*
X13081000Y-5005340D02*
X13081000Y-4453620D01*
X14829320Y-5056902D02*
X13131000Y-5055340D01*
X14879320Y-5256902D02*
X14879320Y-5106902D01*
X9501712Y-5050682D02*
X9501545Y-6152085D01*
X11254712Y-5000682D02*
X9551712Y-5000682D01*
X11303000Y-4454955D02*
X11304712Y-4950682D01*
X11254712Y-5000682D02*
G75*
G03*
X11304712Y-4950682I-2J50002D01*
G01*
X11353000Y-4404960D02*
G75*
G03*
X11303000Y-4454955I0J-50000D01*
G01*
X13081000Y-4453620D02*
G75*
G03*
X13031000Y-4403620I-50000J0D01*
G01*
X13081000Y-5005340D02*
G75*
G03*
X13131000Y-5055340I50000J0D01*
G01*
X14879318Y-5106902D02*
G75*
G03*
X14829320Y-5056902I-49998J2D01*
G01*
X14879318Y-5256902D02*
G75*
G03*
X14929320Y-5306902I50002J2D01*
G01*
X18812000Y-5430500D02*
G75*
G03*
X18762000Y-5380500I-50000J0D01*
G01*
X9545320Y-10086265D02*
X11262360Y-10086265D01*
X9479280Y-11074400D02*
X9484360Y-10147225D01*
X11329486Y-10129488D02*
G75*
G03*
X11262360Y-10086265I-67126J-30512D01*
G01*
X12501880Y-12110720D02*
G75*
G03*
X12537440Y-12124081I35560J40640D01*
G01*
X17428867Y-13395959D02*
G75*
G03*
X17576800Y-13365480I44003J160669D01*
G01*
X7701280Y-9377680D02*
X7701280Y-11074400D01*
X7696200Y-6243320D02*
X7701280Y-7670800D01*
X18812000Y-5430500D02*
X18821400Y-11201400D01*
X9479280Y-11211560D02*
X9479280Y-11074400D01*
X9545320Y-10086270D02*
G75*
G03*
X9484360Y-10147225I0J-60960D01*
G01*
X9413240Y-11277600D02*
G75*
G03*
X9479280Y-11211560I0J66040D01*
G01*
X7701280Y-11211560D02*
X7701280Y-11074400D01*
X7701280Y-7670800D02*
X7701280Y-9377680D01*
X11329486Y-10129488D02*
X12501880Y-12110720D01*
X7741920Y-6197600D02*
G75*
G03*
X7696200Y-6243320I0J-45720D01*
G01*
X7767320Y-11277600D02*
X9413240Y-11277600D01*
X14315440Y-12125960D02*
X16047720Y-12598400D01*
X7701280Y-11211560D02*
G75*
G03*
X7767320Y-11277600I66040J0D01*
G01*
D11*
D12*
X9385000Y-6565200D02*
X9615000Y-6795200D01*
X9615000Y-6565200D02*
X9385000Y-6795200D01*
X9385000Y-8267000D02*
X9615000Y-8497000D01*
X9615000Y-8267000D02*
X9385000Y-8497000D01*
X12280200Y-10299000D02*
X12510200Y-10529000D01*
X12510200Y-10299000D02*
X12280200Y-10529000D01*
X14782100Y-6870000D02*
X15012100Y-7100000D01*
X15012100Y-6870000D02*
X14782100Y-7100000D01*
X16585500Y-10921300D02*
X16815500Y-11151300D01*
X16815500Y-10921300D02*
X16585500Y-11151300D01*
D11*
X7946319Y-13719852D02*
X7946319Y-13519852D01*
X7993938Y-13519852D01*
X8022509Y-13529376D01*
X8041557Y-13548424D01*
X8051081Y-13567471D01*
X8060605Y-13605566D01*
X8060605Y-13634138D01*
X8051081Y-13672233D01*
X8041557Y-13691281D01*
X8022509Y-13710328D01*
X7993938Y-13719852D01*
X7946319Y-13719852D01*
X8146319Y-13719852D02*
X8146319Y-13586519D01*
X8146319Y-13624614D02*
X8155843Y-13605566D01*
X8165367Y-13596043D01*
X8184414Y-13586519D01*
X8203462Y-13586519D01*
X8270128Y-13719852D02*
X8270128Y-13586519D01*
X8270128Y-13519852D02*
X8260605Y-13529376D01*
X8270128Y-13538900D01*
X8279652Y-13529376D01*
X8270128Y-13519852D01*
X8270128Y-13538900D01*
X8393938Y-13719852D02*
X8374890Y-13710328D01*
X8365367Y-13691281D01*
X8365367Y-13519852D01*
X8498700Y-13719852D02*
X8479652Y-13710328D01*
X8470129Y-13691281D01*
X8470129Y-13519852D01*
X8727271Y-13719852D02*
X8727271Y-13519852D01*
X8793938Y-13662709D01*
X8860605Y-13519852D01*
X8860605Y-13719852D01*
X9041557Y-13719852D02*
X9041557Y-13615090D01*
X9032033Y-13596043D01*
X9012986Y-13586519D01*
X8974890Y-13586519D01*
X8955843Y-13596043D01*
X9041557Y-13710328D02*
X9022510Y-13719852D01*
X8974890Y-13719852D01*
X8955843Y-13710328D01*
X8946319Y-13691281D01*
X8946319Y-13672233D01*
X8955843Y-13653185D01*
X8974890Y-13643662D01*
X9022510Y-13643662D01*
X9041557Y-13634138D01*
X9136795Y-13586519D02*
X9136795Y-13786519D01*
X9136795Y-13596043D02*
X9155843Y-13586519D01*
X9193938Y-13586519D01*
X9212986Y-13596043D01*
X9222510Y-13605566D01*
X9232033Y-13624614D01*
X9232033Y-13681757D01*
X9222510Y-13700804D01*
X9212986Y-13710328D01*
X9193938Y-13719852D01*
X9155843Y-13719852D01*
X9136795Y-13710328D01*
X9317748Y-13700804D02*
X9327271Y-13710328D01*
X9317748Y-13719852D01*
X9308224Y-13710328D01*
X9317748Y-13700804D01*
X9317748Y-13719852D01*
X9317748Y-13596043D02*
X9327271Y-13605566D01*
X9317748Y-13615090D01*
X9308224Y-13605566D01*
X9317748Y-13596043D01*
X9317748Y-13615090D01*
X7488700Y-13949376D02*
X7688700Y-14149376D01*
X7688700Y-13949376D02*
X7488700Y-14149376D01*
X7936795Y-13958900D02*
X7946319Y-13949376D01*
X7965367Y-13939852D01*
X8012986Y-13939852D01*
X8032033Y-13949376D01*
X8041557Y-13958900D01*
X8051081Y-13977947D01*
X8051081Y-13996995D01*
X8041557Y-14025566D01*
X7927271Y-14139852D01*
X8051081Y-14139852D01*
X8136795Y-14120804D02*
X8146319Y-14130328D01*
X8136795Y-14139852D01*
X8127271Y-14130328D01*
X8136795Y-14120804D01*
X8136795Y-14139852D01*
X8212986Y-13939852D02*
X8336795Y-13939852D01*
X8270128Y-14016043D01*
X8298700Y-14016043D01*
X8317748Y-14025566D01*
X8327271Y-14035090D01*
X8336795Y-14054138D01*
X8336795Y-14101757D01*
X8327271Y-14120804D01*
X8317748Y-14130328D01*
X8298700Y-14139852D01*
X8241557Y-14139852D01*
X8222509Y-14130328D01*
X8212986Y-14120804D01*
X8460605Y-13939852D02*
X8479652Y-13939852D01*
X8498700Y-13949376D01*
X8508224Y-13958900D01*
X8517748Y-13977947D01*
X8527271Y-14016043D01*
X8527271Y-14063662D01*
X8517748Y-14101757D01*
X8508224Y-14120804D01*
X8498700Y-14130328D01*
X8479652Y-14139852D01*
X8460605Y-14139852D01*
X8441557Y-14130328D01*
X8432033Y-14120804D01*
X8422510Y-14101757D01*
X8412986Y-14063662D01*
X8412986Y-14016043D01*
X8422510Y-13977947D01*
X8432033Y-13958900D01*
X8441557Y-13949376D01*
X8460605Y-13939852D01*
X8651081Y-13939852D02*
X8670129Y-13939852D01*
X8689176Y-13949376D01*
X8698700Y-13958900D01*
X8708224Y-13977947D01*
X8717748Y-14016043D01*
X8717748Y-14063662D01*
X8708224Y-14101757D01*
X8698700Y-14120804D01*
X8689176Y-14130328D01*
X8670129Y-14139852D01*
X8651081Y-14139852D01*
X8632033Y-14130328D01*
X8622510Y-14120804D01*
X8612986Y-14101757D01*
X8603462Y-14063662D01*
X8603462Y-14016043D01*
X8612986Y-13977947D01*
X8622510Y-13958900D01*
X8632033Y-13949376D01*
X8651081Y-13939852D01*
X8803462Y-14139852D02*
X8803462Y-14006519D01*
X8803462Y-14025566D02*
X8812986Y-14016043D01*
X8832033Y-14006519D01*
X8860605Y-14006519D01*
X8879652Y-14016043D01*
X8889176Y-14035090D01*
X8889176Y-14139852D01*
X8889176Y-14035090D02*
X8898700Y-14016043D01*
X8917748Y-14006519D01*
X8946319Y-14006519D01*
X8965367Y-14016043D01*
X8974890Y-14035090D01*
X8974890Y-14139852D01*
X9070129Y-14139852D02*
X9070129Y-14006519D01*
X9070129Y-14025566D02*
X9079652Y-14016043D01*
X9098700Y-14006519D01*
X9127271Y-14006519D01*
X9146319Y-14016043D01*
X9155843Y-14035090D01*
X9155843Y-14139852D01*
X9155843Y-14035090D02*
X9165367Y-14016043D01*
X9184414Y-14006519D01*
X9212986Y-14006519D01*
X9232033Y-14016043D01*
X9241557Y-14035090D01*
X9241557Y-14139852D01*
X9632033Y-13930328D02*
X9460605Y-14187471D01*
X9889176Y-13939852D02*
X9908224Y-13939852D01*
X9927271Y-13949376D01*
X9936795Y-13958900D01*
X9946319Y-13977947D01*
X9955843Y-14016043D01*
X9955843Y-14063662D01*
X9946319Y-14101757D01*
X9936795Y-14120804D01*
X9927271Y-14130328D01*
X9908224Y-14139852D01*
X9889176Y-14139852D01*
X9870129Y-14130328D01*
X9860605Y-14120804D01*
X9851081Y-14101757D01*
X9841557Y-14063662D01*
X9841557Y-14016043D01*
X9851081Y-13977947D01*
X9860605Y-13958900D01*
X9870129Y-13949376D01*
X9889176Y-13939852D01*
X10041557Y-14120804D02*
X10051081Y-14130328D01*
X10041557Y-14139852D01*
X10032033Y-14130328D01*
X10041557Y-14120804D01*
X10041557Y-14139852D01*
X10174890Y-13939852D02*
X10193938Y-13939852D01*
X10212986Y-13949376D01*
X10222510Y-13958900D01*
X10232033Y-13977947D01*
X10241557Y-14016043D01*
X10241557Y-14063662D01*
X10232033Y-14101757D01*
X10222510Y-14120804D01*
X10212986Y-14130328D01*
X10193938Y-14139852D01*
X10174890Y-14139852D01*
X10155843Y-14130328D01*
X10146319Y-14120804D01*
X10136795Y-14101757D01*
X10127271Y-14063662D01*
X10127271Y-14016043D01*
X10136795Y-13977947D01*
X10146319Y-13958900D01*
X10155843Y-13949376D01*
X10174890Y-13939852D01*
X10336795Y-14139852D02*
X10374890Y-14139852D01*
X10393938Y-14130328D01*
X10403462Y-14120804D01*
X10422510Y-14092233D01*
X10432033Y-14054138D01*
X10432033Y-13977947D01*
X10422510Y-13958900D01*
X10412986Y-13949376D01*
X10393938Y-13939852D01*
X10355843Y-13939852D01*
X10336795Y-13949376D01*
X10327271Y-13958900D01*
X10317748Y-13977947D01*
X10317748Y-14025566D01*
X10327271Y-14044614D01*
X10336795Y-14054138D01*
X10355843Y-14063662D01*
X10393938Y-14063662D01*
X10412986Y-14054138D01*
X10422510Y-14044614D01*
X10432033Y-14025566D01*
X10555843Y-13939852D02*
X10574890Y-13939852D01*
X10593938Y-13949376D01*
X10603462Y-13958900D01*
X10612986Y-13977947D01*
X10622510Y-14016043D01*
X10622510Y-14063662D01*
X10612986Y-14101757D01*
X10603462Y-14120804D01*
X10593938Y-14130328D01*
X10574890Y-14139852D01*
X10555843Y-14139852D01*
X10536795Y-14130328D01*
X10527271Y-14120804D01*
X10517748Y-14101757D01*
X10508224Y-14063662D01*
X10508224Y-14016043D01*
X10517748Y-13977947D01*
X10527271Y-13958900D01*
X10536795Y-13949376D01*
X10555843Y-13939852D01*
X10793938Y-13939852D02*
X10755843Y-13939852D01*
X10736795Y-13949376D01*
X10727271Y-13958900D01*
X10708224Y-13987471D01*
X10698700Y-14025566D01*
X10698700Y-14101757D01*
X10708224Y-14120804D01*
X10717748Y-14130328D01*
X10736795Y-14139852D01*
X10774890Y-14139852D01*
X10793938Y-14130328D01*
X10803462Y-14120804D01*
X10812986Y-14101757D01*
X10812986Y-14054138D01*
X10803462Y-14035090D01*
X10793938Y-14025566D01*
X10774890Y-14016043D01*
X10736795Y-14016043D01*
X10717748Y-14025566D01*
X10708224Y-14035090D01*
X10698700Y-14054138D01*
X10889176Y-13939852D02*
X10889176Y-13977947D01*
X10965367Y-13939852D02*
X10965367Y-13977947D01*
X11260605Y-14216043D02*
X11251081Y-14206519D01*
X11232033Y-14177947D01*
X11222509Y-14158900D01*
X11212986Y-14130328D01*
X11203462Y-14082709D01*
X11203462Y-14044614D01*
X11212986Y-13996995D01*
X11222509Y-13968424D01*
X11232033Y-13949376D01*
X11251081Y-13920804D01*
X11260605Y-13911281D01*
X11432033Y-13939852D02*
X11336795Y-13939852D01*
X11327271Y-14035090D01*
X11336795Y-14025566D01*
X11355843Y-14016043D01*
X11403462Y-14016043D01*
X11422509Y-14025566D01*
X11432033Y-14035090D01*
X11441557Y-14054138D01*
X11441557Y-14101757D01*
X11432033Y-14120804D01*
X11422509Y-14130328D01*
X11403462Y-14139852D01*
X11355843Y-14139852D01*
X11336795Y-14130328D01*
X11327271Y-14120804D01*
X11679652Y-14139852D02*
X11679652Y-13939852D01*
X11765367Y-14139852D02*
X11765367Y-14035090D01*
X11755843Y-14016043D01*
X11736795Y-14006519D01*
X11708224Y-14006519D01*
X11689176Y-14016043D01*
X11679652Y-14025566D01*
X11889176Y-14139852D02*
X11870128Y-14130328D01*
X11860605Y-14120804D01*
X11851081Y-14101757D01*
X11851081Y-14044614D01*
X11860605Y-14025566D01*
X11870128Y-14016043D01*
X11889176Y-14006519D01*
X11917748Y-14006519D01*
X11936795Y-14016043D01*
X11946319Y-14025566D01*
X11955843Y-14044614D01*
X11955843Y-14101757D01*
X11946319Y-14120804D01*
X11936795Y-14130328D01*
X11917748Y-14139852D01*
X11889176Y-14139852D01*
X12070128Y-14139852D02*
X12051081Y-14130328D01*
X12041557Y-14111281D01*
X12041557Y-13939852D01*
X12222509Y-14130328D02*
X12203462Y-14139852D01*
X12165367Y-14139852D01*
X12146319Y-14130328D01*
X12136795Y-14111281D01*
X12136795Y-14035090D01*
X12146319Y-14016043D01*
X12165367Y-14006519D01*
X12203462Y-14006519D01*
X12222509Y-14016043D01*
X12232033Y-14035090D01*
X12232033Y-14054138D01*
X12136795Y-14073185D01*
X12308224Y-14130328D02*
X12327271Y-14139852D01*
X12365367Y-14139852D01*
X12384414Y-14130328D01*
X12393938Y-14111281D01*
X12393938Y-14101757D01*
X12384414Y-14082709D01*
X12365367Y-14073185D01*
X12336795Y-14073185D01*
X12317748Y-14063662D01*
X12308224Y-14044614D01*
X12308224Y-14035090D01*
X12317748Y-14016043D01*
X12336795Y-14006519D01*
X12365367Y-14006519D01*
X12384414Y-14016043D01*
X12460605Y-14216043D02*
X12470128Y-14206519D01*
X12489176Y-14177947D01*
X12498700Y-14158900D01*
X12508224Y-14130328D01*
X12517748Y-14082709D01*
X12517748Y-14044614D01*
X12508224Y-13996995D01*
X12498700Y-13968424D01*
X12489176Y-13949376D01*
X12470128Y-13920804D01*
X12460605Y-13911281D01*
M02*
