G04 #@! TF.GenerationSoftware,KiCad,Pcbnew,(6.0.10)*
G04 #@! TF.CreationDate,2023-01-07T13:36:28+01:00*
G04 #@! TF.ProjectId,chocofi-bottomplate,63686f63-6f66-4692-9d62-6f74746f6d70,2.1*
G04 #@! TF.SameCoordinates,Original*
G04 #@! TF.FileFunction,Legend,Top*
G04 #@! TF.FilePolarity,Positive*
%FSLAX46Y46*%
G04 Gerber Fmt 4.6, Leading zero omitted, Abs format (unit mm)*
G04 Created by KiCad (PCBNEW (6.0.10)) date 2023-01-07 13:36:28*
%MOMM*%
%LPD*%
G01*
G04 APERTURE LIST*
%ADD10C,0.300000*%
%ADD11C,2.700000*%
G04 APERTURE END LIST*
D10*
X133985714Y-78541904D02*
X135652380Y-83541904D01*
X137319047Y-78541904D01*
X138985714Y-83541904D02*
X138985714Y-78541904D01*
X141366666Y-83541904D02*
X141366666Y-78541904D01*
X143033333Y-82113333D01*
X144700000Y-78541904D01*
X144700000Y-83541904D01*
X119710714Y-98149642D02*
X119567857Y-98221071D01*
X119282142Y-98221071D01*
X119139285Y-98149642D01*
X119067857Y-98078214D01*
X118996428Y-97935357D01*
X118996428Y-97506785D01*
X119067857Y-97363928D01*
X119139285Y-97292500D01*
X119282142Y-97221071D01*
X119567857Y-97221071D01*
X119710714Y-97292500D01*
X120353571Y-98221071D02*
X120353571Y-96721071D01*
X120996428Y-98221071D02*
X120996428Y-97435357D01*
X120925000Y-97292500D01*
X120782142Y-97221071D01*
X120567857Y-97221071D01*
X120425000Y-97292500D01*
X120353571Y-97363928D01*
X121925000Y-98221071D02*
X121782142Y-98149642D01*
X121710714Y-98078214D01*
X121639285Y-97935357D01*
X121639285Y-97506785D01*
X121710714Y-97363928D01*
X121782142Y-97292500D01*
X121925000Y-97221071D01*
X122139285Y-97221071D01*
X122282142Y-97292500D01*
X122353571Y-97363928D01*
X122425000Y-97506785D01*
X122425000Y-97935357D01*
X122353571Y-98078214D01*
X122282142Y-98149642D01*
X122139285Y-98221071D01*
X121925000Y-98221071D01*
X123710714Y-98149642D02*
X123567857Y-98221071D01*
X123282142Y-98221071D01*
X123139285Y-98149642D01*
X123067857Y-98078214D01*
X122996428Y-97935357D01*
X122996428Y-97506785D01*
X123067857Y-97363928D01*
X123139285Y-97292500D01*
X123282142Y-97221071D01*
X123567857Y-97221071D01*
X123710714Y-97292500D01*
X124567857Y-98221071D02*
X124425000Y-98149642D01*
X124353571Y-98078214D01*
X124282142Y-97935357D01*
X124282142Y-97506785D01*
X124353571Y-97363928D01*
X124425000Y-97292500D01*
X124567857Y-97221071D01*
X124782142Y-97221071D01*
X124925000Y-97292500D01*
X124996428Y-97363928D01*
X125067857Y-97506785D01*
X125067857Y-97935357D01*
X124996428Y-98078214D01*
X124925000Y-98149642D01*
X124782142Y-98221071D01*
X124567857Y-98221071D01*
X125496428Y-97221071D02*
X126067857Y-97221071D01*
X125710714Y-98221071D02*
X125710714Y-96935357D01*
X125782142Y-96792500D01*
X125925000Y-96721071D01*
X126067857Y-96721071D01*
X126567857Y-98221071D02*
X126567857Y-97221071D01*
X126567857Y-96721071D02*
X126496428Y-96792500D01*
X126567857Y-96863928D01*
X126639285Y-96792500D01*
X126567857Y-96721071D01*
X126567857Y-96863928D01*
X117567857Y-99921785D02*
X117496428Y-99850357D01*
X117353571Y-99778928D01*
X117210714Y-99778928D01*
X117067857Y-99850357D01*
X116996428Y-99921785D01*
X116925000Y-100064642D01*
X116925000Y-100207500D01*
X116996428Y-100350357D01*
X117067857Y-100421785D01*
X117210714Y-100493214D01*
X117353571Y-100493214D01*
X117496428Y-100421785D01*
X117567857Y-100350357D01*
X117567857Y-99778928D02*
X117567857Y-100350357D01*
X117639285Y-100421785D01*
X117710714Y-100421785D01*
X117853571Y-100350357D01*
X117925000Y-100207500D01*
X117925000Y-99850357D01*
X117782142Y-99636071D01*
X117567857Y-99493214D01*
X117282142Y-99421785D01*
X116996428Y-99493214D01*
X116782142Y-99636071D01*
X116639285Y-99850357D01*
X116567857Y-100136071D01*
X116639285Y-100421785D01*
X116782142Y-100636071D01*
X116996428Y-100778928D01*
X117282142Y-100850357D01*
X117567857Y-100778928D01*
X117782142Y-100636071D01*
X118567857Y-99636071D02*
X118567857Y-101136071D01*
X118567857Y-99707500D02*
X118710714Y-99636071D01*
X118996428Y-99636071D01*
X119139285Y-99707500D01*
X119210714Y-99778928D01*
X119282142Y-99921785D01*
X119282142Y-100350357D01*
X119210714Y-100493214D01*
X119139285Y-100564642D01*
X118996428Y-100636071D01*
X118710714Y-100636071D01*
X118567857Y-100564642D01*
X120567857Y-100636071D02*
X120567857Y-99850357D01*
X120496428Y-99707500D01*
X120353571Y-99636071D01*
X120067857Y-99636071D01*
X119925000Y-99707500D01*
X120567857Y-100564642D02*
X120425000Y-100636071D01*
X120067857Y-100636071D01*
X119925000Y-100564642D01*
X119853571Y-100421785D01*
X119853571Y-100278928D01*
X119925000Y-100136071D01*
X120067857Y-100064642D01*
X120425000Y-100064642D01*
X120567857Y-99993214D01*
X121210714Y-100564642D02*
X121353571Y-100636071D01*
X121639285Y-100636071D01*
X121782142Y-100564642D01*
X121853571Y-100421785D01*
X121853571Y-100350357D01*
X121782142Y-100207500D01*
X121639285Y-100136071D01*
X121425000Y-100136071D01*
X121282142Y-100064642D01*
X121210714Y-99921785D01*
X121210714Y-99850357D01*
X121282142Y-99707500D01*
X121425000Y-99636071D01*
X121639285Y-99636071D01*
X121782142Y-99707500D01*
X122496428Y-100636071D02*
X122496428Y-99136071D01*
X123139285Y-100636071D02*
X123139285Y-99850357D01*
X123067857Y-99707500D01*
X122925000Y-99636071D01*
X122710714Y-99636071D01*
X122567857Y-99707500D01*
X122496428Y-99778928D01*
X124496428Y-99636071D02*
X124496428Y-100636071D01*
X123853571Y-99636071D02*
X123853571Y-100421785D01*
X123925000Y-100564642D01*
X124067857Y-100636071D01*
X124282142Y-100636071D01*
X124425000Y-100564642D01*
X124496428Y-100493214D01*
X124996428Y-99636071D02*
X125567857Y-99636071D01*
X125210714Y-99136071D02*
X125210714Y-100421785D01*
X125282142Y-100564642D01*
X125425000Y-100636071D01*
X125567857Y-100636071D01*
X126067857Y-100636071D02*
X126067857Y-99136071D01*
X126210714Y-100064642D02*
X126639285Y-100636071D01*
X126639285Y-99636071D02*
X126067857Y-100207500D01*
X120577428Y-75438000D02*
X120432285Y-75365428D01*
X120214571Y-75365428D01*
X119996857Y-75438000D01*
X119851714Y-75583142D01*
X119779142Y-75728285D01*
X119706571Y-76018571D01*
X119706571Y-76236285D01*
X119779142Y-76526571D01*
X119851714Y-76671714D01*
X119996857Y-76816857D01*
X120214571Y-76889428D01*
X120359714Y-76889428D01*
X120577428Y-76816857D01*
X120650000Y-76744285D01*
X120650000Y-76236285D01*
X120359714Y-76236285D01*
X121520857Y-75365428D02*
X121520857Y-75728285D01*
X121158000Y-75583142D02*
X121520857Y-75728285D01*
X121883714Y-75583142D01*
X121303142Y-76018571D02*
X121520857Y-75728285D01*
X121738571Y-76018571D01*
X122682000Y-75365428D02*
X122682000Y-75728285D01*
X122319142Y-75583142D02*
X122682000Y-75728285D01*
X123044857Y-75583142D01*
X122464285Y-76018571D02*
X122682000Y-75728285D01*
X122899714Y-76018571D01*
X123843142Y-75365428D02*
X123843142Y-75728285D01*
X123480285Y-75583142D02*
X123843142Y-75728285D01*
X124206000Y-75583142D01*
X123625428Y-76018571D02*
X123843142Y-75728285D01*
X124060857Y-76018571D01*
G36*
X117046645Y-64134310D02*
G01*
X117124907Y-64060788D01*
X117190610Y-64154412D01*
X117214372Y-64190112D01*
X117273011Y-64279086D01*
X117364983Y-64418980D01*
X117488746Y-64607439D01*
X117642755Y-64842107D01*
X117825466Y-65120628D01*
X118035336Y-65440648D01*
X118270821Y-65799811D01*
X118530377Y-66195763D01*
X118812461Y-66626147D01*
X119115528Y-67088609D01*
X119438036Y-67580793D01*
X119778440Y-68100345D01*
X120135196Y-68644908D01*
X120506762Y-69212127D01*
X120891592Y-69799648D01*
X121288144Y-70405115D01*
X121694874Y-71026173D01*
X121969677Y-71445812D01*
X122381633Y-72074883D01*
X122784089Y-72689392D01*
X123175523Y-73287016D01*
X123554412Y-73865434D01*
X123919234Y-74422324D01*
X124268467Y-74955363D01*
X124600589Y-75462229D01*
X124914078Y-75940600D01*
X125207412Y-76388155D01*
X125479068Y-76802571D01*
X125727524Y-77181525D01*
X125951259Y-77522697D01*
X126148750Y-77823763D01*
X126318474Y-78082402D01*
X126458911Y-78296292D01*
X126568538Y-78463110D01*
X126645832Y-78580534D01*
X126689271Y-78646243D01*
X126698705Y-78660210D01*
X126700089Y-78629054D01*
X126701244Y-78534398D01*
X126702173Y-78379233D01*
X126702879Y-78166552D01*
X126703364Y-77899347D01*
X126703630Y-77580609D01*
X126703680Y-77213329D01*
X126703518Y-76800500D01*
X126703144Y-76345113D01*
X126702563Y-75850160D01*
X126701776Y-75318634D01*
X126700787Y-74753524D01*
X126699597Y-74157825D01*
X126698209Y-73534526D01*
X126696626Y-72886620D01*
X126694851Y-72217099D01*
X126692886Y-71528954D01*
X126692391Y-71362697D01*
X126670412Y-64048561D01*
X131882840Y-69271737D01*
X131904954Y-69981805D01*
X131907247Y-70088984D01*
X131909475Y-70258893D01*
X131911624Y-70487774D01*
X131913684Y-70771863D01*
X131915643Y-71107402D01*
X131917488Y-71490629D01*
X131919207Y-71917783D01*
X131920789Y-72385104D01*
X131922222Y-72888830D01*
X131923493Y-73425201D01*
X131924590Y-73990456D01*
X131925502Y-74580834D01*
X131926217Y-75192575D01*
X131926723Y-75821917D01*
X131927007Y-76465100D01*
X131927068Y-76930632D01*
X131927068Y-83169391D01*
X129380806Y-85735481D01*
X129039119Y-86079476D01*
X128710205Y-86409924D01*
X128397124Y-86723787D01*
X128102935Y-87018029D01*
X127830699Y-87289611D01*
X127583476Y-87535497D01*
X127364325Y-87752649D01*
X127176305Y-87938030D01*
X127022477Y-88088602D01*
X126905900Y-88201329D01*
X126829635Y-88273174D01*
X126796741Y-88301098D01*
X126795924Y-88301358D01*
X126770067Y-88274386D01*
X126711927Y-88197375D01*
X126625444Y-88076042D01*
X126514560Y-87916106D01*
X126383216Y-87723286D01*
X126235354Y-87503299D01*
X126074915Y-87261864D01*
X125976701Y-87112811D01*
X125461800Y-86328940D01*
X124942837Y-85538839D01*
X124421511Y-84745099D01*
X123899526Y-83950314D01*
X123378583Y-83157076D01*
X122860383Y-82367975D01*
X122346629Y-81585606D01*
X121839022Y-80812560D01*
X121339263Y-80051429D01*
X120849055Y-79304806D01*
X120370099Y-78575283D01*
X119904097Y-77865452D01*
X119452750Y-77177906D01*
X119017760Y-76515235D01*
X118600830Y-75880034D01*
X118203660Y-75274894D01*
X117827953Y-74702407D01*
X117475409Y-74165166D01*
X117147732Y-73665762D01*
X116846622Y-73206789D01*
X116573781Y-72790838D01*
X116330911Y-72420501D01*
X116119714Y-72098371D01*
X115941891Y-71827040D01*
X115819345Y-71639953D01*
X115583816Y-71280319D01*
X115344820Y-70915510D01*
X115107079Y-70552726D01*
X114875311Y-70199162D01*
X114654238Y-69862017D01*
X114448577Y-69548488D01*
X114263051Y-69265772D01*
X114102377Y-69021067D01*
X113971277Y-68821570D01*
X113923302Y-68748637D01*
X113357103Y-67888241D01*
X113182931Y-68064603D01*
X113008760Y-68240965D01*
X113401424Y-68821072D01*
X113498769Y-68965055D01*
X113627800Y-69156160D01*
X113783089Y-69386340D01*
X113959210Y-69647543D01*
X114150738Y-69931720D01*
X114352245Y-70230822D01*
X114558306Y-70536799D01*
X114763495Y-70841603D01*
X114789761Y-70880629D01*
X115007835Y-71204625D01*
X115238444Y-71547178D01*
X115474334Y-71897518D01*
X115708253Y-72244877D01*
X115932948Y-72578485D01*
X116141166Y-72887573D01*
X116325656Y-73161372D01*
X116457824Y-73357461D01*
X117130214Y-74354843D01*
X117131389Y-81314408D01*
X117132565Y-88273973D01*
X114555994Y-85721038D01*
X111979424Y-83168102D01*
X111979424Y-69243625D01*
X114460106Y-66737937D01*
X114796889Y-66398278D01*
X115120837Y-66072576D01*
X115428862Y-65763879D01*
X115717881Y-65475235D01*
X115984806Y-65209691D01*
X116226552Y-64970297D01*
X116440034Y-64760099D01*
X116622165Y-64582146D01*
X116769860Y-64439485D01*
X116880032Y-64335165D01*
X116949597Y-64272232D01*
X116975321Y-64253591D01*
X116994706Y-64254003D01*
X116989119Y-64241383D01*
X116996367Y-64198171D01*
X117023583Y-64162757D01*
X117074224Y-64162757D01*
X117078772Y-64164922D01*
X117109112Y-64141517D01*
X117115942Y-64131676D01*
X117124414Y-64100594D01*
X117119866Y-64098430D01*
X117089526Y-64121834D01*
X117082696Y-64131676D01*
X117074224Y-64162757D01*
X117023583Y-64162757D01*
X117042075Y-64138695D01*
X117046645Y-64134310D01*
G37*
%LPC*%
D11*
X95000000Y-66802000D03*
X148971000Y-69850000D03*
X123952000Y-104140000D03*
X167005000Y-110363000D03*
X95000000Y-83820000D03*
M02*
