G04 #@! TF.GenerationSoftware,KiCad,Pcbnew,(6.0.10)*
G04 #@! TF.CreationDate,2023-01-07T19:04:59+01:00*
G04 #@! TF.ProjectId,chocofi-bottomplate,63686f63-6f66-4692-9d62-6f74746f6d70,2.1*
G04 #@! TF.SameCoordinates,Original*
G04 #@! TF.FileFunction,Copper,L2,Bot*
G04 #@! TF.FilePolarity,Positive*
%FSLAX46Y46*%
G04 Gerber Fmt 4.6, Leading zero omitted, Abs format (unit mm)*
G04 Created by KiCad (PCBNEW (6.0.10)) date 2023-01-07 19:04:59*
%MOMM*%
%LPD*%
G01*
G04 APERTURE LIST*
G04 #@! TA.AperFunction,ComponentPad*
%ADD10C,2.300000*%
G04 #@! TD*
G04 APERTURE END LIST*
D10*
X148971000Y-69850000D03*
X95000000Y-66802000D03*
X95000000Y-83820000D03*
X123952000Y-104140000D03*
X167005000Y-110363000D03*
G04 #@! TA.AperFunction,NonConductor*
G36*
X130294730Y-44338644D02*
G01*
X130299143Y-44339422D01*
X130299146Y-44339422D01*
X130310000Y-44341336D01*
X130319749Y-44339617D01*
X130336977Y-44340973D01*
X130351936Y-44343342D01*
X130389430Y-44355524D01*
X130409484Y-44365742D01*
X130441376Y-44388914D01*
X130457286Y-44404824D01*
X130480458Y-44436716D01*
X130490676Y-44456770D01*
X130502858Y-44494264D01*
X130505227Y-44509223D01*
X130506583Y-44526451D01*
X130504864Y-44536200D01*
X130506778Y-44547055D01*
X130507586Y-44551637D01*
X130509500Y-44573517D01*
X130509500Y-50016083D01*
X130507586Y-50037963D01*
X130504864Y-50053400D01*
X130506593Y-50063203D01*
X130506779Y-50065091D01*
X130506779Y-50065910D01*
X130507065Y-50067993D01*
X130521083Y-50210325D01*
X130522878Y-50216243D01*
X130522879Y-50216247D01*
X130565059Y-50355297D01*
X130566856Y-50361220D01*
X130569773Y-50366678D01*
X130569775Y-50366682D01*
X130611724Y-50445162D01*
X130641188Y-50500286D01*
X130741222Y-50622178D01*
X130863114Y-50722212D01*
X130868577Y-50725132D01*
X130996718Y-50793625D01*
X130996722Y-50793627D01*
X131002180Y-50796544D01*
X131008100Y-50798340D01*
X131008103Y-50798341D01*
X131147151Y-50840520D01*
X131153075Y-50842317D01*
X131241157Y-50850993D01*
X131247429Y-50852062D01*
X131250346Y-50853228D01*
X131256639Y-50853851D01*
X131259722Y-50853854D01*
X131259723Y-50853854D01*
X131260966Y-50853855D01*
X131264189Y-50853858D01*
X131276412Y-50854465D01*
X131295398Y-50856334D01*
X131297488Y-50856621D01*
X131298309Y-50856621D01*
X131300197Y-50856807D01*
X131310000Y-50858536D01*
X131320854Y-50856622D01*
X131320859Y-50856622D01*
X131325241Y-50855849D01*
X131347237Y-50853934D01*
X142995453Y-50864648D01*
X148255805Y-50869486D01*
X148277569Y-50871400D01*
X148282344Y-50872242D01*
X148282346Y-50872242D01*
X148293200Y-50874156D01*
X148302948Y-50872437D01*
X148320176Y-50873793D01*
X148335133Y-50876162D01*
X148372627Y-50888345D01*
X148392676Y-50898561D01*
X148424566Y-50921732D01*
X148440471Y-50937637D01*
X148463644Y-50969531D01*
X148473858Y-50989578D01*
X148486040Y-51027077D01*
X148488428Y-51042161D01*
X148489776Y-51059300D01*
X148488064Y-51069008D01*
X148489977Y-51079860D01*
X148489977Y-51079861D01*
X148490787Y-51084454D01*
X148492700Y-51106329D01*
X148492700Y-52531711D01*
X148490787Y-52553585D01*
X148488064Y-52569032D01*
X148489748Y-52578578D01*
X148489979Y-52580922D01*
X148489979Y-52581615D01*
X148490220Y-52583367D01*
X148504269Y-52725957D01*
X148506066Y-52731881D01*
X148506067Y-52731885D01*
X148513649Y-52756875D01*
X148550047Y-52876850D01*
X148552964Y-52882307D01*
X148621466Y-53010458D01*
X148621469Y-53010462D01*
X148624383Y-53015914D01*
X148628309Y-53020698D01*
X148628310Y-53020699D01*
X148698108Y-53105743D01*
X148724420Y-53137803D01*
X148846313Y-53237835D01*
X148985380Y-53312165D01*
X149067862Y-53337185D01*
X149130353Y-53356142D01*
X149130357Y-53356143D01*
X149136275Y-53357938D01*
X149142438Y-53358545D01*
X149224617Y-53366639D01*
X149230959Y-53367715D01*
X149234068Y-53368952D01*
X149240362Y-53369564D01*
X149243436Y-53369562D01*
X149243445Y-53369562D01*
X149247970Y-53369558D01*
X149260400Y-53370163D01*
X149278625Y-53371958D01*
X149280700Y-53372243D01*
X149281519Y-53372243D01*
X149283398Y-53372428D01*
X149293200Y-53374156D01*
X149308808Y-53371404D01*
X149330583Y-53369490D01*
X151229578Y-53367930D01*
X166323256Y-53355531D01*
X166345235Y-53357445D01*
X166360499Y-53360136D01*
X166369416Y-53358564D01*
X166386895Y-53360063D01*
X166406014Y-53363368D01*
X166446452Y-53377781D01*
X166467704Y-53389768D01*
X166500957Y-53416921D01*
X166516955Y-53435352D01*
X166539158Y-53472082D01*
X166546217Y-53490145D01*
X166551185Y-53506981D01*
X166551427Y-53516035D01*
X166555397Y-53526096D01*
X166555687Y-53527947D01*
X166556293Y-53529719D01*
X166557473Y-53540469D01*
X166562351Y-53550357D01*
X166562513Y-53550911D01*
X166565744Y-53558204D01*
X166610657Y-53672049D01*
X166612783Y-53677437D01*
X166691137Y-53802522D01*
X166791038Y-53911175D01*
X166795672Y-53914651D01*
X166795675Y-53914653D01*
X166850091Y-53955462D01*
X166909120Y-53999732D01*
X167041401Y-54065210D01*
X167183423Y-54105401D01*
X167228253Y-54109534D01*
X167260937Y-54112547D01*
X167268235Y-54113763D01*
X167271170Y-54114932D01*
X167277463Y-54115546D01*
X167286590Y-54115541D01*
X167287559Y-54115541D01*
X167299182Y-54116073D01*
X167310881Y-54117151D01*
X167319024Y-54118242D01*
X167319544Y-54118242D01*
X167330400Y-54120156D01*
X167341255Y-54118242D01*
X167341260Y-54118242D01*
X167345945Y-54117416D01*
X167367759Y-54115502D01*
X177121055Y-54110685D01*
X187582731Y-54105518D01*
X187604669Y-54107433D01*
X187609145Y-54108222D01*
X187620000Y-54110136D01*
X187629749Y-54108417D01*
X187646977Y-54109773D01*
X187661936Y-54112142D01*
X187699430Y-54124324D01*
X187719484Y-54134542D01*
X187751376Y-54157714D01*
X187767286Y-54173624D01*
X187790458Y-54205516D01*
X187800676Y-54225570D01*
X187812858Y-54263064D01*
X187815227Y-54278023D01*
X187816583Y-54295251D01*
X187814864Y-54305000D01*
X187816778Y-54315854D01*
X187816778Y-54315856D01*
X187817646Y-54320778D01*
X187819561Y-54342454D01*
X187896328Y-101472228D01*
X187913314Y-111900220D01*
X187896539Y-111963241D01*
X187256640Y-113075883D01*
X175555525Y-133421494D01*
X175516954Y-133463003D01*
X175411596Y-133534356D01*
X175394438Y-133544109D01*
X175301102Y-133587873D01*
X175218681Y-133626518D01*
X175200205Y-133633473D01*
X175013731Y-133687419D01*
X174994397Y-133691402D01*
X174881295Y-133705588D01*
X174801789Y-133715560D01*
X174782077Y-133716475D01*
X174588054Y-133710252D01*
X174568438Y-133708076D01*
X174418291Y-133679370D01*
X174378943Y-133664726D01*
X174153180Y-133534356D01*
X160650332Y-125736973D01*
X160637504Y-125728480D01*
X160620496Y-125715661D01*
X160620491Y-125715658D01*
X160613391Y-125710307D01*
X160607482Y-125708056D01*
X160571853Y-125698339D01*
X160563037Y-125695584D01*
X160535490Y-125685853D01*
X160535486Y-125685852D01*
X160524521Y-125681979D01*
X160514636Y-125682263D01*
X160506613Y-125680546D01*
X143257347Y-120976201D01*
X143243687Y-120971622D01*
X143222351Y-120963084D01*
X143222352Y-120963084D01*
X143214095Y-120959780D01*
X143207803Y-120959156D01*
X143191929Y-120959139D01*
X143172464Y-120959118D01*
X143162277Y-120958695D01*
X143123268Y-120955484D01*
X143112893Y-120958537D01*
X143102835Y-120959045D01*
X136881724Y-120952471D01*
X125411803Y-120940351D01*
X125390059Y-120938436D01*
X125385256Y-120937589D01*
X125385255Y-120937589D01*
X125374400Y-120935675D01*
X125363545Y-120937589D01*
X125359348Y-120937589D01*
X125344288Y-120936686D01*
X125332616Y-120935281D01*
X125303356Y-120928131D01*
X125291708Y-120923754D01*
X125234976Y-120881069D01*
X125227592Y-120869974D01*
X120615803Y-113076500D01*
X119070168Y-110464529D01*
X165553074Y-110464529D01*
X165589153Y-110700302D01*
X165663255Y-110927018D01*
X165773390Y-111138586D01*
X165776493Y-111142719D01*
X165776495Y-111142722D01*
X165913497Y-111325190D01*
X165916602Y-111329325D01*
X166089042Y-111494113D01*
X166286082Y-111628525D01*
X166394255Y-111678737D01*
X166497733Y-111726770D01*
X166497736Y-111726771D01*
X166502428Y-111728949D01*
X166732272Y-111792691D01*
X166737409Y-111793240D01*
X166923651Y-111813144D01*
X166923659Y-111813144D01*
X166926986Y-111813500D01*
X167065463Y-111813500D01*
X167068036Y-111813288D01*
X167068047Y-111813288D01*
X167237565Y-111799351D01*
X167237571Y-111799350D01*
X167242716Y-111798927D01*
X167358382Y-111769874D01*
X167469037Y-111742080D01*
X167469041Y-111742079D01*
X167474048Y-111740821D01*
X167478781Y-111738763D01*
X167478784Y-111738762D01*
X167688047Y-111647772D01*
X167688050Y-111647770D01*
X167692784Y-111645712D01*
X167893049Y-111516155D01*
X167914070Y-111497028D01*
X168065642Y-111359107D01*
X168065643Y-111359105D01*
X168069464Y-111355629D01*
X168072663Y-111351578D01*
X168072667Y-111351574D01*
X168214091Y-111172500D01*
X168214093Y-111172496D01*
X168217293Y-111168445D01*
X168332564Y-110959631D01*
X168345855Y-110922100D01*
X168410459Y-110739663D01*
X168410460Y-110739661D01*
X168412183Y-110734794D01*
X168454012Y-110499972D01*
X168456926Y-110261471D01*
X168420847Y-110025698D01*
X168346745Y-109798982D01*
X168236610Y-109587414D01*
X168211147Y-109553500D01*
X168096503Y-109400810D01*
X168096501Y-109400808D01*
X168093398Y-109396675D01*
X167920958Y-109231887D01*
X167723918Y-109097475D01*
X167615745Y-109047263D01*
X167512267Y-108999230D01*
X167512264Y-108999229D01*
X167507572Y-108997051D01*
X167277728Y-108933309D01*
X167272591Y-108932760D01*
X167086349Y-108912856D01*
X167086341Y-108912856D01*
X167083014Y-108912500D01*
X166944537Y-108912500D01*
X166941964Y-108912712D01*
X166941953Y-108912712D01*
X166772435Y-108926649D01*
X166772429Y-108926650D01*
X166767284Y-108927073D01*
X166651618Y-108956126D01*
X166540963Y-108983920D01*
X166540959Y-108983921D01*
X166535952Y-108985179D01*
X166531219Y-108987237D01*
X166531216Y-108987238D01*
X166321953Y-109078228D01*
X166321950Y-109078230D01*
X166317216Y-109080288D01*
X166116951Y-109209845D01*
X166113128Y-109213324D01*
X166113125Y-109213326D01*
X165944358Y-109366893D01*
X165940536Y-109370371D01*
X165937337Y-109374422D01*
X165937333Y-109374426D01*
X165795909Y-109553500D01*
X165792707Y-109557555D01*
X165677436Y-109766369D01*
X165675712Y-109771238D01*
X165675710Y-109771242D01*
X165599541Y-109986337D01*
X165597817Y-109991206D01*
X165555988Y-110226028D01*
X165553074Y-110464529D01*
X119070168Y-110464529D01*
X116141734Y-105515762D01*
X115387707Y-104241529D01*
X122500074Y-104241529D01*
X122536153Y-104477302D01*
X122610255Y-104704018D01*
X122720390Y-104915586D01*
X122723493Y-104919719D01*
X122723495Y-104919722D01*
X122860497Y-105102190D01*
X122863602Y-105106325D01*
X123036042Y-105271113D01*
X123233082Y-105405525D01*
X123341255Y-105455737D01*
X123444733Y-105503770D01*
X123444736Y-105503771D01*
X123449428Y-105505949D01*
X123679272Y-105569691D01*
X123684409Y-105570240D01*
X123870651Y-105590144D01*
X123870659Y-105590144D01*
X123873986Y-105590500D01*
X124012463Y-105590500D01*
X124015036Y-105590288D01*
X124015047Y-105590288D01*
X124184565Y-105576351D01*
X124184571Y-105576350D01*
X124189716Y-105575927D01*
X124305382Y-105546874D01*
X124416037Y-105519080D01*
X124416041Y-105519079D01*
X124421048Y-105517821D01*
X124425781Y-105515763D01*
X124425784Y-105515762D01*
X124635047Y-105424772D01*
X124635050Y-105424770D01*
X124639784Y-105422712D01*
X124840049Y-105293155D01*
X124861070Y-105274028D01*
X125012642Y-105136107D01*
X125012643Y-105136105D01*
X125016464Y-105132629D01*
X125019663Y-105128578D01*
X125019667Y-105128574D01*
X125161091Y-104949500D01*
X125161093Y-104949496D01*
X125164293Y-104945445D01*
X125279564Y-104736631D01*
X125292855Y-104699100D01*
X125357459Y-104516663D01*
X125357460Y-104516661D01*
X125359183Y-104511794D01*
X125401012Y-104276972D01*
X125403926Y-104038471D01*
X125367847Y-103802698D01*
X125293745Y-103575982D01*
X125183610Y-103364414D01*
X125158147Y-103330500D01*
X125043503Y-103177810D01*
X125043501Y-103177808D01*
X125040398Y-103173675D01*
X124867958Y-103008887D01*
X124670918Y-102874475D01*
X124562745Y-102824263D01*
X124459267Y-102776230D01*
X124459264Y-102776229D01*
X124454572Y-102774051D01*
X124224728Y-102710309D01*
X124219591Y-102709760D01*
X124033349Y-102689856D01*
X124033341Y-102689856D01*
X124030014Y-102689500D01*
X123891537Y-102689500D01*
X123888964Y-102689712D01*
X123888953Y-102689712D01*
X123719435Y-102703649D01*
X123719429Y-102703650D01*
X123714284Y-102704073D01*
X123598618Y-102733126D01*
X123487963Y-102760920D01*
X123487959Y-102760921D01*
X123482952Y-102762179D01*
X123478219Y-102764237D01*
X123478216Y-102764238D01*
X123268953Y-102855228D01*
X123268950Y-102855230D01*
X123264216Y-102857288D01*
X123063951Y-102986845D01*
X123060128Y-102990324D01*
X123060125Y-102990326D01*
X122891358Y-103143893D01*
X122887536Y-103147371D01*
X122884337Y-103151422D01*
X122884333Y-103151426D01*
X122742909Y-103330500D01*
X122739707Y-103334555D01*
X122624436Y-103543369D01*
X122622712Y-103548238D01*
X122622710Y-103548242D01*
X122546541Y-103763337D01*
X122544817Y-103768206D01*
X122502988Y-104003028D01*
X122500074Y-104241529D01*
X115387707Y-104241529D01*
X113578078Y-101183433D01*
X113574878Y-101177293D01*
X113572643Y-101168617D01*
X113566412Y-101159531D01*
X113565622Y-101157793D01*
X113563233Y-101153938D01*
X113491404Y-101025029D01*
X113488899Y-101020533D01*
X113383072Y-100887450D01*
X113256999Y-100773362D01*
X113114041Y-100681310D01*
X112958009Y-100613747D01*
X112811791Y-100577162D01*
X112798059Y-100573726D01*
X112798058Y-100573726D01*
X112793063Y-100572476D01*
X112787931Y-100572056D01*
X112787927Y-100572055D01*
X112748254Y-100568806D01*
X112689158Y-100563965D01*
X112683809Y-100563101D01*
X112682978Y-100562769D01*
X112676685Y-100562152D01*
X112672172Y-100562152D01*
X112661888Y-100561731D01*
X112640865Y-100560009D01*
X112636369Y-100559430D01*
X112634455Y-100559430D01*
X112623600Y-100557516D01*
X112612745Y-100559430D01*
X112608163Y-100560238D01*
X112586283Y-100562152D01*
X95490517Y-100562152D01*
X95468637Y-100560238D01*
X95467338Y-100560009D01*
X95453200Y-100557516D01*
X95449603Y-100558150D01*
X95437141Y-100559377D01*
X95437140Y-100559377D01*
X95362443Y-100566734D01*
X95274798Y-100575366D01*
X95164693Y-100608764D01*
X95141526Y-100615792D01*
X95103251Y-100627402D01*
X94945151Y-100711903D01*
X94806573Y-100825623D01*
X94692843Y-100964191D01*
X94689929Y-100969642D01*
X94689927Y-100969645D01*
X94660320Y-101025029D01*
X94608329Y-101122285D01*
X94556280Y-101293827D01*
X94546161Y-101396502D01*
X94545203Y-101406218D01*
X94544551Y-101409988D01*
X94544047Y-101411232D01*
X94543395Y-101417522D01*
X94543378Y-101420602D01*
X94543210Y-101423683D01*
X94543150Y-101423680D01*
X94542782Y-101430776D01*
X94538990Y-101469248D01*
X94538464Y-101472228D01*
X94540984Y-101486522D01*
X94542894Y-101509077D01*
X94508808Y-107730238D01*
X94492618Y-110685064D01*
X94492520Y-110688677D01*
X94492300Y-110690915D01*
X94492300Y-110742781D01*
X94492298Y-110743471D01*
X94492151Y-110770301D01*
X94492290Y-110771070D01*
X94492300Y-110771304D01*
X94492300Y-112078283D01*
X94490386Y-112100163D01*
X94487664Y-112115600D01*
X94489578Y-112126456D01*
X94489578Y-112128018D01*
X94488500Y-112144464D01*
X94482202Y-112192302D01*
X94473689Y-112224075D01*
X94450431Y-112280224D01*
X94433984Y-112308709D01*
X94396985Y-112356927D01*
X94373727Y-112380185D01*
X94325509Y-112417184D01*
X94297024Y-112433631D01*
X94268950Y-112445260D01*
X94240874Y-112456889D01*
X94209102Y-112465402D01*
X94183898Y-112468720D01*
X94161262Y-112471700D01*
X94144818Y-112472778D01*
X94143256Y-112472778D01*
X94132400Y-112470864D01*
X94117349Y-112473518D01*
X94116963Y-112473586D01*
X94095083Y-112475500D01*
X77710517Y-112475500D01*
X77688637Y-112473586D01*
X77688252Y-112473518D01*
X77673200Y-112470864D01*
X77662344Y-112472778D01*
X77660782Y-112472778D01*
X77644338Y-112471700D01*
X77621702Y-112468720D01*
X77596498Y-112465402D01*
X77564726Y-112456889D01*
X77536650Y-112445260D01*
X77508576Y-112433631D01*
X77480091Y-112417184D01*
X77431873Y-112380185D01*
X77408615Y-112356927D01*
X77371616Y-112308709D01*
X77355169Y-112280224D01*
X77331911Y-112224075D01*
X77323398Y-112192302D01*
X77317100Y-112144464D01*
X77316022Y-112128018D01*
X77316022Y-112126456D01*
X77317936Y-112115600D01*
X77315214Y-112100163D01*
X77313300Y-112078283D01*
X77313300Y-83921529D01*
X93548074Y-83921529D01*
X93584153Y-84157302D01*
X93658255Y-84384018D01*
X93768390Y-84595586D01*
X93771493Y-84599719D01*
X93771495Y-84599722D01*
X93908497Y-84782190D01*
X93911602Y-84786325D01*
X94084042Y-84951113D01*
X94281082Y-85085525D01*
X94389255Y-85135737D01*
X94492733Y-85183770D01*
X94492736Y-85183771D01*
X94497428Y-85185949D01*
X94727272Y-85249691D01*
X94732409Y-85250240D01*
X94918651Y-85270144D01*
X94918659Y-85270144D01*
X94921986Y-85270500D01*
X95060463Y-85270500D01*
X95063036Y-85270288D01*
X95063047Y-85270288D01*
X95232565Y-85256351D01*
X95232571Y-85256350D01*
X95237716Y-85255927D01*
X95353382Y-85226874D01*
X95464037Y-85199080D01*
X95464041Y-85199079D01*
X95469048Y-85197821D01*
X95473781Y-85195763D01*
X95473784Y-85195762D01*
X95683047Y-85104772D01*
X95683050Y-85104770D01*
X95687784Y-85102712D01*
X95888049Y-84973155D01*
X95909070Y-84954028D01*
X96060642Y-84816107D01*
X96060643Y-84816105D01*
X96064464Y-84812629D01*
X96067663Y-84808578D01*
X96067667Y-84808574D01*
X96209091Y-84629500D01*
X96209093Y-84629496D01*
X96212293Y-84625445D01*
X96327564Y-84416631D01*
X96340855Y-84379100D01*
X96405459Y-84196663D01*
X96405460Y-84196661D01*
X96407183Y-84191794D01*
X96449012Y-83956972D01*
X96451926Y-83718471D01*
X96415847Y-83482698D01*
X96341745Y-83255982D01*
X96231610Y-83044414D01*
X96206147Y-83010500D01*
X96091503Y-82857810D01*
X96091501Y-82857808D01*
X96088398Y-82853675D01*
X95915958Y-82688887D01*
X95718918Y-82554475D01*
X95610745Y-82504263D01*
X95507267Y-82456230D01*
X95507264Y-82456229D01*
X95502572Y-82454051D01*
X95272728Y-82390309D01*
X95267591Y-82389760D01*
X95081349Y-82369856D01*
X95081341Y-82369856D01*
X95078014Y-82369500D01*
X94939537Y-82369500D01*
X94936964Y-82369712D01*
X94936953Y-82369712D01*
X94767435Y-82383649D01*
X94767429Y-82383650D01*
X94762284Y-82384073D01*
X94646618Y-82413126D01*
X94535963Y-82440920D01*
X94535959Y-82440921D01*
X94530952Y-82442179D01*
X94526219Y-82444237D01*
X94526216Y-82444238D01*
X94316953Y-82535228D01*
X94316950Y-82535230D01*
X94312216Y-82537288D01*
X94111951Y-82666845D01*
X94108128Y-82670324D01*
X94108125Y-82670326D01*
X93939358Y-82823893D01*
X93935536Y-82827371D01*
X93932337Y-82831422D01*
X93932333Y-82831426D01*
X93790909Y-83010500D01*
X93787707Y-83014555D01*
X93672436Y-83223369D01*
X93670712Y-83228238D01*
X93670710Y-83228242D01*
X93594541Y-83443337D01*
X93592817Y-83448206D01*
X93550988Y-83683028D01*
X93548074Y-83921529D01*
X77313300Y-83921529D01*
X77313300Y-76763669D01*
X77313350Y-76761466D01*
X77313487Y-76760015D01*
X77313300Y-76707468D01*
X77313300Y-76680052D01*
X77313208Y-76679556D01*
X77313201Y-76679408D01*
X77289258Y-69951529D01*
X147519074Y-69951529D01*
X147555153Y-70187302D01*
X147629255Y-70414018D01*
X147739390Y-70625586D01*
X147742493Y-70629719D01*
X147742495Y-70629722D01*
X147879497Y-70812190D01*
X147882602Y-70816325D01*
X148055042Y-70981113D01*
X148252082Y-71115525D01*
X148360255Y-71165737D01*
X148463733Y-71213770D01*
X148463736Y-71213771D01*
X148468428Y-71215949D01*
X148698272Y-71279691D01*
X148703409Y-71280240D01*
X148889651Y-71300144D01*
X148889659Y-71300144D01*
X148892986Y-71300500D01*
X149031463Y-71300500D01*
X149034036Y-71300288D01*
X149034047Y-71300288D01*
X149203565Y-71286351D01*
X149203571Y-71286350D01*
X149208716Y-71285927D01*
X149324382Y-71256874D01*
X149435037Y-71229080D01*
X149435041Y-71229079D01*
X149440048Y-71227821D01*
X149444781Y-71225763D01*
X149444784Y-71225762D01*
X149654047Y-71134772D01*
X149654050Y-71134770D01*
X149658784Y-71132712D01*
X149859049Y-71003155D01*
X149880070Y-70984028D01*
X150031642Y-70846107D01*
X150031643Y-70846105D01*
X150035464Y-70842629D01*
X150038663Y-70838578D01*
X150038667Y-70838574D01*
X150180091Y-70659500D01*
X150180093Y-70659496D01*
X150183293Y-70655445D01*
X150298564Y-70446631D01*
X150311855Y-70409100D01*
X150376459Y-70226663D01*
X150376460Y-70226661D01*
X150378183Y-70221794D01*
X150420012Y-69986972D01*
X150422926Y-69748471D01*
X150386847Y-69512698D01*
X150312745Y-69285982D01*
X150202610Y-69074414D01*
X150177147Y-69040500D01*
X150062503Y-68887810D01*
X150062501Y-68887808D01*
X150059398Y-68883675D01*
X149886958Y-68718887D01*
X149689918Y-68584475D01*
X149581745Y-68534263D01*
X149478267Y-68486230D01*
X149478264Y-68486229D01*
X149473572Y-68484051D01*
X149243728Y-68420309D01*
X149238591Y-68419760D01*
X149052349Y-68399856D01*
X149052341Y-68399856D01*
X149049014Y-68399500D01*
X148910537Y-68399500D01*
X148907964Y-68399712D01*
X148907953Y-68399712D01*
X148738435Y-68413649D01*
X148738429Y-68413650D01*
X148733284Y-68414073D01*
X148617618Y-68443126D01*
X148506963Y-68470920D01*
X148506959Y-68470921D01*
X148501952Y-68472179D01*
X148497219Y-68474237D01*
X148497216Y-68474238D01*
X148287953Y-68565228D01*
X148287950Y-68565230D01*
X148283216Y-68567288D01*
X148082951Y-68696845D01*
X148079128Y-68700324D01*
X148079125Y-68700326D01*
X147910358Y-68853893D01*
X147906536Y-68857371D01*
X147903337Y-68861422D01*
X147903333Y-68861426D01*
X147761909Y-69040500D01*
X147758707Y-69044555D01*
X147643436Y-69253369D01*
X147641712Y-69258238D01*
X147641710Y-69258242D01*
X147565541Y-69473337D01*
X147563817Y-69478206D01*
X147521988Y-69713028D01*
X147519074Y-69951529D01*
X77289258Y-69951529D01*
X77278411Y-66903529D01*
X93548074Y-66903529D01*
X93584153Y-67139302D01*
X93658255Y-67366018D01*
X93768390Y-67577586D01*
X93771493Y-67581719D01*
X93771495Y-67581722D01*
X93908497Y-67764190D01*
X93911602Y-67768325D01*
X94084042Y-67933113D01*
X94281082Y-68067525D01*
X94389255Y-68117737D01*
X94492733Y-68165770D01*
X94492736Y-68165771D01*
X94497428Y-68167949D01*
X94727272Y-68231691D01*
X94732409Y-68232240D01*
X94918651Y-68252144D01*
X94918659Y-68252144D01*
X94921986Y-68252500D01*
X95060463Y-68252500D01*
X95063036Y-68252288D01*
X95063047Y-68252288D01*
X95232565Y-68238351D01*
X95232571Y-68238350D01*
X95237716Y-68237927D01*
X95353382Y-68208874D01*
X95464037Y-68181080D01*
X95464041Y-68181079D01*
X95469048Y-68179821D01*
X95473781Y-68177763D01*
X95473784Y-68177762D01*
X95683047Y-68086772D01*
X95683050Y-68086770D01*
X95687784Y-68084712D01*
X95888049Y-67955155D01*
X95909070Y-67936028D01*
X96060642Y-67798107D01*
X96060643Y-67798105D01*
X96064464Y-67794629D01*
X96067663Y-67790578D01*
X96067667Y-67790574D01*
X96209091Y-67611500D01*
X96209093Y-67611496D01*
X96212293Y-67607445D01*
X96327564Y-67398631D01*
X96340855Y-67361100D01*
X96405459Y-67178663D01*
X96405460Y-67178661D01*
X96407183Y-67173794D01*
X96449012Y-66938972D01*
X96451926Y-66700471D01*
X96415847Y-66464698D01*
X96341745Y-66237982D01*
X96231610Y-66026414D01*
X96206147Y-65992500D01*
X96091503Y-65839810D01*
X96091501Y-65839808D01*
X96088398Y-65835675D01*
X95915958Y-65670887D01*
X95718918Y-65536475D01*
X95610745Y-65486263D01*
X95507267Y-65438230D01*
X95507264Y-65438229D01*
X95502572Y-65436051D01*
X95272728Y-65372309D01*
X95267591Y-65371760D01*
X95081349Y-65351856D01*
X95081341Y-65351856D01*
X95078014Y-65351500D01*
X94939537Y-65351500D01*
X94936964Y-65351712D01*
X94936953Y-65351712D01*
X94767435Y-65365649D01*
X94767429Y-65365650D01*
X94762284Y-65366073D01*
X94646618Y-65395126D01*
X94535963Y-65422920D01*
X94535959Y-65422921D01*
X94530952Y-65424179D01*
X94526219Y-65426237D01*
X94526216Y-65426238D01*
X94316953Y-65517228D01*
X94316950Y-65517230D01*
X94312216Y-65519288D01*
X94111951Y-65648845D01*
X94108128Y-65652324D01*
X94108125Y-65652326D01*
X93939358Y-65805893D01*
X93935536Y-65809371D01*
X93932337Y-65813422D01*
X93932333Y-65813426D01*
X93790909Y-65992500D01*
X93787707Y-65996555D01*
X93672436Y-66205369D01*
X93670712Y-66210238D01*
X93670710Y-66210242D01*
X93594541Y-66425337D01*
X93592817Y-66430206D01*
X93550988Y-66665028D01*
X93548074Y-66903529D01*
X77278411Y-66903529D01*
X77262634Y-62470211D01*
X77264547Y-62447883D01*
X77264554Y-62447843D01*
X77267136Y-62433200D01*
X77265828Y-62425778D01*
X77267642Y-62407352D01*
X77268127Y-62404913D01*
X77269537Y-62397823D01*
X77288349Y-62352399D01*
X77294471Y-62343237D01*
X77329237Y-62308471D01*
X77338400Y-62302349D01*
X77383823Y-62283537D01*
X77390913Y-62282127D01*
X77393352Y-62281642D01*
X77411778Y-62279828D01*
X77419200Y-62281136D01*
X77434076Y-62278513D01*
X77456286Y-62276598D01*
X84965876Y-62296298D01*
X94477930Y-62321250D01*
X94499461Y-62323161D01*
X94515476Y-62325983D01*
X94525264Y-62324256D01*
X94527180Y-62324067D01*
X94527990Y-62324067D01*
X94530052Y-62323784D01*
X94536372Y-62323161D01*
X94672390Y-62309753D01*
X94823274Y-62263974D01*
X94828731Y-62261057D01*
X94956868Y-62192560D01*
X94956870Y-62192559D01*
X94962328Y-62189641D01*
X95084212Y-62089612D01*
X95184241Y-61967728D01*
X95258574Y-61828674D01*
X95304353Y-61677790D01*
X95313049Y-61589579D01*
X95314121Y-61583278D01*
X95315321Y-61580271D01*
X95315939Y-61573978D01*
X95315940Y-61566418D01*
X95316548Y-61554076D01*
X95318384Y-61535452D01*
X95318667Y-61533390D01*
X95318667Y-61532580D01*
X95318856Y-61530664D01*
X95320583Y-61520876D01*
X95318670Y-61510021D01*
X95318670Y-61510015D01*
X95317865Y-61505448D01*
X95315953Y-61483564D01*
X95317044Y-54297732D01*
X95317614Y-50544138D01*
X95319528Y-50522284D01*
X95320342Y-50517666D01*
X95322256Y-50506808D01*
X95320537Y-50497060D01*
X95321892Y-50479828D01*
X95324261Y-50464870D01*
X95336441Y-50427381D01*
X95346657Y-50407330D01*
X95369829Y-50375437D01*
X95385737Y-50359529D01*
X95417630Y-50336357D01*
X95437683Y-50326140D01*
X95475170Y-50313961D01*
X95490131Y-50311592D01*
X95507360Y-50310237D01*
X95517108Y-50311956D01*
X95532555Y-50309233D01*
X95554429Y-50307320D01*
X112509811Y-50307320D01*
X112531685Y-50309233D01*
X112547132Y-50311956D01*
X112556934Y-50310227D01*
X112558821Y-50310041D01*
X112559640Y-50310041D01*
X112561712Y-50309756D01*
X112704053Y-50295732D01*
X112740660Y-50284627D01*
X112849021Y-50251753D01*
X112849025Y-50251751D01*
X112854943Y-50249956D01*
X112860398Y-50247040D01*
X112860403Y-50247038D01*
X112988540Y-50178544D01*
X112994003Y-50175624D01*
X113115892Y-50075592D01*
X113215924Y-49953703D01*
X113277771Y-49838000D01*
X113287338Y-49820103D01*
X113287340Y-49820098D01*
X113290256Y-49814643D01*
X113336032Y-49663753D01*
X113344774Y-49575016D01*
X113345859Y-49568571D01*
X113347206Y-49565162D01*
X113347802Y-49558867D01*
X113347775Y-49551202D01*
X113348382Y-49538404D01*
X113350057Y-49521412D01*
X113350341Y-49519345D01*
X113350341Y-49518521D01*
X113350527Y-49516634D01*
X113352256Y-49506832D01*
X113350342Y-49495972D01*
X113349405Y-49490655D01*
X113347493Y-49469218D01*
X113330630Y-44586596D01*
X113332545Y-44564271D01*
X113333221Y-44560438D01*
X113333221Y-44560436D01*
X113335136Y-44549582D01*
X113333418Y-44539834D01*
X113334776Y-44522602D01*
X113337146Y-44507646D01*
X113349330Y-44470158D01*
X113359548Y-44450107D01*
X113382718Y-44418220D01*
X113398635Y-44402304D01*
X113430521Y-44379139D01*
X113450574Y-44368922D01*
X113488057Y-44356743D01*
X113501022Y-44354689D01*
X113503315Y-44354326D01*
X113520342Y-44352986D01*
X113530000Y-44354689D01*
X113540855Y-44352775D01*
X113540859Y-44352775D01*
X113545603Y-44351938D01*
X113567382Y-44350023D01*
X123427034Y-44342177D01*
X130272752Y-44336730D01*
X130294730Y-44338644D01*
G37*
G04 #@! TD.AperFunction*
G04 #@! TA.AperFunction,NonConductor*
G36*
X130243536Y-44564756D02*
G01*
X130290072Y-44618375D01*
X130301500Y-44670808D01*
X130301500Y-50004033D01*
X130300000Y-50023418D01*
X130297690Y-50038251D01*
X130297690Y-50038255D01*
X130296309Y-50047124D01*
X130298030Y-50060282D01*
X130298345Y-50062690D01*
X130298929Y-50068044D01*
X130304809Y-50135250D01*
X130313028Y-50229193D01*
X130314452Y-50234507D01*
X130314452Y-50234508D01*
X130355006Y-50385857D01*
X130358700Y-50399645D01*
X130361022Y-50404626D01*
X130361023Y-50404627D01*
X130430951Y-50554589D01*
X130430954Y-50554594D01*
X130433277Y-50559576D01*
X130534493Y-50704127D01*
X130659273Y-50828907D01*
X130663781Y-50832064D01*
X130663784Y-50832066D01*
X130723126Y-50873617D01*
X130803824Y-50930123D01*
X130808806Y-50932446D01*
X130808811Y-50932449D01*
X130958773Y-51002377D01*
X130963755Y-51004700D01*
X130969063Y-51006122D01*
X130969065Y-51006123D01*
X131128892Y-51048948D01*
X131128893Y-51048948D01*
X131134207Y-51050372D01*
X131263712Y-51061702D01*
X131273626Y-51062968D01*
X131284556Y-51064807D01*
X131292656Y-51066170D01*
X131292658Y-51066170D01*
X131297448Y-51066976D01*
X131303724Y-51067053D01*
X131305140Y-51067070D01*
X131305143Y-51067070D01*
X131310000Y-51067129D01*
X131337340Y-51063214D01*
X131355309Y-51061941D01*
X148158816Y-51077396D01*
X148226918Y-51097461D01*
X148273362Y-51151159D01*
X148284700Y-51203396D01*
X148284700Y-52515785D01*
X148282954Y-52536685D01*
X148279623Y-52556489D01*
X148279471Y-52569041D01*
X148280161Y-52573857D01*
X148282468Y-52589967D01*
X148283261Y-52596844D01*
X148296214Y-52744832D01*
X148341892Y-52915281D01*
X148416474Y-53075209D01*
X148517693Y-53219757D01*
X148642474Y-53344534D01*
X148787026Y-53445747D01*
X148792014Y-53448073D01*
X148792016Y-53448074D01*
X148941970Y-53517997D01*
X148941974Y-53517998D01*
X148946957Y-53520322D01*
X148952266Y-53521744D01*
X148952270Y-53521746D01*
X149039577Y-53545139D01*
X149117408Y-53565993D01*
X149122885Y-53566472D01*
X149122890Y-53566473D01*
X149246918Y-53577323D01*
X149256829Y-53578588D01*
X149280648Y-53582596D01*
X149287032Y-53582674D01*
X149288335Y-53582690D01*
X149288339Y-53582690D01*
X149293200Y-53582749D01*
X149298018Y-53582059D01*
X149298019Y-53582059D01*
X149321094Y-53578755D01*
X149338850Y-53577483D01*
X156167344Y-53571874D01*
X166258412Y-53563584D01*
X166326548Y-53583530D01*
X166375722Y-53643345D01*
X166387779Y-53673909D01*
X166389705Y-53679127D01*
X166393213Y-53689323D01*
X166391751Y-53689826D01*
X166392232Y-53692356D01*
X166394677Y-53691392D01*
X166424196Y-53766220D01*
X166424199Y-53766226D01*
X166426323Y-53771610D01*
X166525036Y-53929196D01*
X166650895Y-54066079D01*
X166799658Y-54177647D01*
X166966310Y-54260138D01*
X167145234Y-54310771D01*
X167150997Y-54311302D01*
X167151001Y-54311303D01*
X167260490Y-54321396D01*
X167288012Y-54323933D01*
X167297341Y-54325146D01*
X167317848Y-54328596D01*
X167324124Y-54328672D01*
X167325541Y-54328690D01*
X167325544Y-54328690D01*
X167330400Y-54328749D01*
X167358183Y-54324770D01*
X167375980Y-54323498D01*
X187485656Y-54313567D01*
X187553786Y-54333535D01*
X187600306Y-54387168D01*
X187611718Y-54439361D01*
X187688278Y-101441036D01*
X187705224Y-111844831D01*
X187688449Y-111907852D01*
X186893796Y-113289576D01*
X175398421Y-133277451D01*
X175359851Y-133318959D01*
X175308813Y-133353525D01*
X175291655Y-133363279D01*
X175145399Y-133431855D01*
X175126933Y-133438806D01*
X174971753Y-133483700D01*
X174952426Y-133487681D01*
X174792151Y-133507784D01*
X174772440Y-133508699D01*
X174610988Y-133503520D01*
X174591372Y-133501344D01*
X174493556Y-133482643D01*
X174454208Y-133467999D01*
X174391614Y-133431853D01*
X160781686Y-125572635D01*
X160763025Y-125559469D01*
X160758205Y-125555366D01*
X160758204Y-125555365D01*
X160751372Y-125549550D01*
X160714375Y-125532996D01*
X160706240Y-125528841D01*
X160703753Y-125527632D01*
X160699867Y-125525388D01*
X160678073Y-125516647D01*
X160673535Y-125514723D01*
X160649214Y-125503841D01*
X160644514Y-125502559D01*
X160639934Y-125500921D01*
X160639944Y-125500892D01*
X160632887Y-125498524D01*
X160598912Y-125484897D01*
X160579776Y-125483036D01*
X160558820Y-125479188D01*
X146018159Y-121513553D01*
X143341733Y-120783619D01*
X143321221Y-120776059D01*
X143305119Y-120768478D01*
X143267555Y-120762588D01*
X143261714Y-120761337D01*
X143261690Y-120761459D01*
X143257302Y-120760592D01*
X143252969Y-120759410D01*
X143248512Y-120758854D01*
X143248510Y-120758854D01*
X143227227Y-120756201D01*
X143223295Y-120755648D01*
X143199371Y-120751897D01*
X143199363Y-120751896D01*
X143194551Y-120751142D01*
X143189678Y-120751137D01*
X143184829Y-120750757D01*
X143184846Y-120750545D01*
X143178872Y-120750174D01*
X143145032Y-120745956D01*
X143136174Y-120747390D01*
X143136168Y-120747390D01*
X143123592Y-120749426D01*
X143103327Y-120751045D01*
X131874666Y-120739180D01*
X125459588Y-120732401D01*
X125391488Y-120712327D01*
X125351284Y-120670568D01*
X120982509Y-113287765D01*
X119251778Y-110363000D01*
X165341372Y-110363000D01*
X165361854Y-110623249D01*
X165363008Y-110628056D01*
X165363009Y-110628062D01*
X165380804Y-110702182D01*
X165422796Y-110877089D01*
X165522697Y-111118271D01*
X165659097Y-111340856D01*
X165828637Y-111539363D01*
X166027144Y-111708903D01*
X166249729Y-111845303D01*
X166254299Y-111847196D01*
X166254303Y-111847198D01*
X166486338Y-111943310D01*
X166490911Y-111945204D01*
X166573787Y-111965101D01*
X166739938Y-112004991D01*
X166739944Y-112004992D01*
X166744751Y-112006146D01*
X167005000Y-112026628D01*
X167265249Y-112006146D01*
X167270056Y-112004992D01*
X167270062Y-112004991D01*
X167436213Y-111965101D01*
X167519089Y-111945204D01*
X167523662Y-111943310D01*
X167755697Y-111847198D01*
X167755701Y-111847196D01*
X167760271Y-111845303D01*
X167982856Y-111708903D01*
X168181363Y-111539363D01*
X168350903Y-111340856D01*
X168487303Y-111118271D01*
X168587204Y-110877089D01*
X168629196Y-110702182D01*
X168646991Y-110628062D01*
X168646992Y-110628056D01*
X168648146Y-110623249D01*
X168668628Y-110363000D01*
X168648146Y-110102751D01*
X168646992Y-110097944D01*
X168646991Y-110097938D01*
X168588359Y-109853723D01*
X168587204Y-109848911D01*
X168487303Y-109607729D01*
X168350903Y-109385144D01*
X168181363Y-109186637D01*
X167982856Y-109017097D01*
X167760271Y-108880697D01*
X167755701Y-108878804D01*
X167755697Y-108878802D01*
X167523662Y-108782690D01*
X167523660Y-108782689D01*
X167519089Y-108780796D01*
X167430069Y-108759424D01*
X167270062Y-108721009D01*
X167270056Y-108721008D01*
X167265249Y-108719854D01*
X167005000Y-108699372D01*
X166744751Y-108719854D01*
X166739944Y-108721008D01*
X166739938Y-108721009D01*
X166579931Y-108759424D01*
X166490911Y-108780796D01*
X166486340Y-108782689D01*
X166486338Y-108782690D01*
X166254303Y-108878802D01*
X166254299Y-108878804D01*
X166249729Y-108880697D01*
X166027144Y-109017097D01*
X165828637Y-109186637D01*
X165659097Y-109385144D01*
X165522697Y-109607729D01*
X165422796Y-109848911D01*
X165421641Y-109853723D01*
X165363009Y-110097938D01*
X165363008Y-110097944D01*
X165361854Y-110102751D01*
X165341372Y-110363000D01*
X119251778Y-110363000D01*
X115569316Y-104140000D01*
X122288372Y-104140000D01*
X122308854Y-104400249D01*
X122310008Y-104405056D01*
X122310009Y-104405062D01*
X122348424Y-104565069D01*
X122369796Y-104654089D01*
X122469697Y-104895271D01*
X122606097Y-105117856D01*
X122775637Y-105316363D01*
X122974144Y-105485903D01*
X123196729Y-105622303D01*
X123201299Y-105624196D01*
X123201303Y-105624198D01*
X123433338Y-105720310D01*
X123437911Y-105722204D01*
X123526931Y-105743576D01*
X123686938Y-105781991D01*
X123686944Y-105781992D01*
X123691751Y-105783146D01*
X123952000Y-105803628D01*
X124212249Y-105783146D01*
X124217056Y-105781992D01*
X124217062Y-105781991D01*
X124377069Y-105743576D01*
X124466089Y-105722204D01*
X124470662Y-105720310D01*
X124702697Y-105624198D01*
X124702701Y-105624196D01*
X124707271Y-105622303D01*
X124929856Y-105485903D01*
X125128363Y-105316363D01*
X125297903Y-105117856D01*
X125434303Y-104895271D01*
X125534204Y-104654089D01*
X125555576Y-104565069D01*
X125593991Y-104405062D01*
X125593992Y-104405056D01*
X125595146Y-104400249D01*
X125615628Y-104140000D01*
X125595146Y-103879751D01*
X125593992Y-103874944D01*
X125593991Y-103874938D01*
X125535359Y-103630723D01*
X125534204Y-103625911D01*
X125434303Y-103384729D01*
X125297903Y-103162144D01*
X125128363Y-102963637D01*
X124929856Y-102794097D01*
X124707271Y-102657697D01*
X124702701Y-102655804D01*
X124702697Y-102655802D01*
X124470662Y-102559690D01*
X124470660Y-102559689D01*
X124466089Y-102557796D01*
X124377069Y-102536424D01*
X124217062Y-102498009D01*
X124217056Y-102498008D01*
X124212249Y-102496854D01*
X123952000Y-102476372D01*
X123691751Y-102496854D01*
X123686944Y-102498008D01*
X123686938Y-102498009D01*
X123526931Y-102536424D01*
X123437911Y-102557796D01*
X123433340Y-102559689D01*
X123433338Y-102559690D01*
X123201303Y-102655802D01*
X123201299Y-102655804D01*
X123196729Y-102657697D01*
X122974144Y-102794097D01*
X122775637Y-102963637D01*
X122606097Y-103162144D01*
X122469697Y-103384729D01*
X122369796Y-103625911D01*
X122368641Y-103630723D01*
X122310009Y-103874938D01*
X122310008Y-103874944D01*
X122308854Y-103879751D01*
X122288372Y-104140000D01*
X115569316Y-104140000D01*
X113773967Y-101106036D01*
X113767068Y-101092598D01*
X113765205Y-101088362D01*
X113762539Y-101082300D01*
X113756071Y-101072185D01*
X113752165Y-101065648D01*
X113662318Y-100904400D01*
X113535281Y-100744645D01*
X113531469Y-100741196D01*
X113531464Y-100741190D01*
X113393538Y-100616376D01*
X113383941Y-100607691D01*
X113379607Y-100604900D01*
X113379604Y-100604898D01*
X113216667Y-100499980D01*
X113216660Y-100499976D01*
X113212333Y-100497190D01*
X113207613Y-100495146D01*
X113207607Y-100495143D01*
X113094252Y-100446061D01*
X113025030Y-100416087D01*
X112827026Y-100366544D01*
X112821894Y-100366124D01*
X112821890Y-100366123D01*
X112737495Y-100359211D01*
X112662733Y-100353087D01*
X112652134Y-100351765D01*
X112636152Y-100349076D01*
X112629876Y-100349000D01*
X112628460Y-100348982D01*
X112628457Y-100348982D01*
X112623600Y-100348923D01*
X112603769Y-100351763D01*
X112595976Y-100352879D01*
X112578114Y-100354152D01*
X95506450Y-100354152D01*
X95485545Y-100352406D01*
X95470544Y-100349882D01*
X95470541Y-100349882D01*
X95465752Y-100349076D01*
X95459675Y-100349002D01*
X95458065Y-100348982D01*
X95458061Y-100348982D01*
X95453200Y-100348923D01*
X95448386Y-100349612D01*
X95448376Y-100349613D01*
X95438578Y-100351016D01*
X95431703Y-100351809D01*
X95263783Y-100366500D01*
X95263779Y-100366501D01*
X95258312Y-100366979D01*
X95253006Y-100368401D01*
X95253004Y-100368401D01*
X95124288Y-100402889D01*
X95069345Y-100417610D01*
X94892040Y-100500283D01*
X94731784Y-100612489D01*
X94727900Y-100616373D01*
X94727896Y-100616376D01*
X94597338Y-100746923D01*
X94593445Y-100750816D01*
X94481228Y-100911063D01*
X94398540Y-101088362D01*
X94347894Y-101277325D01*
X94334429Y-101431107D01*
X94333160Y-101441036D01*
X94331590Y-101450366D01*
X94330025Y-101459660D01*
X94329871Y-101472212D01*
X94330560Y-101477026D01*
X94333580Y-101498127D01*
X94334849Y-101516667D01*
X94329472Y-102498009D01*
X94284521Y-110702182D01*
X94284477Y-110703245D01*
X94284300Y-110704386D01*
X94284300Y-110742358D01*
X94284298Y-110743048D01*
X94284108Y-110777726D01*
X94284265Y-110778869D01*
X94284300Y-110779926D01*
X94284300Y-112066233D01*
X94282800Y-112085618D01*
X94280490Y-112100451D01*
X94280490Y-112100455D01*
X94279109Y-112109324D01*
X94280273Y-112118226D01*
X94280186Y-112125363D01*
X94277799Y-112148279D01*
X94277652Y-112149022D01*
X94258816Y-112194564D01*
X94253737Y-112202166D01*
X94218963Y-112236939D01*
X94211362Y-112242017D01*
X94166009Y-112260814D01*
X94164809Y-112261053D01*
X94164312Y-112261152D01*
X94143576Y-112263072D01*
X94138676Y-112262309D01*
X94107114Y-112266436D01*
X94090779Y-112267500D01*
X77722567Y-112267500D01*
X77703182Y-112266000D01*
X77688349Y-112263690D01*
X77688345Y-112263690D01*
X77679476Y-112262309D01*
X77670574Y-112263473D01*
X77663437Y-112263386D01*
X77640521Y-112260999D01*
X77640031Y-112260902D01*
X77639777Y-112260851D01*
X77594236Y-112242016D01*
X77586634Y-112236937D01*
X77551857Y-112202157D01*
X77547640Y-112195844D01*
X77526423Y-112124324D01*
X77526470Y-112120463D01*
X77526470Y-112120459D01*
X77526529Y-112115600D01*
X77522573Y-112087976D01*
X77521300Y-112070114D01*
X77521300Y-83820000D01*
X93336372Y-83820000D01*
X93356854Y-84080249D01*
X93358008Y-84085056D01*
X93358009Y-84085062D01*
X93396424Y-84245069D01*
X93417796Y-84334089D01*
X93517697Y-84575271D01*
X93654097Y-84797856D01*
X93823637Y-84996363D01*
X94022144Y-85165903D01*
X94244729Y-85302303D01*
X94249299Y-85304196D01*
X94249303Y-85304198D01*
X94481338Y-85400310D01*
X94485911Y-85402204D01*
X94574931Y-85423576D01*
X94734938Y-85461991D01*
X94734944Y-85461992D01*
X94739751Y-85463146D01*
X95000000Y-85483628D01*
X95260249Y-85463146D01*
X95265056Y-85461992D01*
X95265062Y-85461991D01*
X95425069Y-85423576D01*
X95514089Y-85402204D01*
X95518662Y-85400310D01*
X95750697Y-85304198D01*
X95750701Y-85304196D01*
X95755271Y-85302303D01*
X95977856Y-85165903D01*
X96176363Y-84996363D01*
X96345903Y-84797856D01*
X96482303Y-84575271D01*
X96582204Y-84334089D01*
X96603576Y-84245069D01*
X96641991Y-84085062D01*
X96641992Y-84085056D01*
X96643146Y-84080249D01*
X96663628Y-83820000D01*
X96643146Y-83559751D01*
X96641992Y-83554944D01*
X96641991Y-83554938D01*
X96583359Y-83310723D01*
X96582204Y-83305911D01*
X96482303Y-83064729D01*
X96345903Y-82842144D01*
X96176363Y-82643637D01*
X95977856Y-82474097D01*
X95755271Y-82337697D01*
X95750701Y-82335804D01*
X95750697Y-82335802D01*
X95518662Y-82239690D01*
X95518660Y-82239689D01*
X95514089Y-82237796D01*
X95425069Y-82216424D01*
X95265062Y-82178009D01*
X95265056Y-82178008D01*
X95260249Y-82176854D01*
X95000000Y-82156372D01*
X94739751Y-82176854D01*
X94734944Y-82178008D01*
X94734938Y-82178009D01*
X94574931Y-82216424D01*
X94485911Y-82237796D01*
X94481340Y-82239689D01*
X94481338Y-82239690D01*
X94249303Y-82335802D01*
X94249299Y-82335804D01*
X94244729Y-82337697D01*
X94022144Y-82474097D01*
X93823637Y-82643637D01*
X93654097Y-82842144D01*
X93517697Y-83064729D01*
X93417796Y-83305911D01*
X93416641Y-83310723D01*
X93358009Y-83554938D01*
X93358008Y-83554944D01*
X93356854Y-83559751D01*
X93336372Y-83820000D01*
X77521300Y-83820000D01*
X77521300Y-76747211D01*
X77521324Y-76746552D01*
X77521438Y-76745804D01*
X77521300Y-76707026D01*
X77521300Y-76671487D01*
X77521193Y-76670742D01*
X77521168Y-76670074D01*
X77501676Y-71192687D01*
X77496898Y-69850000D01*
X147307372Y-69850000D01*
X147327854Y-70110249D01*
X147329008Y-70115056D01*
X147329009Y-70115062D01*
X147367424Y-70275069D01*
X147388796Y-70364089D01*
X147488697Y-70605271D01*
X147625097Y-70827856D01*
X147794637Y-71026363D01*
X147993144Y-71195903D01*
X148215729Y-71332303D01*
X148220299Y-71334196D01*
X148220303Y-71334198D01*
X148452338Y-71430310D01*
X148456911Y-71432204D01*
X148545931Y-71453576D01*
X148705938Y-71491991D01*
X148705944Y-71491992D01*
X148710751Y-71493146D01*
X148971000Y-71513628D01*
X149231249Y-71493146D01*
X149236056Y-71491992D01*
X149236062Y-71491991D01*
X149396069Y-71453576D01*
X149485089Y-71432204D01*
X149489662Y-71430310D01*
X149721697Y-71334198D01*
X149721701Y-71334196D01*
X149726271Y-71332303D01*
X149948856Y-71195903D01*
X150147363Y-71026363D01*
X150316903Y-70827856D01*
X150453303Y-70605271D01*
X150553204Y-70364089D01*
X150574576Y-70275069D01*
X150612991Y-70115062D01*
X150612992Y-70115056D01*
X150614146Y-70110249D01*
X150634628Y-69850000D01*
X150614146Y-69589751D01*
X150612992Y-69584944D01*
X150612991Y-69584938D01*
X150554359Y-69340723D01*
X150553204Y-69335911D01*
X150453303Y-69094729D01*
X150316903Y-68872144D01*
X150147363Y-68673637D01*
X149948856Y-68504097D01*
X149726271Y-68367697D01*
X149721701Y-68365804D01*
X149721697Y-68365802D01*
X149489662Y-68269690D01*
X149489660Y-68269689D01*
X149485089Y-68267796D01*
X149396069Y-68246424D01*
X149236062Y-68208009D01*
X149236056Y-68208008D01*
X149231249Y-68206854D01*
X148971000Y-68186372D01*
X148710751Y-68206854D01*
X148705944Y-68208008D01*
X148705938Y-68208009D01*
X148545931Y-68246424D01*
X148456911Y-68267796D01*
X148452340Y-68269689D01*
X148452338Y-68269690D01*
X148220303Y-68365802D01*
X148220299Y-68365804D01*
X148215729Y-68367697D01*
X147993144Y-68504097D01*
X147794637Y-68673637D01*
X147625097Y-68872144D01*
X147488697Y-69094729D01*
X147388796Y-69335911D01*
X147387641Y-69340723D01*
X147329009Y-69584938D01*
X147329008Y-69584944D01*
X147327854Y-69589751D01*
X147307372Y-69850000D01*
X77496898Y-69850000D01*
X77486050Y-66802000D01*
X93336372Y-66802000D01*
X93356854Y-67062249D01*
X93358008Y-67067056D01*
X93358009Y-67067062D01*
X93396424Y-67227069D01*
X93417796Y-67316089D01*
X93517697Y-67557271D01*
X93654097Y-67779856D01*
X93823637Y-67978363D01*
X94022144Y-68147903D01*
X94244729Y-68284303D01*
X94249299Y-68286196D01*
X94249303Y-68286198D01*
X94481338Y-68382310D01*
X94485911Y-68384204D01*
X94574931Y-68405576D01*
X94734938Y-68443991D01*
X94734944Y-68443992D01*
X94739751Y-68445146D01*
X95000000Y-68465628D01*
X95260249Y-68445146D01*
X95265056Y-68443992D01*
X95265062Y-68443991D01*
X95425069Y-68405576D01*
X95514089Y-68384204D01*
X95518662Y-68382310D01*
X95750697Y-68286198D01*
X95750701Y-68286196D01*
X95755271Y-68284303D01*
X95977856Y-68147903D01*
X96176363Y-67978363D01*
X96345903Y-67779856D01*
X96482303Y-67557271D01*
X96582204Y-67316089D01*
X96603576Y-67227069D01*
X96641991Y-67067062D01*
X96641992Y-67067056D01*
X96643146Y-67062249D01*
X96663628Y-66802000D01*
X96643146Y-66541751D01*
X96641992Y-66536944D01*
X96641991Y-66536938D01*
X96583359Y-66292723D01*
X96582204Y-66287911D01*
X96482303Y-66046729D01*
X96345903Y-65824144D01*
X96176363Y-65625637D01*
X95977856Y-65456097D01*
X95755271Y-65319697D01*
X95750701Y-65317804D01*
X95750697Y-65317802D01*
X95518662Y-65221690D01*
X95518660Y-65221689D01*
X95514089Y-65219796D01*
X95425069Y-65198424D01*
X95265062Y-65160009D01*
X95265056Y-65160008D01*
X95260249Y-65158854D01*
X95000000Y-65138372D01*
X94739751Y-65158854D01*
X94734944Y-65160008D01*
X94734938Y-65160009D01*
X94574931Y-65198424D01*
X94485911Y-65219796D01*
X94481340Y-65221689D01*
X94481338Y-65221690D01*
X94249303Y-65317802D01*
X94249299Y-65317804D01*
X94244729Y-65319697D01*
X94022144Y-65456097D01*
X93823637Y-65625637D01*
X93654097Y-65824144D01*
X93517697Y-66046729D01*
X93417796Y-66287911D01*
X93416641Y-66292723D01*
X93358009Y-66536938D01*
X93358008Y-66536944D01*
X93356854Y-66541751D01*
X93336372Y-66802000D01*
X77486050Y-66802000D01*
X77471137Y-62611416D01*
X77490896Y-62543226D01*
X77544386Y-62496542D01*
X77597467Y-62484969D01*
X94461732Y-62529208D01*
X94482293Y-62530952D01*
X94482793Y-62531036D01*
X94502943Y-62534424D01*
X94507801Y-62534483D01*
X94507803Y-62534483D01*
X94509582Y-62534504D01*
X94515495Y-62534576D01*
X94536793Y-62531524D01*
X94543625Y-62530736D01*
X94691274Y-62517806D01*
X94861711Y-62472126D01*
X95021627Y-62397547D01*
X95166166Y-62296336D01*
X95290936Y-62171566D01*
X95392147Y-62027027D01*
X95466726Y-61867111D01*
X95512406Y-61696674D01*
X95523746Y-61567180D01*
X95525014Y-61557257D01*
X95528214Y-61538248D01*
X95528214Y-61538245D01*
X95529022Y-61533447D01*
X95529176Y-61520895D01*
X95525225Y-61493282D01*
X95523954Y-61475419D01*
X95523956Y-61467612D01*
X95525040Y-54324366D01*
X95525600Y-50641301D01*
X95545612Y-50573183D01*
X95599275Y-50526698D01*
X95651600Y-50515320D01*
X112493885Y-50515320D01*
X112514785Y-50517066D01*
X112529777Y-50519588D01*
X112529782Y-50519588D01*
X112534589Y-50520397D01*
X112547141Y-50520549D01*
X112551956Y-50519859D01*
X112551960Y-50519859D01*
X112568428Y-50517500D01*
X112575299Y-50516707D01*
X112722928Y-50503786D01*
X112893373Y-50458111D01*
X112898354Y-50455788D01*
X112898360Y-50455786D01*
X113048315Y-50385857D01*
X113048317Y-50385856D01*
X113053298Y-50383533D01*
X113197844Y-50282319D01*
X113322619Y-50157544D01*
X113423833Y-50012998D01*
X113429593Y-50000646D01*
X113496086Y-49858060D01*
X113496088Y-49858054D01*
X113498411Y-49853073D01*
X113544086Y-49682628D01*
X113555421Y-49553129D01*
X113556688Y-49543210D01*
X113559888Y-49524193D01*
X113559889Y-49524184D01*
X113560695Y-49519393D01*
X113560849Y-49506841D01*
X113560159Y-49502025D01*
X113560159Y-49502018D01*
X113556735Y-49478103D01*
X113555464Y-49460682D01*
X113538969Y-44684380D01*
X113558735Y-44616191D01*
X113612230Y-44569513D01*
X113664866Y-44557945D01*
X124137578Y-44549612D01*
X130175400Y-44544808D01*
X130243536Y-44564756D01*
G37*
G04 #@! TD.AperFunction*
M02*
