M48
; DRILL file {KiCad (6.0.10)} date Sat Jan  7 12:45:04 2023
; FORMAT={-:-/ absolute / inch / decimal}
; #@! TF.CreationDate,2023-01-07T12:45:04+01:00
; #@! TF.GenerationSoftware,Kicad,Pcbnew,(6.0.10)
; #@! TF.FileFunction,NonPlated,1,2,NPTH
FMAT,2
INCH
; #@! TA.AperFunction,NonPlated,NPTH,ComponentDrill
T1C0.0354
; #@! TA.AperFunction,NonPlated,NPTH,ComponentDrill
T2C0.0390
; #@! TA.AperFunction,NonPlated,NPTH,ComponentDrill
T3C0.0472
; #@! TA.AperFunction,NonPlated,NPTH,ComponentDrill
T4C0.0670
; #@! TA.AperFunction,NonPlated,NPTH,ComponentDrill
T5C0.1181
; #@! TA.AperFunction,NonPlated,NPTH,ComponentDrill
T6C0.1350
%
G90
G05
T1
X6.9409Y-2.2
X7.0591Y-2.2
T2
X3.1768Y-2.6063
X3.1768Y-3.2756
X3.1768Y-3.9449
X3.5878Y-2.6063
X3.5878Y-3.2756
X3.5878Y-3.9449
X3.8854Y-2.1339
X3.8854Y-2.8031
X3.8854Y-3.4724
X4.2965Y-2.1339
X4.2965Y-2.8031
X4.2965Y-3.4724
X4.5941Y-1.8976
X4.5941Y-2.5669
X4.5941Y-3.2362
X5.0051Y-1.8976
X5.0051Y-2.5669
X5.0051Y-3.2362
X5.0705Y-4.6138
X5.3028Y-2.1583
X5.3028Y-2.8276
X5.3028Y-3.497
X5.4815Y-4.6138
X5.7138Y-2.1583
X5.7138Y-2.8276
X5.7138Y-3.497
X5.824Y-4.6569
X6.0114Y-2.252
X6.0114Y-2.9213
X6.0114Y-3.5906
X6.2211Y-4.7633
X6.4224Y-2.252
X6.4224Y-2.9213
X6.4224Y-3.5906
X6.9168Y-4.9374
X7.1223Y-4.5815
T3
X7.0654Y-3.8961
X7.0654Y-3.965
X7.3409Y-3.8961
X7.3409Y-3.965
T4
X3.1657Y-2.7717
X3.1657Y-3.4409
X3.1657Y-4.1102
X3.5988Y-2.7717
X3.5988Y-3.4409
X3.5988Y-4.1102
X3.8744Y-2.2992
X3.8744Y-2.9685
X3.8744Y-3.6378
X4.3075Y-2.2992
X4.3075Y-2.9685
X4.3075Y-3.6378
X4.5831Y-2.063
X4.5831Y-2.7323
X4.5831Y-3.4016
X5.0161Y-2.063
X5.0161Y-2.7323
X5.0161Y-3.4016
X5.0594Y-4.4484
X5.2917Y-2.3236
X5.2917Y-2.9929
X5.2917Y-3.6624
X5.4925Y-4.4484
X5.7248Y-2.3236
X5.7248Y-2.9929
X5.7248Y-3.6624
X5.8562Y-4.4944
X6.0004Y-2.4173
X6.0004Y-3.0866
X6.0004Y-3.7559
X6.2745Y-4.6064
X6.4335Y-2.4173
X6.4335Y-3.0866
X6.4335Y-3.7559
X6.7681Y-4.8643
X6.9846Y-4.4892
T5
X3.1854Y-2.9193
X3.1854Y-3.5886
X3.1854Y-4.2579
X3.3823Y-3.0059
X3.3823Y-3.6752
X3.3823Y-4.3445
X3.5791Y-2.9193
X3.5791Y-3.5886
X3.5791Y-4.2579
X3.8941Y-2.4469
X3.8941Y-3.1161
X3.8941Y-3.7854
X4.0909Y-2.5335
X4.0909Y-3.2028
X4.0909Y-3.872
X4.2878Y-2.4469
X4.2878Y-3.1161
X4.2878Y-3.7854
X4.6028Y-2.2106
X4.6028Y-2.8799
X4.6028Y-3.5492
X4.7996Y-2.2972
X4.7996Y-2.9665
X4.7996Y-3.6358
X4.9965Y-2.2106
X4.9965Y-2.8799
X4.9965Y-3.5492
X5.0791Y-4.3008
X5.276Y-4.2142
X5.3114Y-2.4713
X5.3114Y-3.1406
X5.3114Y-3.81
X5.4728Y-4.3008
X5.5083Y-2.5579
X5.5083Y-3.2272
X5.5083Y-3.8967
X5.7051Y-2.4713
X5.7051Y-3.1406
X5.7051Y-3.81
X5.9134Y-4.3568
X6.0201Y-2.565
X6.0201Y-3.2343
X6.0201Y-3.9035
X6.126Y-4.3241
X6.2169Y-2.6516
X6.2169Y-3.3209
X6.2169Y-3.9902
X6.2937Y-4.4587
X6.4138Y-2.565
X6.4138Y-3.2343
X6.4138Y-3.9035
X6.6501Y-4.7734
X6.6735Y-4.5596
X6.8469Y-4.4325
T6
X3.3823Y-2.7717
X3.3823Y-3.4409
X3.3823Y-4.1102
X4.0909Y-2.2992
X4.0909Y-2.9685
X4.0909Y-3.6378
X4.7996Y-2.063
X4.7996Y-2.7323
X4.7996Y-3.4016
X5.276Y-4.4484
X5.5083Y-2.3236
X5.5083Y-2.9929
X5.5083Y-3.6624
X6.0654Y-4.5504
X6.2169Y-2.4173
X6.2169Y-3.0866
X6.2169Y-3.7559
X6.8764Y-4.6768
T0
M30
