G04 #@! TF.GenerationSoftware,KiCad,Pcbnew,(6.0.10)*
G04 #@! TF.CreationDate,2023-01-07T12:45:19+01:00*
G04 #@! TF.ProjectId,chocofi,63686f63-6f66-4692-9e6b-696361645f70,2.1*
G04 #@! TF.SameCoordinates,Original*
G04 #@! TF.FileFunction,Paste,Bot*
G04 #@! TF.FilePolarity,Positive*
%FSLAX46Y46*%
G04 Gerber Fmt 4.6, Leading zero omitted, Abs format (unit mm)*
G04 Created by KiCad (PCBNEW (6.0.10)) date 2023-01-07 12:45:19*
%MOMM*%
%LPD*%
G01*
G04 APERTURE LIST*
G04 Aperture macros list*
%AMRotRect*
0 Rectangle, with rotation*
0 The origin of the aperture is its center*
0 $1 length*
0 $2 width*
0 $3 Rotation angle, in degrees counterclockwise*
0 Add horizontal line*
21,1,$1,$2,0,0,$3*%
%AMOutline5P*
0 Free polygon, 5 corners , with rotation*
0 The origin of the aperture is its center*
0 number of corners: always 5*
0 $1 to $10 corner X, Y*
0 $11 Rotation angle, in degrees counterclockwise*
0 create outline with 5 corners*
4,1,5,$1,$2,$3,$4,$5,$6,$7,$8,$9,$10,$1,$2,$11*%
%AMOutline6P*
0 Free polygon, 6 corners , with rotation*
0 The origin of the aperture is its center*
0 number of corners: always 6*
0 $1 to $12 corner X, Y*
0 $13 Rotation angle, in degrees counterclockwise*
0 create outline with 6 corners*
4,1,6,$1,$2,$3,$4,$5,$6,$7,$8,$9,$10,$11,$12,$1,$2,$13*%
%AMOutline7P*
0 Free polygon, 7 corners , with rotation*
0 The origin of the aperture is its center*
0 number of corners: always 7*
0 $1 to $14 corner X, Y*
0 $15 Rotation angle, in degrees counterclockwise*
0 create outline with 7 corners*
4,1,7,$1,$2,$3,$4,$5,$6,$7,$8,$9,$10,$11,$12,$13,$14,$1,$2,$15*%
%AMOutline8P*
0 Free polygon, 8 corners , with rotation*
0 The origin of the aperture is its center*
0 number of corners: always 8*
0 $1 to $16 corner X, Y*
0 $17 Rotation angle, in degrees counterclockwise*
0 create outline with 8 corners*
4,1,8,$1,$2,$3,$4,$5,$6,$7,$8,$9,$10,$11,$12,$13,$14,$15,$16,$1,$2,$17*%
G04 Aperture macros list end*
%ADD10R,0.900000X0.900000*%
%ADD11R,0.900000X1.250000*%
%ADD12R,1.300000X0.950000*%
%ADD13RotRect,1.300000X0.950000X345.000000*%
%ADD14RotRect,1.300000X0.950000X60.000000*%
%ADD15Outline5P,-1.300000X1.300000X0.130000X1.300000X1.300000X0.130000X1.300000X-1.300000X-1.300000X-1.300000X0.000000*%
%ADD16R,1.850000X2.600000*%
%ADD17Outline5P,-1.025000X0.275000X0.000000X1.300000X1.025000X1.300000X1.025000X-1.300000X-1.025000X-1.300000X0.000000*%
%ADD18R,2.600000X2.600000*%
%ADD19R,1.875000X2.600000*%
%ADD20Outline5P,-1.300000X1.300000X0.130000X1.300000X1.300000X0.130000X1.300000X-1.300000X-1.300000X-1.300000X180.000000*%
%ADD21Outline5P,-1.300000X1.300000X0.130000X1.300000X1.300000X0.130000X1.300000X-1.300000X-1.300000X-1.300000X165.000000*%
%ADD22RotRect,2.600000X2.600000X165.000000*%
%ADD23Outline5P,-1.300000X1.300000X0.130000X1.300000X1.300000X0.130000X1.300000X-1.300000X-1.300000X-1.300000X240.000000*%
%ADD24RotRect,2.600000X2.600000X240.000000*%
%ADD25R,1.143000X0.635000*%
G04 APERTURE END LIST*
D10*
X181500000Y-56980000D03*
X174100000Y-56980000D03*
X174100000Y-54780000D03*
X181500000Y-54780000D03*
D11*
X175550000Y-57955000D03*
X178550000Y-57955000D03*
X180050000Y-57955000D03*
D12*
X84229400Y-64312800D03*
X87779400Y-64312800D03*
X102314200Y-52273200D03*
X105864200Y-52273200D03*
X120297400Y-46228000D03*
X123847400Y-46228000D03*
X138229800Y-53289200D03*
X141779800Y-53289200D03*
X156213000Y-55422800D03*
X159763000Y-55422800D03*
X84127800Y-81229200D03*
X87677800Y-81229200D03*
X102111000Y-69342000D03*
X105661000Y-69342000D03*
X120195800Y-63347600D03*
X123745800Y-63347600D03*
X138179000Y-69900800D03*
X141729000Y-69900800D03*
X156517800Y-72491600D03*
X160067800Y-72491600D03*
X84127800Y-98247200D03*
X87677800Y-98247200D03*
X102212600Y-86309200D03*
X105762600Y-86309200D03*
X120195800Y-80314800D03*
X123745800Y-80314800D03*
X138280600Y-86969600D03*
X141830600Y-86969600D03*
X156314600Y-89357200D03*
X159864600Y-89357200D03*
X132184600Y-119075200D03*
X135734600Y-119075200D03*
D13*
X150799764Y-121001192D03*
X154228800Y-121920000D03*
D14*
X179070666Y-123432630D03*
X180845666Y-120358240D03*
D15*
X89185000Y-76350000D03*
D16*
X78010000Y-74150000D03*
D15*
X107185000Y-64350000D03*
D17*
X95960000Y-62150000D03*
D15*
X125185000Y-58350000D03*
D18*
X113635000Y-56150000D03*
D15*
X143185000Y-64970000D03*
D18*
X131635000Y-62770000D03*
D15*
X161185000Y-67350000D03*
D18*
X149635000Y-65150000D03*
D15*
X89185000Y-93350000D03*
D19*
X78010000Y-91150000D03*
D15*
X107185000Y-81350000D03*
D18*
X95635000Y-79150000D03*
D15*
X125185000Y-75350000D03*
D18*
X113635000Y-73150000D03*
D15*
X143185000Y-81970000D03*
D18*
X131635000Y-79770000D03*
D15*
X161185000Y-84350000D03*
D18*
X149635000Y-82150000D03*
D15*
X89185000Y-110350000D03*
D19*
X78010000Y-108150000D03*
D15*
X107185000Y-98350000D03*
D18*
X95635000Y-96150000D03*
D15*
X125185000Y-92350000D03*
D18*
X113635000Y-90150000D03*
D15*
X143185000Y-98975000D03*
D18*
X131635000Y-96775000D03*
D15*
X161185000Y-101350000D03*
D18*
X149635000Y-99150000D03*
D20*
X130735000Y-107040000D03*
D18*
X142285000Y-109240000D03*
D21*
X152436566Y-108985109D03*
D22*
X163023608Y-114099506D03*
D23*
X167869649Y-118651233D03*
D24*
X175549905Y-109748640D03*
D25*
X176480000Y-87478020D03*
X176480000Y-88478780D03*
X173930000Y-87507620D03*
X173930000Y-88508380D03*
X181640000Y-87428020D03*
X181640000Y-88428780D03*
X179060000Y-87448020D03*
X179060000Y-88448780D03*
M02*
