M48
; DRILL file {KiCad (6.0.10)} date Tue Jan 10 17:00:19 2023
; FORMAT={-:-/ absolute / inch / decimal}
; #@! TF.CreationDate,2023-01-10T17:00:19+01:00
; #@! TF.GenerationSoftware,Kicad,Pcbnew,(6.0.10)
; #@! TF.FileFunction,Plated,1,2,PTH
FMAT,2
INCH
; #@! TA.AperFunction,Plated,PTH,ViaDrill
T1C0.0157
; #@! TA.AperFunction,Plated,PTH,ComponentDrill
T2C0.0320
; #@! TA.AperFunction,Plated,PTH,ComponentDrill
T3C0.0394
; #@! TA.AperFunction,Plated,PTH,ComponentDrill
T4C0.0512
; #@! TA.AperFunction,Plated,PTH,ComponentDrill
T5C0.1496
%
G90
G05
T1
X3.2533Y-3.0059
X3.2533Y-3.6752
X3.2533Y-4.3445
X3.53Y-3.325
X3.632Y-3.696
X3.696Y-3.882
X3.7081Y-2.9193
X3.7081Y-3.5886
X3.7081Y-4.2579
X3.724Y-3.692
X3.962Y-2.5335
X3.962Y-3.2028
X3.962Y-3.872
X4.376Y-2.062
X4.382Y-3.41
X4.4Y-2.764
X4.4167Y-2.4469
X4.4167Y-3.1161
X4.4167Y-3.7854
X4.6646Y-3.7927
X4.6707Y-2.2972
X4.6707Y-2.9665
X4.6707Y-3.6358
X4.794Y-2.576
X4.9502Y-4.3008
X5.082Y-3.184
X5.094Y-1.824
X5.098Y-2.506
X5.1254Y-2.2106
X5.1254Y-2.8799
X5.1254Y-3.5492
X5.3793Y-2.5579
X5.3793Y-3.2272
X5.3793Y-3.8967
X5.4049Y-4.2142
X5.454Y-2.864
X5.7889Y-4.3235
X5.796Y-3.976
X5.826Y-4.242
X5.828Y-2.104
X5.832Y-3.428
X5.8341Y-2.4713
X5.8341Y-3.1406
X5.8341Y-3.81
X6.088Y-2.6516
X6.088Y-3.3209
X6.088Y-3.9902
X6.191Y-4.539
X6.2505Y-4.3575
X6.532Y-3.52
X6.54Y-2.186
X6.54Y-2.908
X6.5427Y-2.565
X6.5427Y-3.2343
X6.5427Y-3.9035
X6.5681Y-4.114
X6.584Y-2.782
X6.61Y-2.225
X6.613Y-4.1134
X6.738Y-4.448
X6.768Y-3.64
X6.8Y-2.2
X6.8Y-2.3
X6.8053Y-3.1177
X6.8845Y-4.5195
X6.9114Y-4.3208
X7.0Y-2.7177
X7.0Y-2.8177
X7.0Y-2.9177
X7.0Y-3.0177
X7.0Y-3.1177
X7.0Y-3.2177
X7.0Y-3.3177
X7.08Y-2.766
X7.08Y-2.866
X7.08Y-2.966
X7.08Y-3.066
X7.085Y-3.166
X7.085Y-3.266
X7.09Y-3.365
X7.206Y-3.21
X7.23Y-3.59
X7.3Y-3.515
T2
X3.232Y-3.198
X3.232Y-3.868
X3.236Y-2.532
X3.532Y-3.198
X3.532Y-3.868
X3.536Y-2.532
X3.94Y-2.73
X3.944Y-3.398
X3.948Y-2.058
X4.24Y-2.73
X4.244Y-3.398
X4.248Y-2.058
X4.652Y-2.494
X4.652Y-3.162
X4.656Y-1.82
X4.952Y-2.494
X4.952Y-3.162
X4.956Y-1.82
X5.124Y-4.688
X5.36Y-2.752
X5.362Y-2.098
X5.364Y-3.424
X5.424Y-4.688
X5.66Y-2.752
X5.662Y-2.098
X5.664Y-3.424
X5.8596Y-4.7431
X6.07Y-2.182
X6.074Y-3.518
X6.082Y-2.854
X6.1494Y-4.8207
X6.37Y-2.182
X6.374Y-3.518
X6.382Y-2.854
X6.678Y-2.3177
X6.678Y-2.4177
X6.678Y-2.5177
X6.678Y-2.6177
X6.678Y-2.7177
X6.678Y-2.8177
X6.678Y-2.9177
X6.678Y-3.0177
X6.678Y-3.1177
X6.678Y-3.2177
X6.678Y-3.3177
X6.678Y-3.4177
X6.7Y-2.1677
X6.7302Y-2.2677
X6.7302Y-2.3677
X6.7302Y-2.4677
X6.7302Y-2.5677
X6.7302Y-2.6677
X6.7302Y-2.7677
X6.7302Y-2.8677
X6.7302Y-2.9677
X6.7302Y-3.0677
X6.7302Y-3.1677
X6.7302Y-3.2677
X6.7302Y-3.3677
X6.8476Y-3.5673
X6.9476Y-3.5673
X7.01Y-4.9289
X7.0476Y-3.5673
X7.1476Y-3.5673
X7.16Y-4.6691
X7.278Y-2.3177
X7.278Y-2.4177
X7.278Y-2.5177
X7.278Y-2.6177
X7.278Y-2.7177
X7.278Y-2.8177
X7.278Y-2.9177
X7.278Y-3.0177
X7.278Y-3.1177
X7.278Y-3.2177
X7.278Y-3.3177
X7.278Y-3.4177
X7.328Y-2.1677
X7.3294Y-2.2677
X7.3294Y-2.3677
X7.3294Y-2.4677
X7.3294Y-2.5677
X7.3294Y-2.6677
X7.3294Y-2.7677
X7.3294Y-2.8677
X7.3294Y-2.9677
X7.3294Y-3.0677
X7.3294Y-3.1677
X7.3294Y-3.2677
X7.3294Y-3.3677
T4
X7.067Y-3.695
X7.323Y-3.695
T5
X3.7402Y-2.63
X3.7402Y-3.3
X4.88Y-4.1
X5.865Y-2.75
X6.575Y-4.345
X6.745Y-3.815
X7.3Y-4.19
T3
G00X6.9453Y-3.8823
M15
G01X6.9256Y-3.8823
M16
G05
G00X6.9453Y-3.9788
M15
G01X6.9256Y-3.9788
M16
G05
G00X7.0043Y-3.8134
M15
G01X6.9846Y-3.8134
M16
G05
G00X7.0043Y-4.0477
M15
G01X6.9846Y-4.0477
M16
G05
G00X7.1618Y-3.8134
M15
G01X7.1421Y-3.8134
M16
G05
G00X7.1618Y-4.0477
M15
G01X7.1421Y-4.0477
M16
G05
G00X7.2799Y-3.8134
M15
G01X7.2602Y-3.8134
M16
G05
G00X7.2799Y-4.0477
M15
G01X7.2602Y-4.0477
M16
G05
T0
M30
