%TF.GenerationSoftware,KiCad,Pcbnew,(6.0.10)*%
%TF.CreationDate,2023-01-10T17:00:19+01:00*%
%TF.ProjectId,chocofi,63686f63-6f66-4692-9e6b-696361645f70,2.1*%
%TF.SameCoordinates,Original*%
%TF.FileFunction,Drillmap*%
%TF.FilePolarity,Positive*%
%FSLAX45Y45*%
G04 Gerber Fmt 4.5, Leading zero omitted, Abs format (unit mm)*
G04 Created by KiCad (PCBNEW (6.0.10)) date 2023-01-10 17:00:19*
%MOMM*%
%LPD*%
G01*
G04 APERTURE LIST*
%ADD10C,0.150000*%
%ADD11C,0.200000*%
%ADD12C,0.040000*%
%ADD13C,0.081280*%
%ADD14C,0.100000*%
%ADD15C,0.130000*%
%ADD16C,0.380000*%
G04 APERTURE END LIST*
D10*
X18762000Y-5380500D02*
X16733040Y-5381502D01*
X9451545Y-6202085D02*
X7741920Y-6197600D01*
X17576800Y-13365480D02*
X18821400Y-11201400D01*
X16047720Y-12598400D02*
X17428867Y-13395960D01*
X12537440Y-12124081D02*
X14315440Y-12125960D01*
X16685040Y-5345502D02*
G75*
G03*
X16636050Y-5305500I-48990J-9998D01*
G01*
X16685039Y-5345502D02*
G75*
G03*
X16733040Y-5381502I48001J14002D01*
G01*
X16636050Y-5305500D02*
X14929320Y-5306902D01*
X9451545Y-6202085D02*
G75*
G03*
X9501545Y-6152085I-5J50005D01*
G01*
X9551712Y-5000682D02*
G75*
G03*
X9501712Y-5050682I-2J-49998D01*
G01*
X13031000Y-4403620D02*
X11353000Y-4404955D01*
X13081000Y-5005340D02*
X13081000Y-4453620D01*
X14829320Y-5056902D02*
X13131000Y-5055340D01*
X14879320Y-5256902D02*
X14879320Y-5106902D01*
X9501712Y-5050682D02*
X9501545Y-6152085D01*
X11254712Y-5000682D02*
X9551712Y-5000682D01*
X11303000Y-4454955D02*
X11304712Y-4950682D01*
X11254712Y-5000682D02*
G75*
G03*
X11304712Y-4950682I-2J50002D01*
G01*
X11353000Y-4404960D02*
G75*
G03*
X11303000Y-4454955I0J-50000D01*
G01*
X13081000Y-4453620D02*
G75*
G03*
X13031000Y-4403620I-50000J0D01*
G01*
X13081000Y-5005340D02*
G75*
G03*
X13131000Y-5055340I50000J0D01*
G01*
X14879318Y-5106902D02*
G75*
G03*
X14829320Y-5056902I-49998J2D01*
G01*
X14879318Y-5256902D02*
G75*
G03*
X14929320Y-5306902I50002J2D01*
G01*
X18812000Y-5430500D02*
G75*
G03*
X18762000Y-5380500I-50000J0D01*
G01*
X9545320Y-10086265D02*
X11262360Y-10086265D01*
X9479280Y-11074400D02*
X9484360Y-10147225D01*
X11329486Y-10129488D02*
G75*
G03*
X11262360Y-10086265I-67126J-30512D01*
G01*
X12501880Y-12110720D02*
G75*
G03*
X12537440Y-12124081I35560J40640D01*
G01*
X17428867Y-13395959D02*
G75*
G03*
X17576800Y-13365480I44003J160669D01*
G01*
X7701280Y-9377680D02*
X7701280Y-11074400D01*
X7696200Y-6243320D02*
X7701280Y-7670800D01*
X18812000Y-5430500D02*
X18821400Y-11201400D01*
X9479280Y-11211560D02*
X9479280Y-11074400D01*
X9545320Y-10086270D02*
G75*
G03*
X9484360Y-10147225I0J-60960D01*
G01*
X9413240Y-11277600D02*
G75*
G03*
X9479280Y-11211560I0J66040D01*
G01*
X7701280Y-11211560D02*
X7701280Y-11074400D01*
X7701280Y-7670800D02*
X7701280Y-9377680D01*
X11329486Y-10129488D02*
X12501880Y-12110720D01*
X7741920Y-6197600D02*
G75*
G03*
X7696200Y-6243320I0J-45720D01*
G01*
X7767320Y-11277600D02*
X9413240Y-11277600D01*
X14315440Y-12125960D02*
X16047720Y-12598400D01*
X7701280Y-11211560D02*
G75*
G03*
X7767320Y-11277600I66040J0D01*
G01*
D11*
D12*
X8243500Y-7615000D02*
X8283500Y-7655000D01*
X8283500Y-7615000D02*
X8243500Y-7655000D01*
X8243500Y-9315000D02*
X8283500Y-9355000D01*
X8283500Y-9315000D02*
X8243500Y-9355000D01*
X8243500Y-11015000D02*
X8283500Y-11055000D01*
X8283500Y-11015000D02*
X8243500Y-11055000D01*
X8946200Y-8425500D02*
X8986200Y-8465500D01*
X8986200Y-8425500D02*
X8946200Y-8465500D01*
X9205280Y-9367840D02*
X9245280Y-9407840D01*
X9245280Y-9367840D02*
X9205280Y-9407840D01*
X9367840Y-9840280D02*
X9407840Y-9880280D01*
X9407840Y-9840280D02*
X9367840Y-9880280D01*
X9398500Y-7395000D02*
X9438500Y-7435000D01*
X9438500Y-7395000D02*
X9398500Y-7435000D01*
X9398500Y-9095000D02*
X9438500Y-9135000D01*
X9438500Y-9095000D02*
X9398500Y-9135000D01*
X9398500Y-10795000D02*
X9438500Y-10835000D01*
X9438500Y-10795000D02*
X9398500Y-10835000D01*
X9438960Y-9357680D02*
X9478960Y-9397680D01*
X9478960Y-9357680D02*
X9438960Y-9397680D01*
X10043500Y-6415000D02*
X10083500Y-6455000D01*
X10083500Y-6415000D02*
X10043500Y-6455000D01*
X10043500Y-8115000D02*
X10083500Y-8155000D01*
X10083500Y-8115000D02*
X10043500Y-8155000D01*
X10043500Y-9815000D02*
X10083500Y-9855000D01*
X10083500Y-9815000D02*
X10043500Y-9855000D01*
X11095040Y-5217480D02*
X11135040Y-5257480D01*
X11135040Y-5217480D02*
X11095040Y-5257480D01*
X11110280Y-8641400D02*
X11150280Y-8681400D01*
X11150280Y-8641400D02*
X11110280Y-8681400D01*
X11156000Y-7000560D02*
X11196000Y-7040560D01*
X11196000Y-7000560D02*
X11156000Y-7040560D01*
X11198500Y-6195000D02*
X11238500Y-6235000D01*
X11238500Y-6195000D02*
X11198500Y-6235000D01*
X11198500Y-7895000D02*
X11238500Y-7935000D01*
X11238500Y-7895000D02*
X11198500Y-7935000D01*
X11198500Y-9595000D02*
X11238500Y-9635000D01*
X11238500Y-9595000D02*
X11198500Y-9635000D01*
X11828000Y-9613450D02*
X11868000Y-9653450D01*
X11868000Y-9613450D02*
X11828000Y-9653450D01*
X11843500Y-5815000D02*
X11883500Y-5855000D01*
X11883500Y-5815000D02*
X11843500Y-5855000D01*
X11843500Y-7515000D02*
X11883500Y-7555000D01*
X11883500Y-7515000D02*
X11843500Y-7555000D01*
X11843500Y-9215000D02*
X11883500Y-9255000D01*
X11883500Y-9215000D02*
X11843500Y-9255000D01*
X12156760Y-6523040D02*
X12196760Y-6563040D01*
X12196760Y-6523040D02*
X12156760Y-6563040D01*
X12553500Y-10904000D02*
X12593500Y-10944000D01*
X12593500Y-10904000D02*
X12553500Y-10944000D01*
X12888280Y-8067360D02*
X12928280Y-8107360D01*
X12928280Y-8067360D02*
X12888280Y-8107360D01*
X12918760Y-4612960D02*
X12958760Y-4652960D01*
X12958760Y-4612960D02*
X12918760Y-4652960D01*
X12928920Y-6345240D02*
X12968920Y-6385240D01*
X12968920Y-6345240D02*
X12928920Y-6385240D01*
X12998500Y-5595000D02*
X13038500Y-5635000D01*
X13038500Y-5595000D02*
X12998500Y-5635000D01*
X12998500Y-7295000D02*
X13038500Y-7335000D01*
X13038500Y-7295000D02*
X12998500Y-7335000D01*
X12998500Y-8995000D02*
X13038500Y-9035000D01*
X13038500Y-8995000D02*
X12998500Y-9035000D01*
X13643500Y-6477000D02*
X13683500Y-6517000D01*
X13683500Y-6477000D02*
X13643500Y-6517000D01*
X13643500Y-8177000D02*
X13683500Y-8217000D01*
X13683500Y-8177000D02*
X13643500Y-8217000D01*
X13643500Y-9877500D02*
X13683500Y-9917500D01*
X13683500Y-9877500D02*
X13643500Y-9917500D01*
X13708500Y-10684000D02*
X13748500Y-10724000D01*
X13748500Y-10684000D02*
X13708500Y-10724000D01*
X13833160Y-7254560D02*
X13873160Y-7294560D01*
X13873160Y-7254560D02*
X13833160Y-7294560D01*
X14683753Y-10961605D02*
X14723753Y-11001605D01*
X14723753Y-10961605D02*
X14683753Y-11001605D01*
X14701840Y-10079040D02*
X14741840Y-10119040D01*
X14741840Y-10079040D02*
X14701840Y-10119040D01*
X14778040Y-10754680D02*
X14818040Y-10794680D01*
X14818040Y-10754680D02*
X14778040Y-10794680D01*
X14783120Y-5324160D02*
X14823120Y-5364160D01*
X14823120Y-5324160D02*
X14783120Y-5364160D01*
X14793280Y-8687120D02*
X14833280Y-8727120D01*
X14833280Y-8687120D02*
X14793280Y-8727120D01*
X14798500Y-6257000D02*
X14838500Y-6297000D01*
X14838500Y-6257000D02*
X14798500Y-6297000D01*
X14798500Y-7957000D02*
X14838500Y-7997000D01*
X14838500Y-7957000D02*
X14798500Y-7997000D01*
X14798500Y-9657500D02*
X14838500Y-9697500D01*
X14838500Y-9657500D02*
X14798500Y-9697500D01*
X15443500Y-6715000D02*
X15483500Y-6755000D01*
X15483500Y-6715000D02*
X15443500Y-6755000D01*
X15443500Y-8415000D02*
X15483500Y-8455000D01*
X15483500Y-8415000D02*
X15443500Y-8455000D01*
X15443500Y-10115000D02*
X15483500Y-10155000D01*
X15483500Y-10115000D02*
X15443500Y-10155000D01*
X15705140Y-11509060D02*
X15745140Y-11549060D01*
X15745140Y-11509060D02*
X15705140Y-11549060D01*
X15856338Y-11048037D02*
X15896338Y-11088037D01*
X15896338Y-11048037D02*
X15856338Y-11088037D01*
X16571280Y-8920800D02*
X16611280Y-8960800D01*
X16611280Y-8920800D02*
X16571280Y-8960800D01*
X16591600Y-5532440D02*
X16631600Y-5572440D01*
X16631600Y-5532440D02*
X16591600Y-5572440D01*
X16591600Y-7366320D02*
X16631600Y-7406320D01*
X16631600Y-7366320D02*
X16591600Y-7406320D01*
X16598500Y-6495000D02*
X16638500Y-6535000D01*
X16638500Y-6495000D02*
X16598500Y-6535000D01*
X16598500Y-8195000D02*
X16638500Y-8235000D01*
X16638500Y-8195000D02*
X16598500Y-8235000D01*
X16598500Y-9895000D02*
X16638500Y-9935000D01*
X16638500Y-9895000D02*
X16598500Y-9935000D01*
X16663000Y-10429560D02*
X16703000Y-10469560D01*
X16703000Y-10429560D02*
X16663000Y-10469560D01*
X16703360Y-7046280D02*
X16743360Y-7086280D01*
X16743360Y-7046280D02*
X16703360Y-7086280D01*
X16769400Y-5631500D02*
X16809400Y-5671500D01*
X16809400Y-5631500D02*
X16769400Y-5671500D01*
X16777000Y-10428000D02*
X16817000Y-10468000D01*
X16817000Y-10428000D02*
X16777000Y-10468000D01*
X17094465Y-11277877D02*
X17134465Y-11317877D01*
X17134465Y-11277877D02*
X17094465Y-11317877D01*
X17170720Y-9225600D02*
X17210720Y-9265600D01*
X17210720Y-9225600D02*
X17170720Y-9265600D01*
X17252000Y-5568000D02*
X17292000Y-5608000D01*
X17292000Y-5568000D02*
X17252000Y-5608000D01*
X17252000Y-5822000D02*
X17292000Y-5862000D01*
X17292000Y-5822000D02*
X17252000Y-5862000D01*
X17265549Y-7899040D02*
X17305549Y-7939040D01*
X17305549Y-7899040D02*
X17265549Y-7939040D01*
X17466630Y-11459530D02*
X17506630Y-11499530D01*
X17506630Y-11459530D02*
X17466630Y-11499530D01*
X17534991Y-10954864D02*
X17574991Y-10994864D01*
X17574991Y-10954864D02*
X17534991Y-10994864D01*
X17760000Y-6883040D02*
X17800000Y-6923040D01*
X17800000Y-6883040D02*
X17760000Y-6923040D01*
X17760000Y-7137040D02*
X17800000Y-7177040D01*
X17800000Y-7137040D02*
X17760000Y-7177040D01*
X17760000Y-7391040D02*
X17800000Y-7431040D01*
X17800000Y-7391040D02*
X17760000Y-7431040D01*
X17760000Y-7645040D02*
X17800000Y-7685040D01*
X17800000Y-7645040D02*
X17760000Y-7685040D01*
X17760000Y-7899040D02*
X17800000Y-7939040D01*
X17800000Y-7899040D02*
X17760000Y-7939040D01*
X17760000Y-8153040D02*
X17800000Y-8193040D01*
X17800000Y-8153040D02*
X17760000Y-8193040D01*
X17760000Y-8406840D02*
X17800000Y-8446840D01*
X17800000Y-8406840D02*
X17760000Y-8446840D01*
X17963200Y-7005640D02*
X18003200Y-7045640D01*
X18003200Y-7005640D02*
X17963200Y-7045640D01*
X17963200Y-7259640D02*
X18003200Y-7299640D01*
X18003200Y-7259640D02*
X17963200Y-7299640D01*
X17963200Y-7513640D02*
X18003200Y-7553640D01*
X18003200Y-7513640D02*
X17963200Y-7553640D01*
X17963200Y-7767640D02*
X18003200Y-7807640D01*
X18003200Y-7767640D02*
X17963200Y-7807640D01*
X17975900Y-8021640D02*
X18015900Y-8061640D01*
X18015900Y-8021640D02*
X17975900Y-8061640D01*
X17975900Y-8275640D02*
X18015900Y-8315640D01*
X18015900Y-8275640D02*
X17975900Y-8315640D01*
X17988600Y-8527100D02*
X18028600Y-8567100D01*
X18028600Y-8527100D02*
X17988600Y-8567100D01*
X18283240Y-8133400D02*
X18323240Y-8173400D01*
X18323240Y-8133400D02*
X18283240Y-8173400D01*
X18344200Y-9098600D02*
X18384200Y-9138600D01*
X18384200Y-9098600D02*
X18344200Y-9138600D01*
X18522000Y-8908100D02*
X18562000Y-8948100D01*
X18562000Y-8908100D02*
X18522000Y-8948100D01*
D13*
X8249920Y-8122920D02*
G75*
G03*
X8249920Y-8122920I-40640J0D01*
G01*
X8249920Y-9824720D02*
G75*
G03*
X8249920Y-9824720I-40640J0D01*
G01*
X8260080Y-6431280D02*
G75*
G03*
X8260080Y-6431280I-40640J0D01*
G01*
X9011920Y-8122920D02*
G75*
G03*
X9011920Y-8122920I-40640J0D01*
G01*
X9011920Y-9824720D02*
G75*
G03*
X9011920Y-9824720I-40640J0D01*
G01*
X9022080Y-6431280D02*
G75*
G03*
X9022080Y-6431280I-40640J0D01*
G01*
X10048240Y-6934200D02*
G75*
G03*
X10048240Y-6934200I-40640J0D01*
G01*
X10058400Y-8630920D02*
G75*
G03*
X10058400Y-8630920I-40640J0D01*
G01*
X10068560Y-5227320D02*
G75*
G03*
X10068560Y-5227320I-40640J0D01*
G01*
X10810240Y-6934200D02*
G75*
G03*
X10810240Y-6934200I-40640J0D01*
G01*
X10820400Y-8630920D02*
G75*
G03*
X10820400Y-8630920I-40640J0D01*
G01*
X10830560Y-5227320D02*
G75*
G03*
X10830560Y-5227320I-40640J0D01*
G01*
X11856720Y-6334760D02*
G75*
G03*
X11856720Y-6334760I-40640J0D01*
G01*
X11856720Y-8031480D02*
G75*
G03*
X11856720Y-8031480I-40640J0D01*
G01*
X11866880Y-4622800D02*
G75*
G03*
X11866880Y-4622800I-40640J0D01*
G01*
X12618720Y-6334760D02*
G75*
G03*
X12618720Y-6334760I-40640J0D01*
G01*
X12618720Y-8031480D02*
G75*
G03*
X12618720Y-8031480I-40640J0D01*
G01*
X12628880Y-4622800D02*
G75*
G03*
X12628880Y-4622800I-40640J0D01*
G01*
X13055600Y-11907520D02*
G75*
G03*
X13055600Y-11907520I-40640J0D01*
G01*
X13655040Y-6990080D02*
G75*
G03*
X13655040Y-6990080I-40640J0D01*
G01*
X13660120Y-5328920D02*
G75*
G03*
X13660120Y-5328920I-40640J0D01*
G01*
X13665200Y-8696960D02*
G75*
G03*
X13665200Y-8696960I-40640J0D01*
G01*
X13817600Y-11907520D02*
G75*
G03*
X13817600Y-11907520I-40640J0D01*
G01*
X14417040Y-6990080D02*
G75*
G03*
X14417040Y-6990080I-40640J0D01*
G01*
X14422120Y-5328920D02*
G75*
G03*
X14422120Y-5328920I-40640J0D01*
G01*
X14427200Y-8696960D02*
G75*
G03*
X14427200Y-8696960I-40640J0D01*
G01*
X14924050Y-12047449D02*
G75*
G03*
X14924050Y-12047449I-40640J0D01*
G01*
X15458440Y-5542280D02*
G75*
G03*
X15458440Y-5542280I-40640J0D01*
G01*
X15468600Y-8935720D02*
G75*
G03*
X15468600Y-8935720I-40640J0D01*
G01*
X15488920Y-7249160D02*
G75*
G03*
X15488920Y-7249160I-40640J0D01*
G01*
X15660086Y-12244670D02*
G75*
G03*
X15660086Y-12244670I-40640J0D01*
G01*
X16220440Y-5542280D02*
G75*
G03*
X16220440Y-5542280I-40640J0D01*
G01*
X16230600Y-8935720D02*
G75*
G03*
X16230600Y-8935720I-40640J0D01*
G01*
X16250920Y-7249160D02*
G75*
G03*
X16250920Y-7249160I-40640J0D01*
G01*
X17002640Y-5887040D02*
G75*
G03*
X17002640Y-5887040I-40640J0D01*
G01*
X17002640Y-6141040D02*
G75*
G03*
X17002640Y-6141040I-40640J0D01*
G01*
X17002640Y-6395040D02*
G75*
G03*
X17002640Y-6395040I-40640J0D01*
G01*
X17002640Y-6649040D02*
G75*
G03*
X17002640Y-6649040I-40640J0D01*
G01*
X17002640Y-6903040D02*
G75*
G03*
X17002640Y-6903040I-40640J0D01*
G01*
X17002640Y-7157040D02*
G75*
G03*
X17002640Y-7157040I-40640J0D01*
G01*
X17002640Y-7411040D02*
G75*
G03*
X17002640Y-7411040I-40640J0D01*
G01*
X17002640Y-7665040D02*
G75*
G03*
X17002640Y-7665040I-40640J0D01*
G01*
X17002640Y-7919040D02*
G75*
G03*
X17002640Y-7919040I-40640J0D01*
G01*
X17002640Y-8173040D02*
G75*
G03*
X17002640Y-8173040I-40640J0D01*
G01*
X17002640Y-8427040D02*
G75*
G03*
X17002640Y-8427040I-40640J0D01*
G01*
X17002640Y-8681040D02*
G75*
G03*
X17002640Y-8681040I-40640J0D01*
G01*
X17058640Y-5506040D02*
G75*
G03*
X17058640Y-5506040I-40640J0D01*
G01*
X17135280Y-5760040D02*
G75*
G03*
X17135280Y-5760040I-40640J0D01*
G01*
X17135280Y-6014040D02*
G75*
G03*
X17135280Y-6014040I-40640J0D01*
G01*
X17135280Y-6268040D02*
G75*
G03*
X17135280Y-6268040I-40640J0D01*
G01*
X17135280Y-6522040D02*
G75*
G03*
X17135280Y-6522040I-40640J0D01*
G01*
X17135280Y-6776040D02*
G75*
G03*
X17135280Y-6776040I-40640J0D01*
G01*
X17135280Y-7030040D02*
G75*
G03*
X17135280Y-7030040I-40640J0D01*
G01*
X17135280Y-7284040D02*
G75*
G03*
X17135280Y-7284040I-40640J0D01*
G01*
X17135280Y-7538040D02*
G75*
G03*
X17135280Y-7538040I-40640J0D01*
G01*
X17135280Y-7792040D02*
G75*
G03*
X17135280Y-7792040I-40640J0D01*
G01*
X17135280Y-8046040D02*
G75*
G03*
X17135280Y-8046040I-40640J0D01*
G01*
X17135280Y-8300040D02*
G75*
G03*
X17135280Y-8300040I-40640J0D01*
G01*
X17135280Y-8554040D02*
G75*
G03*
X17135280Y-8554040I-40640J0D01*
G01*
X17433640Y-9060840D02*
G75*
G03*
X17433640Y-9060840I-40640J0D01*
G01*
X17687640Y-9060840D02*
G75*
G03*
X17687640Y-9060840I-40640J0D01*
G01*
X17845957Y-12519499D02*
G75*
G03*
X17845957Y-12519499I-40640J0D01*
G01*
X17941640Y-9060840D02*
G75*
G03*
X17941640Y-9060840I-40640J0D01*
G01*
X18195640Y-9060840D02*
G75*
G03*
X18195640Y-9060840I-40640J0D01*
G01*
X18226957Y-11859588D02*
G75*
G03*
X18226957Y-11859588I-40640J0D01*
G01*
X18526640Y-5887040D02*
G75*
G03*
X18526640Y-5887040I-40640J0D01*
G01*
X18526640Y-6141040D02*
G75*
G03*
X18526640Y-6141040I-40640J0D01*
G01*
X18526640Y-6395040D02*
G75*
G03*
X18526640Y-6395040I-40640J0D01*
G01*
X18526640Y-6649040D02*
G75*
G03*
X18526640Y-6649040I-40640J0D01*
G01*
X18526640Y-6903040D02*
G75*
G03*
X18526640Y-6903040I-40640J0D01*
G01*
X18526640Y-7157040D02*
G75*
G03*
X18526640Y-7157040I-40640J0D01*
G01*
X18526640Y-7411040D02*
G75*
G03*
X18526640Y-7411040I-40640J0D01*
G01*
X18526640Y-7665040D02*
G75*
G03*
X18526640Y-7665040I-40640J0D01*
G01*
X18526640Y-7919040D02*
G75*
G03*
X18526640Y-7919040I-40640J0D01*
G01*
X18526640Y-8173040D02*
G75*
G03*
X18526640Y-8173040I-40640J0D01*
G01*
X18526640Y-8427040D02*
G75*
G03*
X18526640Y-8427040I-40640J0D01*
G01*
X18526640Y-8681040D02*
G75*
G03*
X18526640Y-8681040I-40640J0D01*
G01*
X18653640Y-5506040D02*
G75*
G03*
X18653640Y-5506040I-40640J0D01*
G01*
X18657280Y-5760040D02*
G75*
G03*
X18657280Y-5760040I-40640J0D01*
G01*
X18657280Y-6014040D02*
G75*
G03*
X18657280Y-6014040I-40640J0D01*
G01*
X18657280Y-6268040D02*
G75*
G03*
X18657280Y-6268040I-40640J0D01*
G01*
X18657280Y-6522040D02*
G75*
G03*
X18657280Y-6522040I-40640J0D01*
G01*
X18657280Y-6776040D02*
G75*
G03*
X18657280Y-6776040I-40640J0D01*
G01*
X18657280Y-7030040D02*
G75*
G03*
X18657280Y-7030040I-40640J0D01*
G01*
X18657280Y-7284040D02*
G75*
G03*
X18657280Y-7284040I-40640J0D01*
G01*
X18657280Y-7538040D02*
G75*
G03*
X18657280Y-7538040I-40640J0D01*
G01*
X18657280Y-7792040D02*
G75*
G03*
X18657280Y-7792040I-40640J0D01*
G01*
X18657280Y-8046040D02*
G75*
G03*
X18657280Y-8046040I-40640J0D01*
G01*
X18657280Y-8300040D02*
G75*
G03*
X18657280Y-8300040I-40640J0D01*
G01*
X18657280Y-8554040D02*
G75*
G03*
X18657280Y-8554040I-40640J0D01*
G01*
D14*
X17616000Y-9811100D02*
X17616000Y-9911100D01*
X17566000Y-9861100D02*
X17666000Y-9861100D01*
D11*
X17641000Y-9811100D02*
X17591000Y-9811100D01*
X17641000Y-9911100D02*
X17591000Y-9911100D01*
X17591000Y-9811100D02*
G75*
G03*
X17591000Y-9911100I0J-50000D01*
G01*
X17641000Y-9911100D02*
G75*
G03*
X17641000Y-9811100I0J50000D01*
G01*
D14*
X17616000Y-10056100D02*
X17616000Y-10156100D01*
X17566000Y-10106100D02*
X17666000Y-10106100D01*
D11*
X17641000Y-10056100D02*
X17591000Y-10056100D01*
X17641000Y-10156100D02*
X17591000Y-10156100D01*
X17591000Y-10056100D02*
G75*
G03*
X17591000Y-10156100I0J-50000D01*
G01*
X17641000Y-10156100D02*
G75*
G03*
X17641000Y-10056100I0J50000D01*
G01*
D14*
X17766000Y-9636100D02*
X17766000Y-9736100D01*
X17716000Y-9686100D02*
X17816000Y-9686100D01*
D11*
X17791000Y-9636100D02*
X17741000Y-9636100D01*
X17791000Y-9736100D02*
X17741000Y-9736100D01*
X17741000Y-9636100D02*
G75*
G03*
X17741000Y-9736100I0J-50000D01*
G01*
X17791000Y-9736100D02*
G75*
G03*
X17791000Y-9636100I0J50000D01*
G01*
D14*
X17766000Y-10231100D02*
X17766000Y-10331100D01*
X17716000Y-10281100D02*
X17816000Y-10281100D01*
D11*
X17791000Y-10231100D02*
X17741000Y-10231100D01*
X17791000Y-10331100D02*
X17741000Y-10331100D01*
X17741000Y-10231100D02*
G75*
G03*
X17741000Y-10331100I0J-50000D01*
G01*
X17791000Y-10331100D02*
G75*
G03*
X17791000Y-10231100I0J50000D01*
G01*
D14*
X18166000Y-9636100D02*
X18166000Y-9736100D01*
X18116000Y-9686100D02*
X18216000Y-9686100D01*
D11*
X18191000Y-9636100D02*
X18141000Y-9636100D01*
X18191000Y-9736100D02*
X18141000Y-9736100D01*
X18141000Y-9636100D02*
G75*
G03*
X18141000Y-9736100I0J-50000D01*
G01*
X18191000Y-9736100D02*
G75*
G03*
X18191000Y-9636100I0J50000D01*
G01*
D14*
X18166000Y-10231100D02*
X18166000Y-10331100D01*
X18116000Y-10281100D02*
X18216000Y-10281100D01*
D11*
X18191000Y-10231100D02*
X18141000Y-10231100D01*
X18191000Y-10331100D02*
X18141000Y-10331100D01*
X18141000Y-10231100D02*
G75*
G03*
X18141000Y-10331100I0J-50000D01*
G01*
X18191000Y-10331100D02*
G75*
G03*
X18191000Y-10231100I0J50000D01*
G01*
D14*
X18466000Y-9636100D02*
X18466000Y-9736100D01*
X18416000Y-9686100D02*
X18516000Y-9686100D01*
D11*
X18491000Y-9636100D02*
X18441000Y-9636100D01*
X18491000Y-9736100D02*
X18441000Y-9736100D01*
X18441000Y-9636100D02*
G75*
G03*
X18441000Y-9736100I0J-50000D01*
G01*
X18491000Y-9736100D02*
G75*
G03*
X18491000Y-9636100I0J50000D01*
G01*
D14*
X18466000Y-10231100D02*
X18466000Y-10331100D01*
X18416000Y-10281100D02*
X18516000Y-10281100D01*
D11*
X18491000Y-10231100D02*
X18441000Y-10231100D01*
X18491000Y-10331100D02*
X18441000Y-10331100D01*
X18441000Y-10231100D02*
G75*
G03*
X18441000Y-10331100I0J-50000D01*
G01*
X18491000Y-10331100D02*
G75*
G03*
X18491000Y-10231100I0J50000D01*
G01*
D15*
X17996262Y-9431262D02*
X17996262Y-9339338D01*
X17904338Y-9339338D01*
X17904338Y-9431262D01*
X17996262Y-9431262D01*
X18646262Y-9431262D02*
X18646262Y-9339338D01*
X18554338Y-9339338D01*
X18554338Y-9431262D01*
X18646262Y-9431262D01*
D16*
X9500000Y-6870200D02*
X9690000Y-6680200D01*
X9500000Y-6490200D01*
X9310000Y-6680200D01*
X9500000Y-6870200D01*
X9500000Y-8572000D02*
X9690000Y-8382000D01*
X9500000Y-8192000D01*
X9310000Y-8382000D01*
X9500000Y-8572000D01*
X12395200Y-10604000D02*
X12585200Y-10414000D01*
X12395200Y-10224000D01*
X12205200Y-10414000D01*
X12395200Y-10604000D01*
X14897100Y-7175000D02*
X15087100Y-6985000D01*
X14897100Y-6795000D01*
X14707100Y-6985000D01*
X14897100Y-7175000D01*
X16700500Y-11226300D02*
X16890500Y-11036300D01*
X16700500Y-10846300D01*
X16510500Y-11036300D01*
X16700500Y-11226300D01*
X17132300Y-9880100D02*
X17322300Y-9690100D01*
X17132300Y-9500100D01*
X16942300Y-9690100D01*
X17132300Y-9880100D01*
X18542000Y-10832600D02*
X18732000Y-10642600D01*
X18542000Y-10452600D01*
X18352000Y-10642600D01*
X18542000Y-10832600D01*
D11*
X7946319Y-13719852D02*
X7946319Y-13519852D01*
X7993938Y-13519852D01*
X8022509Y-13529376D01*
X8041557Y-13548424D01*
X8051081Y-13567471D01*
X8060605Y-13605566D01*
X8060605Y-13634138D01*
X8051081Y-13672233D01*
X8041557Y-13691281D01*
X8022509Y-13710328D01*
X7993938Y-13719852D01*
X7946319Y-13719852D01*
X8146319Y-13719852D02*
X8146319Y-13586519D01*
X8146319Y-13624614D02*
X8155843Y-13605566D01*
X8165367Y-13596043D01*
X8184414Y-13586519D01*
X8203462Y-13586519D01*
X8270128Y-13719852D02*
X8270128Y-13586519D01*
X8270128Y-13519852D02*
X8260605Y-13529376D01*
X8270128Y-13538900D01*
X8279652Y-13529376D01*
X8270128Y-13519852D01*
X8270128Y-13538900D01*
X8393938Y-13719852D02*
X8374890Y-13710328D01*
X8365367Y-13691281D01*
X8365367Y-13519852D01*
X8498700Y-13719852D02*
X8479652Y-13710328D01*
X8470129Y-13691281D01*
X8470129Y-13519852D01*
X8727271Y-13719852D02*
X8727271Y-13519852D01*
X8793938Y-13662709D01*
X8860605Y-13519852D01*
X8860605Y-13719852D01*
X9041557Y-13719852D02*
X9041557Y-13615090D01*
X9032033Y-13596043D01*
X9012986Y-13586519D01*
X8974890Y-13586519D01*
X8955843Y-13596043D01*
X9041557Y-13710328D02*
X9022510Y-13719852D01*
X8974890Y-13719852D01*
X8955843Y-13710328D01*
X8946319Y-13691281D01*
X8946319Y-13672233D01*
X8955843Y-13653185D01*
X8974890Y-13643662D01*
X9022510Y-13643662D01*
X9041557Y-13634138D01*
X9136795Y-13586519D02*
X9136795Y-13786519D01*
X9136795Y-13596043D02*
X9155843Y-13586519D01*
X9193938Y-13586519D01*
X9212986Y-13596043D01*
X9222510Y-13605566D01*
X9232033Y-13624614D01*
X9232033Y-13681757D01*
X9222510Y-13700804D01*
X9212986Y-13710328D01*
X9193938Y-13719852D01*
X9155843Y-13719852D01*
X9136795Y-13710328D01*
X9317748Y-13700804D02*
X9327271Y-13710328D01*
X9317748Y-13719852D01*
X9308224Y-13710328D01*
X9317748Y-13700804D01*
X9317748Y-13719852D01*
X9317748Y-13596043D02*
X9327271Y-13605566D01*
X9317748Y-13615090D01*
X9308224Y-13605566D01*
X9317748Y-13596043D01*
X9317748Y-13615090D01*
D12*
X7648700Y-14029376D02*
X7688700Y-14069376D01*
X7688700Y-14029376D02*
X7648700Y-14069376D01*
D11*
X7984414Y-13939852D02*
X8003462Y-13939852D01*
X8022509Y-13949376D01*
X8032033Y-13958900D01*
X8041557Y-13977947D01*
X8051081Y-14016043D01*
X8051081Y-14063662D01*
X8041557Y-14101757D01*
X8032033Y-14120804D01*
X8022509Y-14130328D01*
X8003462Y-14139852D01*
X7984414Y-14139852D01*
X7965367Y-14130328D01*
X7955843Y-14120804D01*
X7946319Y-14101757D01*
X7936795Y-14063662D01*
X7936795Y-14016043D01*
X7946319Y-13977947D01*
X7955843Y-13958900D01*
X7965367Y-13949376D01*
X7984414Y-13939852D01*
X8136795Y-14120804D02*
X8146319Y-14130328D01*
X8136795Y-14139852D01*
X8127271Y-14130328D01*
X8136795Y-14120804D01*
X8136795Y-14139852D01*
X8317748Y-14006519D02*
X8317748Y-14139852D01*
X8270128Y-13930328D02*
X8222509Y-14073185D01*
X8346319Y-14073185D01*
X8460605Y-13939852D02*
X8479652Y-13939852D01*
X8498700Y-13949376D01*
X8508224Y-13958900D01*
X8517748Y-13977947D01*
X8527271Y-14016043D01*
X8527271Y-14063662D01*
X8517748Y-14101757D01*
X8508224Y-14120804D01*
X8498700Y-14130328D01*
X8479652Y-14139852D01*
X8460605Y-14139852D01*
X8441557Y-14130328D01*
X8432033Y-14120804D01*
X8422510Y-14101757D01*
X8412986Y-14063662D01*
X8412986Y-14016043D01*
X8422510Y-13977947D01*
X8432033Y-13958900D01*
X8441557Y-13949376D01*
X8460605Y-13939852D01*
X8651081Y-13939852D02*
X8670129Y-13939852D01*
X8689176Y-13949376D01*
X8698700Y-13958900D01*
X8708224Y-13977947D01*
X8717748Y-14016043D01*
X8717748Y-14063662D01*
X8708224Y-14101757D01*
X8698700Y-14120804D01*
X8689176Y-14130328D01*
X8670129Y-14139852D01*
X8651081Y-14139852D01*
X8632033Y-14130328D01*
X8622510Y-14120804D01*
X8612986Y-14101757D01*
X8603462Y-14063662D01*
X8603462Y-14016043D01*
X8612986Y-13977947D01*
X8622510Y-13958900D01*
X8632033Y-13949376D01*
X8651081Y-13939852D01*
X8803462Y-14139852D02*
X8803462Y-14006519D01*
X8803462Y-14025566D02*
X8812986Y-14016043D01*
X8832033Y-14006519D01*
X8860605Y-14006519D01*
X8879652Y-14016043D01*
X8889176Y-14035090D01*
X8889176Y-14139852D01*
X8889176Y-14035090D02*
X8898700Y-14016043D01*
X8917748Y-14006519D01*
X8946319Y-14006519D01*
X8965367Y-14016043D01*
X8974890Y-14035090D01*
X8974890Y-14139852D01*
X9070129Y-14139852D02*
X9070129Y-14006519D01*
X9070129Y-14025566D02*
X9079652Y-14016043D01*
X9098700Y-14006519D01*
X9127271Y-14006519D01*
X9146319Y-14016043D01*
X9155843Y-14035090D01*
X9155843Y-14139852D01*
X9155843Y-14035090D02*
X9165367Y-14016043D01*
X9184414Y-14006519D01*
X9212986Y-14006519D01*
X9232033Y-14016043D01*
X9241557Y-14035090D01*
X9241557Y-14139852D01*
X9632033Y-13930328D02*
X9460605Y-14187471D01*
X9889176Y-13939852D02*
X9908224Y-13939852D01*
X9927271Y-13949376D01*
X9936795Y-13958900D01*
X9946319Y-13977947D01*
X9955843Y-14016043D01*
X9955843Y-14063662D01*
X9946319Y-14101757D01*
X9936795Y-14120804D01*
X9927271Y-14130328D01*
X9908224Y-14139852D01*
X9889176Y-14139852D01*
X9870129Y-14130328D01*
X9860605Y-14120804D01*
X9851081Y-14101757D01*
X9841557Y-14063662D01*
X9841557Y-14016043D01*
X9851081Y-13977947D01*
X9860605Y-13958900D01*
X9870129Y-13949376D01*
X9889176Y-13939852D01*
X10041557Y-14120804D02*
X10051081Y-14130328D01*
X10041557Y-14139852D01*
X10032033Y-14130328D01*
X10041557Y-14120804D01*
X10041557Y-14139852D01*
X10174890Y-13939852D02*
X10193938Y-13939852D01*
X10212986Y-13949376D01*
X10222510Y-13958900D01*
X10232033Y-13977947D01*
X10241557Y-14016043D01*
X10241557Y-14063662D01*
X10232033Y-14101757D01*
X10222510Y-14120804D01*
X10212986Y-14130328D01*
X10193938Y-14139852D01*
X10174890Y-14139852D01*
X10155843Y-14130328D01*
X10146319Y-14120804D01*
X10136795Y-14101757D01*
X10127271Y-14063662D01*
X10127271Y-14016043D01*
X10136795Y-13977947D01*
X10146319Y-13958900D01*
X10155843Y-13949376D01*
X10174890Y-13939852D01*
X10432033Y-14139852D02*
X10317748Y-14139852D01*
X10374890Y-14139852D02*
X10374890Y-13939852D01*
X10355843Y-13968424D01*
X10336795Y-13987471D01*
X10317748Y-13996995D01*
X10612986Y-13939852D02*
X10517748Y-13939852D01*
X10508224Y-14035090D01*
X10517748Y-14025566D01*
X10536795Y-14016043D01*
X10584414Y-14016043D01*
X10603462Y-14025566D01*
X10612986Y-14035090D01*
X10622510Y-14054138D01*
X10622510Y-14101757D01*
X10612986Y-14120804D01*
X10603462Y-14130328D01*
X10584414Y-14139852D01*
X10536795Y-14139852D01*
X10517748Y-14130328D01*
X10508224Y-14120804D01*
X10689176Y-13939852D02*
X10822510Y-13939852D01*
X10736795Y-14139852D01*
X10889176Y-13939852D02*
X10889176Y-13977947D01*
X10965367Y-13939852D02*
X10965367Y-13977947D01*
X11260605Y-14216043D02*
X11251081Y-14206519D01*
X11232033Y-14177947D01*
X11222509Y-14158900D01*
X11212986Y-14130328D01*
X11203462Y-14082709D01*
X11203462Y-14044614D01*
X11212986Y-13996995D01*
X11222509Y-13968424D01*
X11232033Y-13949376D01*
X11251081Y-13920804D01*
X11260605Y-13911281D01*
X11365367Y-14025566D02*
X11346319Y-14016043D01*
X11336795Y-14006519D01*
X11327271Y-13987471D01*
X11327271Y-13977947D01*
X11336795Y-13958900D01*
X11346319Y-13949376D01*
X11365367Y-13939852D01*
X11403462Y-13939852D01*
X11422509Y-13949376D01*
X11432033Y-13958900D01*
X11441557Y-13977947D01*
X11441557Y-13987471D01*
X11432033Y-14006519D01*
X11422509Y-14016043D01*
X11403462Y-14025566D01*
X11365367Y-14025566D01*
X11346319Y-14035090D01*
X11336795Y-14044614D01*
X11327271Y-14063662D01*
X11327271Y-14101757D01*
X11336795Y-14120804D01*
X11346319Y-14130328D01*
X11365367Y-14139852D01*
X11403462Y-14139852D01*
X11422509Y-14130328D01*
X11432033Y-14120804D01*
X11441557Y-14101757D01*
X11441557Y-14063662D01*
X11432033Y-14044614D01*
X11422509Y-14035090D01*
X11403462Y-14025566D01*
X11508224Y-13939852D02*
X11632033Y-13939852D01*
X11565367Y-14016043D01*
X11593938Y-14016043D01*
X11612986Y-14025566D01*
X11622509Y-14035090D01*
X11632033Y-14054138D01*
X11632033Y-14101757D01*
X11622509Y-14120804D01*
X11612986Y-14130328D01*
X11593938Y-14139852D01*
X11536795Y-14139852D01*
X11517748Y-14130328D01*
X11508224Y-14120804D01*
X11870128Y-14139852D02*
X11870128Y-13939852D01*
X11955843Y-14139852D02*
X11955843Y-14035090D01*
X11946319Y-14016043D01*
X11927271Y-14006519D01*
X11898700Y-14006519D01*
X11879652Y-14016043D01*
X11870128Y-14025566D01*
X12079652Y-14139852D02*
X12060605Y-14130328D01*
X12051081Y-14120804D01*
X12041557Y-14101757D01*
X12041557Y-14044614D01*
X12051081Y-14025566D01*
X12060605Y-14016043D01*
X12079652Y-14006519D01*
X12108224Y-14006519D01*
X12127271Y-14016043D01*
X12136795Y-14025566D01*
X12146319Y-14044614D01*
X12146319Y-14101757D01*
X12136795Y-14120804D01*
X12127271Y-14130328D01*
X12108224Y-14139852D01*
X12079652Y-14139852D01*
X12260605Y-14139852D02*
X12241557Y-14130328D01*
X12232033Y-14111281D01*
X12232033Y-13939852D01*
X12412986Y-14130328D02*
X12393938Y-14139852D01*
X12355843Y-14139852D01*
X12336795Y-14130328D01*
X12327271Y-14111281D01*
X12327271Y-14035090D01*
X12336795Y-14016043D01*
X12355843Y-14006519D01*
X12393938Y-14006519D01*
X12412986Y-14016043D01*
X12422509Y-14035090D01*
X12422509Y-14054138D01*
X12327271Y-14073185D01*
X12498700Y-14130328D02*
X12517748Y-14139852D01*
X12555843Y-14139852D01*
X12574890Y-14130328D01*
X12584414Y-14111281D01*
X12584414Y-14101757D01*
X12574890Y-14082709D01*
X12555843Y-14073185D01*
X12527271Y-14073185D01*
X12508224Y-14063662D01*
X12498700Y-14044614D01*
X12498700Y-14035090D01*
X12508224Y-14016043D01*
X12527271Y-14006519D01*
X12555843Y-14006519D01*
X12574890Y-14016043D01*
X12651081Y-14216043D02*
X12660605Y-14206519D01*
X12679652Y-14177947D01*
X12689176Y-14158900D01*
X12698700Y-14130328D01*
X12708224Y-14082709D01*
X12708224Y-14044614D01*
X12698700Y-13996995D01*
X12689176Y-13968424D01*
X12679652Y-13949376D01*
X12660605Y-13920804D01*
X12651081Y-13911281D01*
D13*
X7688700Y-14313376D02*
G75*
G03*
X7688700Y-14313376I-40640J0D01*
G01*
D11*
X7984414Y-14203852D02*
X8003462Y-14203852D01*
X8022509Y-14213376D01*
X8032033Y-14222900D01*
X8041557Y-14241947D01*
X8051081Y-14280043D01*
X8051081Y-14327662D01*
X8041557Y-14365757D01*
X8032033Y-14384804D01*
X8022509Y-14394328D01*
X8003462Y-14403852D01*
X7984414Y-14403852D01*
X7965367Y-14394328D01*
X7955843Y-14384804D01*
X7946319Y-14365757D01*
X7936795Y-14327662D01*
X7936795Y-14280043D01*
X7946319Y-14241947D01*
X7955843Y-14222900D01*
X7965367Y-14213376D01*
X7984414Y-14203852D01*
X8136795Y-14384804D02*
X8146319Y-14394328D01*
X8136795Y-14403852D01*
X8127271Y-14394328D01*
X8136795Y-14384804D01*
X8136795Y-14403852D01*
X8260605Y-14289566D02*
X8241557Y-14280043D01*
X8232033Y-14270519D01*
X8222509Y-14251471D01*
X8222509Y-14241947D01*
X8232033Y-14222900D01*
X8241557Y-14213376D01*
X8260605Y-14203852D01*
X8298700Y-14203852D01*
X8317748Y-14213376D01*
X8327271Y-14222900D01*
X8336795Y-14241947D01*
X8336795Y-14251471D01*
X8327271Y-14270519D01*
X8317748Y-14280043D01*
X8298700Y-14289566D01*
X8260605Y-14289566D01*
X8241557Y-14299090D01*
X8232033Y-14308614D01*
X8222509Y-14327662D01*
X8222509Y-14365757D01*
X8232033Y-14384804D01*
X8241557Y-14394328D01*
X8260605Y-14403852D01*
X8298700Y-14403852D01*
X8317748Y-14394328D01*
X8327271Y-14384804D01*
X8336795Y-14365757D01*
X8336795Y-14327662D01*
X8327271Y-14308614D01*
X8317748Y-14299090D01*
X8298700Y-14289566D01*
X8527271Y-14403852D02*
X8412986Y-14403852D01*
X8470129Y-14403852D02*
X8470129Y-14203852D01*
X8451081Y-14232424D01*
X8432033Y-14251471D01*
X8412986Y-14260995D01*
X8593938Y-14203852D02*
X8717748Y-14203852D01*
X8651081Y-14280043D01*
X8679652Y-14280043D01*
X8698700Y-14289566D01*
X8708224Y-14299090D01*
X8717748Y-14318138D01*
X8717748Y-14365757D01*
X8708224Y-14384804D01*
X8698700Y-14394328D01*
X8679652Y-14403852D01*
X8622510Y-14403852D01*
X8603462Y-14394328D01*
X8593938Y-14384804D01*
X8803462Y-14403852D02*
X8803462Y-14270519D01*
X8803462Y-14289566D02*
X8812986Y-14280043D01*
X8832033Y-14270519D01*
X8860605Y-14270519D01*
X8879652Y-14280043D01*
X8889176Y-14299090D01*
X8889176Y-14403852D01*
X8889176Y-14299090D02*
X8898700Y-14280043D01*
X8917748Y-14270519D01*
X8946319Y-14270519D01*
X8965367Y-14280043D01*
X8974890Y-14299090D01*
X8974890Y-14403852D01*
X9070129Y-14403852D02*
X9070129Y-14270519D01*
X9070129Y-14289566D02*
X9079652Y-14280043D01*
X9098700Y-14270519D01*
X9127271Y-14270519D01*
X9146319Y-14280043D01*
X9155843Y-14299090D01*
X9155843Y-14403852D01*
X9155843Y-14299090D02*
X9165367Y-14280043D01*
X9184414Y-14270519D01*
X9212986Y-14270519D01*
X9232033Y-14280043D01*
X9241557Y-14299090D01*
X9241557Y-14403852D01*
X9632033Y-14194328D02*
X9460605Y-14451471D01*
X9889176Y-14203852D02*
X9908224Y-14203852D01*
X9927271Y-14213376D01*
X9936795Y-14222900D01*
X9946319Y-14241947D01*
X9955843Y-14280043D01*
X9955843Y-14327662D01*
X9946319Y-14365757D01*
X9936795Y-14384804D01*
X9927271Y-14394328D01*
X9908224Y-14403852D01*
X9889176Y-14403852D01*
X9870129Y-14394328D01*
X9860605Y-14384804D01*
X9851081Y-14365757D01*
X9841557Y-14327662D01*
X9841557Y-14280043D01*
X9851081Y-14241947D01*
X9860605Y-14222900D01*
X9870129Y-14213376D01*
X9889176Y-14203852D01*
X10041557Y-14384804D02*
X10051081Y-14394328D01*
X10041557Y-14403852D01*
X10032033Y-14394328D01*
X10041557Y-14384804D01*
X10041557Y-14403852D01*
X10174890Y-14203852D02*
X10193938Y-14203852D01*
X10212986Y-14213376D01*
X10222510Y-14222900D01*
X10232033Y-14241947D01*
X10241557Y-14280043D01*
X10241557Y-14327662D01*
X10232033Y-14365757D01*
X10222510Y-14384804D01*
X10212986Y-14394328D01*
X10193938Y-14403852D01*
X10174890Y-14403852D01*
X10155843Y-14394328D01*
X10146319Y-14384804D01*
X10136795Y-14365757D01*
X10127271Y-14327662D01*
X10127271Y-14280043D01*
X10136795Y-14241947D01*
X10146319Y-14222900D01*
X10155843Y-14213376D01*
X10174890Y-14203852D01*
X10308224Y-14203852D02*
X10432033Y-14203852D01*
X10365367Y-14280043D01*
X10393938Y-14280043D01*
X10412986Y-14289566D01*
X10422510Y-14299090D01*
X10432033Y-14318138D01*
X10432033Y-14365757D01*
X10422510Y-14384804D01*
X10412986Y-14394328D01*
X10393938Y-14403852D01*
X10336795Y-14403852D01*
X10317748Y-14394328D01*
X10308224Y-14384804D01*
X10508224Y-14222900D02*
X10517748Y-14213376D01*
X10536795Y-14203852D01*
X10584414Y-14203852D01*
X10603462Y-14213376D01*
X10612986Y-14222900D01*
X10622510Y-14241947D01*
X10622510Y-14260995D01*
X10612986Y-14289566D01*
X10498700Y-14403852D01*
X10622510Y-14403852D01*
X10746319Y-14203852D02*
X10765367Y-14203852D01*
X10784414Y-14213376D01*
X10793938Y-14222900D01*
X10803462Y-14241947D01*
X10812986Y-14280043D01*
X10812986Y-14327662D01*
X10803462Y-14365757D01*
X10793938Y-14384804D01*
X10784414Y-14394328D01*
X10765367Y-14403852D01*
X10746319Y-14403852D01*
X10727271Y-14394328D01*
X10717748Y-14384804D01*
X10708224Y-14365757D01*
X10698700Y-14327662D01*
X10698700Y-14280043D01*
X10708224Y-14241947D01*
X10717748Y-14222900D01*
X10727271Y-14213376D01*
X10746319Y-14203852D01*
X10889176Y-14203852D02*
X10889176Y-14241947D01*
X10965367Y-14203852D02*
X10965367Y-14241947D01*
X11260605Y-14480043D02*
X11251081Y-14470519D01*
X11232033Y-14441947D01*
X11222509Y-14422900D01*
X11212986Y-14394328D01*
X11203462Y-14346709D01*
X11203462Y-14308614D01*
X11212986Y-14260995D01*
X11222509Y-14232424D01*
X11232033Y-14213376D01*
X11251081Y-14184804D01*
X11260605Y-14175281D01*
X11346319Y-14403852D02*
X11384414Y-14403852D01*
X11403462Y-14394328D01*
X11412986Y-14384804D01*
X11432033Y-14356233D01*
X11441557Y-14318138D01*
X11441557Y-14241947D01*
X11432033Y-14222900D01*
X11422509Y-14213376D01*
X11403462Y-14203852D01*
X11365367Y-14203852D01*
X11346319Y-14213376D01*
X11336795Y-14222900D01*
X11327271Y-14241947D01*
X11327271Y-14289566D01*
X11336795Y-14308614D01*
X11346319Y-14318138D01*
X11365367Y-14327662D01*
X11403462Y-14327662D01*
X11422509Y-14318138D01*
X11432033Y-14308614D01*
X11441557Y-14289566D01*
X11565367Y-14203852D02*
X11584414Y-14203852D01*
X11603462Y-14213376D01*
X11612986Y-14222900D01*
X11622509Y-14241947D01*
X11632033Y-14280043D01*
X11632033Y-14327662D01*
X11622509Y-14365757D01*
X11612986Y-14384804D01*
X11603462Y-14394328D01*
X11584414Y-14403852D01*
X11565367Y-14403852D01*
X11546319Y-14394328D01*
X11536795Y-14384804D01*
X11527271Y-14365757D01*
X11517748Y-14327662D01*
X11517748Y-14280043D01*
X11527271Y-14241947D01*
X11536795Y-14222900D01*
X11546319Y-14213376D01*
X11565367Y-14203852D01*
X11870128Y-14403852D02*
X11870128Y-14203852D01*
X11955843Y-14403852D02*
X11955843Y-14299090D01*
X11946319Y-14280043D01*
X11927271Y-14270519D01*
X11898700Y-14270519D01*
X11879652Y-14280043D01*
X11870128Y-14289566D01*
X12079652Y-14403852D02*
X12060605Y-14394328D01*
X12051081Y-14384804D01*
X12041557Y-14365757D01*
X12041557Y-14308614D01*
X12051081Y-14289566D01*
X12060605Y-14280043D01*
X12079652Y-14270519D01*
X12108224Y-14270519D01*
X12127271Y-14280043D01*
X12136795Y-14289566D01*
X12146319Y-14308614D01*
X12146319Y-14365757D01*
X12136795Y-14384804D01*
X12127271Y-14394328D01*
X12108224Y-14403852D01*
X12079652Y-14403852D01*
X12260605Y-14403852D02*
X12241557Y-14394328D01*
X12232033Y-14375281D01*
X12232033Y-14203852D01*
X12412986Y-14394328D02*
X12393938Y-14403852D01*
X12355843Y-14403852D01*
X12336795Y-14394328D01*
X12327271Y-14375281D01*
X12327271Y-14299090D01*
X12336795Y-14280043D01*
X12355843Y-14270519D01*
X12393938Y-14270519D01*
X12412986Y-14280043D01*
X12422509Y-14299090D01*
X12422509Y-14318138D01*
X12327271Y-14337185D01*
X12498700Y-14394328D02*
X12517748Y-14403852D01*
X12555843Y-14403852D01*
X12574890Y-14394328D01*
X12584414Y-14375281D01*
X12584414Y-14365757D01*
X12574890Y-14346709D01*
X12555843Y-14337185D01*
X12527271Y-14337185D01*
X12508224Y-14327662D01*
X12498700Y-14308614D01*
X12498700Y-14299090D01*
X12508224Y-14280043D01*
X12527271Y-14270519D01*
X12555843Y-14270519D01*
X12574890Y-14280043D01*
X12651081Y-14480043D02*
X12660605Y-14470519D01*
X12679652Y-14441947D01*
X12689176Y-14422900D01*
X12698700Y-14394328D01*
X12708224Y-14346709D01*
X12708224Y-14308614D01*
X12698700Y-14260995D01*
X12689176Y-14232424D01*
X12679652Y-14213376D01*
X12660605Y-14184804D01*
X12651081Y-14175281D01*
D14*
X7638700Y-14527376D02*
X7638700Y-14627376D01*
X7588700Y-14577376D02*
X7688700Y-14577376D01*
D11*
X8051081Y-14667852D02*
X7936795Y-14667852D01*
X7993938Y-14667852D02*
X7993938Y-14467852D01*
X7974890Y-14496424D01*
X7955843Y-14515471D01*
X7936795Y-14524995D01*
X8136795Y-14648804D02*
X8146319Y-14658328D01*
X8136795Y-14667852D01*
X8127271Y-14658328D01*
X8136795Y-14648804D01*
X8136795Y-14667852D01*
X8270128Y-14467852D02*
X8289176Y-14467852D01*
X8308224Y-14477376D01*
X8317748Y-14486900D01*
X8327271Y-14505947D01*
X8336795Y-14544043D01*
X8336795Y-14591662D01*
X8327271Y-14629757D01*
X8317748Y-14648804D01*
X8308224Y-14658328D01*
X8289176Y-14667852D01*
X8270128Y-14667852D01*
X8251081Y-14658328D01*
X8241557Y-14648804D01*
X8232033Y-14629757D01*
X8222509Y-14591662D01*
X8222509Y-14544043D01*
X8232033Y-14505947D01*
X8241557Y-14486900D01*
X8251081Y-14477376D01*
X8270128Y-14467852D01*
X8460605Y-14467852D02*
X8479652Y-14467852D01*
X8498700Y-14477376D01*
X8508224Y-14486900D01*
X8517748Y-14505947D01*
X8527271Y-14544043D01*
X8527271Y-14591662D01*
X8517748Y-14629757D01*
X8508224Y-14648804D01*
X8498700Y-14658328D01*
X8479652Y-14667852D01*
X8460605Y-14667852D01*
X8441557Y-14658328D01*
X8432033Y-14648804D01*
X8422510Y-14629757D01*
X8412986Y-14591662D01*
X8412986Y-14544043D01*
X8422510Y-14505947D01*
X8432033Y-14486900D01*
X8441557Y-14477376D01*
X8460605Y-14467852D01*
X8651081Y-14467852D02*
X8670129Y-14467852D01*
X8689176Y-14477376D01*
X8698700Y-14486900D01*
X8708224Y-14505947D01*
X8717748Y-14544043D01*
X8717748Y-14591662D01*
X8708224Y-14629757D01*
X8698700Y-14648804D01*
X8689176Y-14658328D01*
X8670129Y-14667852D01*
X8651081Y-14667852D01*
X8632033Y-14658328D01*
X8622510Y-14648804D01*
X8612986Y-14629757D01*
X8603462Y-14591662D01*
X8603462Y-14544043D01*
X8612986Y-14505947D01*
X8622510Y-14486900D01*
X8632033Y-14477376D01*
X8651081Y-14467852D01*
X8803462Y-14667852D02*
X8803462Y-14534519D01*
X8803462Y-14553566D02*
X8812986Y-14544043D01*
X8832033Y-14534519D01*
X8860605Y-14534519D01*
X8879652Y-14544043D01*
X8889176Y-14563090D01*
X8889176Y-14667852D01*
X8889176Y-14563090D02*
X8898700Y-14544043D01*
X8917748Y-14534519D01*
X8946319Y-14534519D01*
X8965367Y-14544043D01*
X8974890Y-14563090D01*
X8974890Y-14667852D01*
X9070129Y-14667852D02*
X9070129Y-14534519D01*
X9070129Y-14553566D02*
X9079652Y-14544043D01*
X9098700Y-14534519D01*
X9127271Y-14534519D01*
X9146319Y-14544043D01*
X9155843Y-14563090D01*
X9155843Y-14667852D01*
X9155843Y-14563090D02*
X9165367Y-14544043D01*
X9184414Y-14534519D01*
X9212986Y-14534519D01*
X9232033Y-14544043D01*
X9241557Y-14563090D01*
X9241557Y-14667852D01*
X9632033Y-14458328D02*
X9460605Y-14715471D01*
X9889176Y-14467852D02*
X9908224Y-14467852D01*
X9927271Y-14477376D01*
X9936795Y-14486900D01*
X9946319Y-14505947D01*
X9955843Y-14544043D01*
X9955843Y-14591662D01*
X9946319Y-14629757D01*
X9936795Y-14648804D01*
X9927271Y-14658328D01*
X9908224Y-14667852D01*
X9889176Y-14667852D01*
X9870129Y-14658328D01*
X9860605Y-14648804D01*
X9851081Y-14629757D01*
X9841557Y-14591662D01*
X9841557Y-14544043D01*
X9851081Y-14505947D01*
X9860605Y-14486900D01*
X9870129Y-14477376D01*
X9889176Y-14467852D01*
X10041557Y-14648804D02*
X10051081Y-14658328D01*
X10041557Y-14667852D01*
X10032033Y-14658328D01*
X10041557Y-14648804D01*
X10041557Y-14667852D01*
X10174890Y-14467852D02*
X10193938Y-14467852D01*
X10212986Y-14477376D01*
X10222510Y-14486900D01*
X10232033Y-14505947D01*
X10241557Y-14544043D01*
X10241557Y-14591662D01*
X10232033Y-14629757D01*
X10222510Y-14648804D01*
X10212986Y-14658328D01*
X10193938Y-14667852D01*
X10174890Y-14667852D01*
X10155843Y-14658328D01*
X10146319Y-14648804D01*
X10136795Y-14629757D01*
X10127271Y-14591662D01*
X10127271Y-14544043D01*
X10136795Y-14505947D01*
X10146319Y-14486900D01*
X10155843Y-14477376D01*
X10174890Y-14467852D01*
X10308224Y-14467852D02*
X10432033Y-14467852D01*
X10365367Y-14544043D01*
X10393938Y-14544043D01*
X10412986Y-14553566D01*
X10422510Y-14563090D01*
X10432033Y-14582138D01*
X10432033Y-14629757D01*
X10422510Y-14648804D01*
X10412986Y-14658328D01*
X10393938Y-14667852D01*
X10336795Y-14667852D01*
X10317748Y-14658328D01*
X10308224Y-14648804D01*
X10527271Y-14667852D02*
X10565367Y-14667852D01*
X10584414Y-14658328D01*
X10593938Y-14648804D01*
X10612986Y-14620233D01*
X10622510Y-14582138D01*
X10622510Y-14505947D01*
X10612986Y-14486900D01*
X10603462Y-14477376D01*
X10584414Y-14467852D01*
X10546319Y-14467852D01*
X10527271Y-14477376D01*
X10517748Y-14486900D01*
X10508224Y-14505947D01*
X10508224Y-14553566D01*
X10517748Y-14572614D01*
X10527271Y-14582138D01*
X10546319Y-14591662D01*
X10584414Y-14591662D01*
X10603462Y-14582138D01*
X10612986Y-14572614D01*
X10622510Y-14553566D01*
X10793938Y-14534519D02*
X10793938Y-14667852D01*
X10746319Y-14458328D02*
X10698700Y-14601185D01*
X10822510Y-14601185D01*
X10889176Y-14467852D02*
X10889176Y-14505947D01*
X10965367Y-14467852D02*
X10965367Y-14505947D01*
X11260605Y-14744043D02*
X11251081Y-14734519D01*
X11232033Y-14705947D01*
X11222509Y-14686900D01*
X11212986Y-14658328D01*
X11203462Y-14610709D01*
X11203462Y-14572614D01*
X11212986Y-14524995D01*
X11222509Y-14496424D01*
X11232033Y-14477376D01*
X11251081Y-14448804D01*
X11260605Y-14439281D01*
X11374890Y-14467852D02*
X11393938Y-14467852D01*
X11412986Y-14477376D01*
X11422509Y-14486900D01*
X11432033Y-14505947D01*
X11441557Y-14544043D01*
X11441557Y-14591662D01*
X11432033Y-14629757D01*
X11422509Y-14648804D01*
X11412986Y-14658328D01*
X11393938Y-14667852D01*
X11374890Y-14667852D01*
X11355843Y-14658328D01*
X11346319Y-14648804D01*
X11336795Y-14629757D01*
X11327271Y-14591662D01*
X11327271Y-14544043D01*
X11336795Y-14505947D01*
X11346319Y-14486900D01*
X11355843Y-14477376D01*
X11374890Y-14467852D01*
X11679652Y-14667852D02*
X11679652Y-14467852D01*
X11765367Y-14667852D02*
X11765367Y-14563090D01*
X11755843Y-14544043D01*
X11736795Y-14534519D01*
X11708224Y-14534519D01*
X11689176Y-14544043D01*
X11679652Y-14553566D01*
X11889176Y-14667852D02*
X11870128Y-14658328D01*
X11860605Y-14648804D01*
X11851081Y-14629757D01*
X11851081Y-14572614D01*
X11860605Y-14553566D01*
X11870128Y-14544043D01*
X11889176Y-14534519D01*
X11917748Y-14534519D01*
X11936795Y-14544043D01*
X11946319Y-14553566D01*
X11955843Y-14572614D01*
X11955843Y-14629757D01*
X11946319Y-14648804D01*
X11936795Y-14658328D01*
X11917748Y-14667852D01*
X11889176Y-14667852D01*
X12070128Y-14667852D02*
X12051081Y-14658328D01*
X12041557Y-14639281D01*
X12041557Y-14467852D01*
X12222509Y-14658328D02*
X12203462Y-14667852D01*
X12165367Y-14667852D01*
X12146319Y-14658328D01*
X12136795Y-14639281D01*
X12136795Y-14563090D01*
X12146319Y-14544043D01*
X12165367Y-14534519D01*
X12203462Y-14534519D01*
X12222509Y-14544043D01*
X12232033Y-14563090D01*
X12232033Y-14582138D01*
X12136795Y-14601185D01*
X12308224Y-14658328D02*
X12327271Y-14667852D01*
X12365367Y-14667852D01*
X12384414Y-14658328D01*
X12393938Y-14639281D01*
X12393938Y-14629757D01*
X12384414Y-14610709D01*
X12365367Y-14601185D01*
X12336795Y-14601185D01*
X12317748Y-14591662D01*
X12308224Y-14572614D01*
X12308224Y-14563090D01*
X12317748Y-14544043D01*
X12336795Y-14534519D01*
X12365367Y-14534519D01*
X12384414Y-14544043D01*
X12632033Y-14591662D02*
X12784414Y-14591662D01*
X12708224Y-14667852D02*
X12708224Y-14515471D01*
X13060605Y-14553566D02*
X13041557Y-14544043D01*
X13032033Y-14534519D01*
X13022509Y-14515471D01*
X13022509Y-14505947D01*
X13032033Y-14486900D01*
X13041557Y-14477376D01*
X13060605Y-14467852D01*
X13098700Y-14467852D01*
X13117748Y-14477376D01*
X13127271Y-14486900D01*
X13136795Y-14505947D01*
X13136795Y-14515471D01*
X13127271Y-14534519D01*
X13117748Y-14544043D01*
X13098700Y-14553566D01*
X13060605Y-14553566D01*
X13041557Y-14563090D01*
X13032033Y-14572614D01*
X13022509Y-14591662D01*
X13022509Y-14629757D01*
X13032033Y-14648804D01*
X13041557Y-14658328D01*
X13060605Y-14667852D01*
X13098700Y-14667852D01*
X13117748Y-14658328D01*
X13127271Y-14648804D01*
X13136795Y-14629757D01*
X13136795Y-14591662D01*
X13127271Y-14572614D01*
X13117748Y-14563090D01*
X13098700Y-14553566D01*
X13365367Y-14658328D02*
X13384414Y-14667852D01*
X13422509Y-14667852D01*
X13441557Y-14658328D01*
X13451081Y-14639281D01*
X13451081Y-14629757D01*
X13441557Y-14610709D01*
X13422509Y-14601185D01*
X13393938Y-14601185D01*
X13374890Y-14591662D01*
X13365367Y-14572614D01*
X13365367Y-14563090D01*
X13374890Y-14544043D01*
X13393938Y-14534519D01*
X13422509Y-14534519D01*
X13441557Y-14544043D01*
X13565367Y-14667852D02*
X13546319Y-14658328D01*
X13536795Y-14639281D01*
X13536795Y-14467852D01*
X13670128Y-14667852D02*
X13651081Y-14658328D01*
X13641557Y-14648804D01*
X13632033Y-14629757D01*
X13632033Y-14572614D01*
X13641557Y-14553566D01*
X13651081Y-14544043D01*
X13670128Y-14534519D01*
X13698700Y-14534519D01*
X13717748Y-14544043D01*
X13727271Y-14553566D01*
X13736795Y-14572614D01*
X13736795Y-14629757D01*
X13727271Y-14648804D01*
X13717748Y-14658328D01*
X13698700Y-14667852D01*
X13670128Y-14667852D01*
X13793938Y-14534519D02*
X13870128Y-14534519D01*
X13822509Y-14467852D02*
X13822509Y-14639281D01*
X13832033Y-14658328D01*
X13851081Y-14667852D01*
X13870128Y-14667852D01*
X13927271Y-14658328D02*
X13946319Y-14667852D01*
X13984414Y-14667852D01*
X14003462Y-14658328D01*
X14012986Y-14639281D01*
X14012986Y-14629757D01*
X14003462Y-14610709D01*
X13984414Y-14601185D01*
X13955843Y-14601185D01*
X13936795Y-14591662D01*
X13927271Y-14572614D01*
X13927271Y-14563090D01*
X13936795Y-14544043D01*
X13955843Y-14534519D01*
X13984414Y-14534519D01*
X14003462Y-14544043D01*
X14079652Y-14744043D02*
X14089176Y-14734519D01*
X14108224Y-14705947D01*
X14117748Y-14686900D01*
X14127271Y-14658328D01*
X14136795Y-14610709D01*
X14136795Y-14572614D01*
X14127271Y-14524995D01*
X14117748Y-14496424D01*
X14108224Y-14477376D01*
X14089176Y-14448804D01*
X14079652Y-14439281D01*
D15*
X7669662Y-14887338D02*
X7669662Y-14795414D01*
X7577738Y-14795414D01*
X7577738Y-14887338D01*
X7669662Y-14887338D01*
D11*
X8051081Y-14931852D02*
X7936795Y-14931852D01*
X7993938Y-14931852D02*
X7993938Y-14731852D01*
X7974890Y-14760424D01*
X7955843Y-14779471D01*
X7936795Y-14788995D01*
X8136795Y-14912804D02*
X8146319Y-14922328D01*
X8136795Y-14931852D01*
X8127271Y-14922328D01*
X8136795Y-14912804D01*
X8136795Y-14931852D01*
X8212986Y-14731852D02*
X8336795Y-14731852D01*
X8270128Y-14808043D01*
X8298700Y-14808043D01*
X8317748Y-14817566D01*
X8327271Y-14827090D01*
X8336795Y-14846138D01*
X8336795Y-14893757D01*
X8327271Y-14912804D01*
X8317748Y-14922328D01*
X8298700Y-14931852D01*
X8241557Y-14931852D01*
X8222509Y-14922328D01*
X8212986Y-14912804D01*
X8460605Y-14731852D02*
X8479652Y-14731852D01*
X8498700Y-14741376D01*
X8508224Y-14750900D01*
X8517748Y-14769947D01*
X8527271Y-14808043D01*
X8527271Y-14855662D01*
X8517748Y-14893757D01*
X8508224Y-14912804D01*
X8498700Y-14922328D01*
X8479652Y-14931852D01*
X8460605Y-14931852D01*
X8441557Y-14922328D01*
X8432033Y-14912804D01*
X8422510Y-14893757D01*
X8412986Y-14855662D01*
X8412986Y-14808043D01*
X8422510Y-14769947D01*
X8432033Y-14750900D01*
X8441557Y-14741376D01*
X8460605Y-14731852D01*
X8651081Y-14731852D02*
X8670129Y-14731852D01*
X8689176Y-14741376D01*
X8698700Y-14750900D01*
X8708224Y-14769947D01*
X8717748Y-14808043D01*
X8717748Y-14855662D01*
X8708224Y-14893757D01*
X8698700Y-14912804D01*
X8689176Y-14922328D01*
X8670129Y-14931852D01*
X8651081Y-14931852D01*
X8632033Y-14922328D01*
X8622510Y-14912804D01*
X8612986Y-14893757D01*
X8603462Y-14855662D01*
X8603462Y-14808043D01*
X8612986Y-14769947D01*
X8622510Y-14750900D01*
X8632033Y-14741376D01*
X8651081Y-14731852D01*
X8803462Y-14931852D02*
X8803462Y-14798519D01*
X8803462Y-14817566D02*
X8812986Y-14808043D01*
X8832033Y-14798519D01*
X8860605Y-14798519D01*
X8879652Y-14808043D01*
X8889176Y-14827090D01*
X8889176Y-14931852D01*
X8889176Y-14827090D02*
X8898700Y-14808043D01*
X8917748Y-14798519D01*
X8946319Y-14798519D01*
X8965367Y-14808043D01*
X8974890Y-14827090D01*
X8974890Y-14931852D01*
X9070129Y-14931852D02*
X9070129Y-14798519D01*
X9070129Y-14817566D02*
X9079652Y-14808043D01*
X9098700Y-14798519D01*
X9127271Y-14798519D01*
X9146319Y-14808043D01*
X9155843Y-14827090D01*
X9155843Y-14931852D01*
X9155843Y-14827090D02*
X9165367Y-14808043D01*
X9184414Y-14798519D01*
X9212986Y-14798519D01*
X9232033Y-14808043D01*
X9241557Y-14827090D01*
X9241557Y-14931852D01*
X9632033Y-14722328D02*
X9460605Y-14979471D01*
X9889176Y-14731852D02*
X9908224Y-14731852D01*
X9927271Y-14741376D01*
X9936795Y-14750900D01*
X9946319Y-14769947D01*
X9955843Y-14808043D01*
X9955843Y-14855662D01*
X9946319Y-14893757D01*
X9936795Y-14912804D01*
X9927271Y-14922328D01*
X9908224Y-14931852D01*
X9889176Y-14931852D01*
X9870129Y-14922328D01*
X9860605Y-14912804D01*
X9851081Y-14893757D01*
X9841557Y-14855662D01*
X9841557Y-14808043D01*
X9851081Y-14769947D01*
X9860605Y-14750900D01*
X9870129Y-14741376D01*
X9889176Y-14731852D01*
X10041557Y-14912804D02*
X10051081Y-14922328D01*
X10041557Y-14931852D01*
X10032033Y-14922328D01*
X10041557Y-14912804D01*
X10041557Y-14931852D01*
X10174890Y-14731852D02*
X10193938Y-14731852D01*
X10212986Y-14741376D01*
X10222510Y-14750900D01*
X10232033Y-14769947D01*
X10241557Y-14808043D01*
X10241557Y-14855662D01*
X10232033Y-14893757D01*
X10222510Y-14912804D01*
X10212986Y-14922328D01*
X10193938Y-14931852D01*
X10174890Y-14931852D01*
X10155843Y-14922328D01*
X10146319Y-14912804D01*
X10136795Y-14893757D01*
X10127271Y-14855662D01*
X10127271Y-14808043D01*
X10136795Y-14769947D01*
X10146319Y-14750900D01*
X10155843Y-14741376D01*
X10174890Y-14731852D01*
X10422510Y-14731852D02*
X10327271Y-14731852D01*
X10317748Y-14827090D01*
X10327271Y-14817566D01*
X10346319Y-14808043D01*
X10393938Y-14808043D01*
X10412986Y-14817566D01*
X10422510Y-14827090D01*
X10432033Y-14846138D01*
X10432033Y-14893757D01*
X10422510Y-14912804D01*
X10412986Y-14922328D01*
X10393938Y-14931852D01*
X10346319Y-14931852D01*
X10327271Y-14922328D01*
X10317748Y-14912804D01*
X10622510Y-14931852D02*
X10508224Y-14931852D01*
X10565367Y-14931852D02*
X10565367Y-14731852D01*
X10546319Y-14760424D01*
X10527271Y-14779471D01*
X10508224Y-14788995D01*
X10698700Y-14750900D02*
X10708224Y-14741376D01*
X10727271Y-14731852D01*
X10774890Y-14731852D01*
X10793938Y-14741376D01*
X10803462Y-14750900D01*
X10812986Y-14769947D01*
X10812986Y-14788995D01*
X10803462Y-14817566D01*
X10689176Y-14931852D01*
X10812986Y-14931852D01*
X10889176Y-14731852D02*
X10889176Y-14769947D01*
X10965367Y-14731852D02*
X10965367Y-14769947D01*
X11260605Y-15008043D02*
X11251081Y-14998519D01*
X11232033Y-14969947D01*
X11222509Y-14950900D01*
X11212986Y-14922328D01*
X11203462Y-14874709D01*
X11203462Y-14836614D01*
X11212986Y-14788995D01*
X11222509Y-14760424D01*
X11232033Y-14741376D01*
X11251081Y-14712804D01*
X11260605Y-14703281D01*
X11327271Y-14750900D02*
X11336795Y-14741376D01*
X11355843Y-14731852D01*
X11403462Y-14731852D01*
X11422509Y-14741376D01*
X11432033Y-14750900D01*
X11441557Y-14769947D01*
X11441557Y-14788995D01*
X11432033Y-14817566D01*
X11317748Y-14931852D01*
X11441557Y-14931852D01*
X11679652Y-14931852D02*
X11679652Y-14731852D01*
X11765367Y-14931852D02*
X11765367Y-14827090D01*
X11755843Y-14808043D01*
X11736795Y-14798519D01*
X11708224Y-14798519D01*
X11689176Y-14808043D01*
X11679652Y-14817566D01*
X11889176Y-14931852D02*
X11870128Y-14922328D01*
X11860605Y-14912804D01*
X11851081Y-14893757D01*
X11851081Y-14836614D01*
X11860605Y-14817566D01*
X11870128Y-14808043D01*
X11889176Y-14798519D01*
X11917748Y-14798519D01*
X11936795Y-14808043D01*
X11946319Y-14817566D01*
X11955843Y-14836614D01*
X11955843Y-14893757D01*
X11946319Y-14912804D01*
X11936795Y-14922328D01*
X11917748Y-14931852D01*
X11889176Y-14931852D01*
X12070128Y-14931852D02*
X12051081Y-14922328D01*
X12041557Y-14903281D01*
X12041557Y-14731852D01*
X12222509Y-14922328D02*
X12203462Y-14931852D01*
X12165367Y-14931852D01*
X12146319Y-14922328D01*
X12136795Y-14903281D01*
X12136795Y-14827090D01*
X12146319Y-14808043D01*
X12165367Y-14798519D01*
X12203462Y-14798519D01*
X12222509Y-14808043D01*
X12232033Y-14827090D01*
X12232033Y-14846138D01*
X12136795Y-14865185D01*
X12308224Y-14922328D02*
X12327271Y-14931852D01*
X12365367Y-14931852D01*
X12384414Y-14922328D01*
X12393938Y-14903281D01*
X12393938Y-14893757D01*
X12384414Y-14874709D01*
X12365367Y-14865185D01*
X12336795Y-14865185D01*
X12317748Y-14855662D01*
X12308224Y-14836614D01*
X12308224Y-14827090D01*
X12317748Y-14808043D01*
X12336795Y-14798519D01*
X12365367Y-14798519D01*
X12384414Y-14808043D01*
X12460605Y-15008043D02*
X12470128Y-14998519D01*
X12489176Y-14969947D01*
X12498700Y-14950900D01*
X12508224Y-14922328D01*
X12517748Y-14874709D01*
X12517748Y-14836614D01*
X12508224Y-14788995D01*
X12498700Y-14760424D01*
X12489176Y-14741376D01*
X12470128Y-14712804D01*
X12460605Y-14703281D01*
X7588700Y-15205376D02*
X7688700Y-15105376D01*
X7588700Y-15005376D01*
X7488700Y-15105376D01*
X7588700Y-15205376D01*
X7927271Y-14995852D02*
X8051081Y-14995852D01*
X7984414Y-15072043D01*
X8012986Y-15072043D01*
X8032033Y-15081566D01*
X8041557Y-15091090D01*
X8051081Y-15110138D01*
X8051081Y-15157757D01*
X8041557Y-15176804D01*
X8032033Y-15186328D01*
X8012986Y-15195852D01*
X7955843Y-15195852D01*
X7936795Y-15186328D01*
X7927271Y-15176804D01*
X8136795Y-15176804D02*
X8146319Y-15186328D01*
X8136795Y-15195852D01*
X8127271Y-15186328D01*
X8136795Y-15176804D01*
X8136795Y-15195852D01*
X8260605Y-15081566D02*
X8241557Y-15072043D01*
X8232033Y-15062519D01*
X8222509Y-15043471D01*
X8222509Y-15033947D01*
X8232033Y-15014900D01*
X8241557Y-15005376D01*
X8260605Y-14995852D01*
X8298700Y-14995852D01*
X8317748Y-15005376D01*
X8327271Y-15014900D01*
X8336795Y-15033947D01*
X8336795Y-15043471D01*
X8327271Y-15062519D01*
X8317748Y-15072043D01*
X8298700Y-15081566D01*
X8260605Y-15081566D01*
X8241557Y-15091090D01*
X8232033Y-15100614D01*
X8222509Y-15119662D01*
X8222509Y-15157757D01*
X8232033Y-15176804D01*
X8241557Y-15186328D01*
X8260605Y-15195852D01*
X8298700Y-15195852D01*
X8317748Y-15186328D01*
X8327271Y-15176804D01*
X8336795Y-15157757D01*
X8336795Y-15119662D01*
X8327271Y-15100614D01*
X8317748Y-15091090D01*
X8298700Y-15081566D01*
X8460605Y-14995852D02*
X8479652Y-14995852D01*
X8498700Y-15005376D01*
X8508224Y-15014900D01*
X8517748Y-15033947D01*
X8527271Y-15072043D01*
X8527271Y-15119662D01*
X8517748Y-15157757D01*
X8508224Y-15176804D01*
X8498700Y-15186328D01*
X8479652Y-15195852D01*
X8460605Y-15195852D01*
X8441557Y-15186328D01*
X8432033Y-15176804D01*
X8422510Y-15157757D01*
X8412986Y-15119662D01*
X8412986Y-15072043D01*
X8422510Y-15033947D01*
X8432033Y-15014900D01*
X8441557Y-15005376D01*
X8460605Y-14995852D01*
X8651081Y-14995852D02*
X8670129Y-14995852D01*
X8689176Y-15005376D01*
X8698700Y-15014900D01*
X8708224Y-15033947D01*
X8717748Y-15072043D01*
X8717748Y-15119662D01*
X8708224Y-15157757D01*
X8698700Y-15176804D01*
X8689176Y-15186328D01*
X8670129Y-15195852D01*
X8651081Y-15195852D01*
X8632033Y-15186328D01*
X8622510Y-15176804D01*
X8612986Y-15157757D01*
X8603462Y-15119662D01*
X8603462Y-15072043D01*
X8612986Y-15033947D01*
X8622510Y-15014900D01*
X8632033Y-15005376D01*
X8651081Y-14995852D01*
X8803462Y-15195852D02*
X8803462Y-15062519D01*
X8803462Y-15081566D02*
X8812986Y-15072043D01*
X8832033Y-15062519D01*
X8860605Y-15062519D01*
X8879652Y-15072043D01*
X8889176Y-15091090D01*
X8889176Y-15195852D01*
X8889176Y-15091090D02*
X8898700Y-15072043D01*
X8917748Y-15062519D01*
X8946319Y-15062519D01*
X8965367Y-15072043D01*
X8974890Y-15091090D01*
X8974890Y-15195852D01*
X9070129Y-15195852D02*
X9070129Y-15062519D01*
X9070129Y-15081566D02*
X9079652Y-15072043D01*
X9098700Y-15062519D01*
X9127271Y-15062519D01*
X9146319Y-15072043D01*
X9155843Y-15091090D01*
X9155843Y-15195852D01*
X9155843Y-15091090D02*
X9165367Y-15072043D01*
X9184414Y-15062519D01*
X9212986Y-15062519D01*
X9232033Y-15072043D01*
X9241557Y-15091090D01*
X9241557Y-15195852D01*
X9632033Y-14986328D02*
X9460605Y-15243471D01*
X9889176Y-14995852D02*
X9908224Y-14995852D01*
X9927271Y-15005376D01*
X9936795Y-15014900D01*
X9946319Y-15033947D01*
X9955843Y-15072043D01*
X9955843Y-15119662D01*
X9946319Y-15157757D01*
X9936795Y-15176804D01*
X9927271Y-15186328D01*
X9908224Y-15195852D01*
X9889176Y-15195852D01*
X9870129Y-15186328D01*
X9860605Y-15176804D01*
X9851081Y-15157757D01*
X9841557Y-15119662D01*
X9841557Y-15072043D01*
X9851081Y-15033947D01*
X9860605Y-15014900D01*
X9870129Y-15005376D01*
X9889176Y-14995852D01*
X10041557Y-15176804D02*
X10051081Y-15186328D01*
X10041557Y-15195852D01*
X10032033Y-15186328D01*
X10041557Y-15176804D01*
X10041557Y-15195852D01*
X10241557Y-15195852D02*
X10127271Y-15195852D01*
X10184414Y-15195852D02*
X10184414Y-14995852D01*
X10165367Y-15024424D01*
X10146319Y-15043471D01*
X10127271Y-15052995D01*
X10412986Y-15062519D02*
X10412986Y-15195852D01*
X10365367Y-14986328D02*
X10317748Y-15129185D01*
X10441557Y-15129185D01*
X10527271Y-15195852D02*
X10565367Y-15195852D01*
X10584414Y-15186328D01*
X10593938Y-15176804D01*
X10612986Y-15148233D01*
X10622510Y-15110138D01*
X10622510Y-15033947D01*
X10612986Y-15014900D01*
X10603462Y-15005376D01*
X10584414Y-14995852D01*
X10546319Y-14995852D01*
X10527271Y-15005376D01*
X10517748Y-15014900D01*
X10508224Y-15033947D01*
X10508224Y-15081566D01*
X10517748Y-15100614D01*
X10527271Y-15110138D01*
X10546319Y-15119662D01*
X10584414Y-15119662D01*
X10603462Y-15110138D01*
X10612986Y-15100614D01*
X10622510Y-15081566D01*
X10793938Y-14995852D02*
X10755843Y-14995852D01*
X10736795Y-15005376D01*
X10727271Y-15014900D01*
X10708224Y-15043471D01*
X10698700Y-15081566D01*
X10698700Y-15157757D01*
X10708224Y-15176804D01*
X10717748Y-15186328D01*
X10736795Y-15195852D01*
X10774890Y-15195852D01*
X10793938Y-15186328D01*
X10803462Y-15176804D01*
X10812986Y-15157757D01*
X10812986Y-15110138D01*
X10803462Y-15091090D01*
X10793938Y-15081566D01*
X10774890Y-15072043D01*
X10736795Y-15072043D01*
X10717748Y-15081566D01*
X10708224Y-15091090D01*
X10698700Y-15110138D01*
X10889176Y-14995852D02*
X10889176Y-15033947D01*
X10965367Y-14995852D02*
X10965367Y-15033947D01*
X11260605Y-15272043D02*
X11251081Y-15262519D01*
X11232033Y-15233947D01*
X11222509Y-15214900D01*
X11212986Y-15186328D01*
X11203462Y-15138709D01*
X11203462Y-15100614D01*
X11212986Y-15052995D01*
X11222509Y-15024424D01*
X11232033Y-15005376D01*
X11251081Y-14976804D01*
X11260605Y-14967281D01*
X11317748Y-14995852D02*
X11451081Y-14995852D01*
X11365367Y-15195852D01*
X11679652Y-15195852D02*
X11679652Y-14995852D01*
X11765367Y-15195852D02*
X11765367Y-15091090D01*
X11755843Y-15072043D01*
X11736795Y-15062519D01*
X11708224Y-15062519D01*
X11689176Y-15072043D01*
X11679652Y-15081566D01*
X11889176Y-15195852D02*
X11870128Y-15186328D01*
X11860605Y-15176804D01*
X11851081Y-15157757D01*
X11851081Y-15100614D01*
X11860605Y-15081566D01*
X11870128Y-15072043D01*
X11889176Y-15062519D01*
X11917748Y-15062519D01*
X11936795Y-15072043D01*
X11946319Y-15081566D01*
X11955843Y-15100614D01*
X11955843Y-15157757D01*
X11946319Y-15176804D01*
X11936795Y-15186328D01*
X11917748Y-15195852D01*
X11889176Y-15195852D01*
X12070128Y-15195852D02*
X12051081Y-15186328D01*
X12041557Y-15167281D01*
X12041557Y-14995852D01*
X12222509Y-15186328D02*
X12203462Y-15195852D01*
X12165367Y-15195852D01*
X12146319Y-15186328D01*
X12136795Y-15167281D01*
X12136795Y-15091090D01*
X12146319Y-15072043D01*
X12165367Y-15062519D01*
X12203462Y-15062519D01*
X12222509Y-15072043D01*
X12232033Y-15091090D01*
X12232033Y-15110138D01*
X12136795Y-15129185D01*
X12308224Y-15186328D02*
X12327271Y-15195852D01*
X12365367Y-15195852D01*
X12384414Y-15186328D01*
X12393938Y-15167281D01*
X12393938Y-15157757D01*
X12384414Y-15138709D01*
X12365367Y-15129185D01*
X12336795Y-15129185D01*
X12317748Y-15119662D01*
X12308224Y-15100614D01*
X12308224Y-15091090D01*
X12317748Y-15072043D01*
X12336795Y-15062519D01*
X12365367Y-15062519D01*
X12384414Y-15072043D01*
X12460605Y-15272043D02*
X12470128Y-15262519D01*
X12489176Y-15233947D01*
X12498700Y-15214900D01*
X12508224Y-15186328D01*
X12517748Y-15138709D01*
X12517748Y-15100614D01*
X12508224Y-15052995D01*
X12498700Y-15024424D01*
X12489176Y-15005376D01*
X12470128Y-14976804D01*
X12460605Y-14967281D01*
M02*
